<svg width="26" height="26" viewBox="0 0 26 26" fill="none" xmlns="http://www.w3.org/2000/svg">
<circle cx="16" cy="15.7792" r="10" fill="black"/>
<circle cx="16.0001" cy="15.7791" r="8.33333" fill="#E3E3E3"/>
<path fill-rule="evenodd" clip-rule="evenodd" d="M15.5759 19.5122C15.6536 19.4279 15.7493 19.3621 15.8559 19.3197C16.0166 19.2536 16.1934 19.2366 16.3639 19.2709C16.5344 19.3051 16.6907 19.3891 16.8132 19.5122C16.8947 19.592 16.9593 19.6873 17.003 19.7925C17.0467 19.8978 17.0687 20.0107 17.0677 20.1246C17.0691 20.2398 17.0472 20.3542 17.0035 20.4609C16.9598 20.5676 16.8951 20.6644 16.8132 20.7458C16.7333 20.8296 16.6364 20.8955 16.529 20.9393C16.4216 20.983 16.3061 21.0035 16.1902 20.9995C16.0761 21 15.9629 20.9778 15.8575 20.9342C15.752 20.8907 15.6563 20.8266 15.5759 20.7458C15.493 20.6647 15.4271 20.5681 15.3819 20.4615C15.3367 20.3549 15.3132 20.2404 15.3127 20.1246C15.3133 20.0101 15.3369 19.897 15.3821 19.7918C15.4273 19.6866 15.4932 19.5915 15.5759 19.5122ZM18.4534 12.6197C18.4793 12.6339 18.505 12.648 18.5332 12.6616C18.5794 12.6973 18.6234 12.7359 18.6648 12.7771C18.7466 12.8567 18.8113 12.952 18.855 13.0573C18.8987 13.1626 18.9206 13.2756 18.9193 13.3895C18.9206 13.5048 18.8988 13.6191 18.8551 13.7258C18.8114 13.8325 18.7467 13.9294 18.6648 14.0107C18.5835 14.0934 18.4866 14.1591 18.3797 14.2042C18.2727 14.2493 18.1579 14.2727 18.0418 14.2732C17.9271 14.2716 17.8139 14.2478 17.7083 14.2032C17.4977 14.1088 17.3292 13.9407 17.2345 13.7307C17.188 13.6226 17.1641 13.5062 17.1642 13.3886C17.1646 13.2742 17.188 13.1609 17.2333 13.0557C17.2785 12.9505 17.3446 12.8554 17.4275 12.7762C17.5075 12.6941 17.6029 12.6284 17.7083 12.5829C17.8683 12.5128 18.0464 12.4947 18.2173 12.5312L18.384 12.5829C18.4084 12.595 18.431 12.6074 18.4534 12.6197ZM22.2938 15.3543C22.4631 15.3868 22.6197 15.4667 22.7453 15.5847C22.8249 15.668 22.8875 15.7661 22.9295 15.8734C22.9788 15.9772 23.0028 16.0911 22.9997 16.2059C23.0014 16.3196 22.9805 16.4326 22.9383 16.5383C22.8872 16.6427 22.8223 16.7399 22.7453 16.8271C22.5789 16.9897 22.3552 17.0808 22.1222 17.0808C21.8892 17.0808 21.6655 16.9897 21.4992 16.8271C21.4216 16.742 21.3593 16.6444 21.3149 16.5383C21.2465 16.3792 21.2275 16.2033 21.2604 16.0333C21.2932 15.8633 21.3764 15.7071 21.4992 15.5847C21.5843 15.5072 21.6823 15.445 21.7888 15.4009C21.9493 15.3379 22.1244 15.3218 22.2938 15.3543Z" fill="black"/>
<path fill-rule="evenodd" clip-rule="evenodd" d="M18.2704 6.4045L19.2559 6.44359C19.2987 6.29322 19.3603 6.14839 19.4395 6.0126L21.0889 3.18096C21.2428 2.92072 21.2883 2.61041 21.2154 2.31698C21.1426 2.02354 20.9574 1.77048 20.6997 1.61238C20.442 1.45428 20.1324 1.40381 19.8379 1.47185C19.5433 1.53989 19.2872 1.72099 19.125 1.97609L17.3748 4.68363C15.1022 2.15164 10.1457 2.64514 9.92927 2.66804C9.80163 2.6816 9.68462 2.74531 9.60395 2.84515C9.52329 2.94499 9.4856 3.07278 9.49916 3.20041C9.51272 3.32805 9.57643 3.44506 9.67627 3.52572C9.77611 3.60639 9.9039 3.64408 10.0315 3.63052C10.0323 3.63046 10.0343 3.63028 10.0375 3.62999C10.1835 3.61661 12.82 3.37502 14.9181 4.19292C13.923 4.83651 12.7619 5.17618 11.5769 5.17039C9.4493 5.08599 8.17845 4.41567 7.20531 2.85782C7.71127 2.43379 9.10915 1.52549 11.6579 1.71039C12.3976 1.79918 13.1169 2.01275 13.7851 2.34203C13.8403 2.37558 13.9017 2.39773 13.9656 2.40718C14.0295 2.41664 14.0947 2.4132 14.1572 2.39707C14.2198 2.38094 14.2785 2.35244 14.3299 2.31326C14.3812 2.27409 14.4242 2.22502 14.4563 2.16895C14.4884 2.11289 14.509 2.05097 14.5168 1.98683C14.5246 1.9227 14.5195 1.85765 14.5017 1.79553C14.484 1.73341 14.4539 1.67547 14.4134 1.62513C14.373 1.5748 14.3228 1.53308 14.2659 1.50244C13.4767 1.10457 12.6235 0.849072 11.7455 0.747685C8.78822 0.520434 7.1277 1.65223 6.55269 2.14423C6.38517 2.28911 6.27445 2.48871 6.24023 2.70753C6.20601 2.92635 6.25051 3.15022 6.36581 3.33933C7.49885 5.17366 9.0892 6.03632 11.5203 6.13673L11.5389 6.13746C13.1124 6.14186 14.6448 5.63556 15.906 4.69462C16.2516 4.91628 16.5578 5.19408 16.812 5.51657C16.8853 5.61005 16.98 5.68464 17.0881 5.73409C17.1961 5.78355 17.3144 5.80644 17.4332 5.80087C17.5519 5.79529 17.6675 5.76141 17.7705 5.70204C17.8734 5.64267 17.9607 5.55955 18.025 5.4596L19.9382 2.49943C19.9638 2.45898 20.0043 2.43027 20.051 2.41952C20.0977 2.40877 20.1467 2.41684 20.1874 2.442C20.229 2.46683 20.2592 2.50703 20.2714 2.55392C20.2836 2.6008 20.2768 2.6506 20.2526 2.69254L18.6031 5.52466C18.4436 5.79785 18.3313 6.0953 18.2704 6.4045Z" fill="black"/>
</svg>
