<svg width="17" height="27" viewBox="0 0 17 27" fill="none" xmlns="http://www.w3.org/2000/svg">
<path d="M7.54512 9.25233C7.59636 9.29797 7.59636 9.29797 7.64864 9.34453C7.75127 9.4276 7.75127 9.4276 7.87374 9.39377C7.91575 9.37697 7.95776 9.36017 8.00105 9.34285C8.36053 9.2184 8.63892 9.19831 8.99163 9.34956C9.13447 9.4045 9.19287 9.42606 9.33645 9.368C9.44417 9.29835 9.44417 9.29835 9.53838 9.21985C9.90563 8.96064 10.374 9.00412 10.799 9.03776C11.2153 9.13078 11.5712 9.37293 11.8143 9.7324C12.0082 10.094 12.0473 10.4509 11.9453 10.8493C11.793 11.2609 11.4852 11.5171 11.1138 11.7199C10.8308 11.8336 10.5735 11.8397 10.2741 11.8272C10.2893 11.854 10.3044 11.8807 10.3201 11.9083C10.5219 12.3073 10.5547 12.7086 10.4513 13.1461C10.3204 13.4961 10.0705 13.7503 9.74702 13.9229C9.52996 13.9929 9.32523 13.9904 9.09885 13.991C9.02751 13.9915 9.02751 13.9915 8.95473 13.992C8.85429 13.9926 8.75385 13.9928 8.65341 13.9928C8.50067 13.9931 8.34801 13.995 8.19529 13.997C8.0974 13.9974 7.99951 13.9976 7.90162 13.9977C7.8564 13.9984 7.81117 13.9992 7.76458 14C7.40953 13.9973 7.1369 13.904 6.86348 13.6685C6.55461 13.2783 6.46635 12.9838 6.47602 12.4806C6.50353 12.2396 6.58002 12.0851 6.70542 11.8809C6.63885 11.873 6.63885 11.873 6.57093 11.8649C6.01549 11.7901 5.57663 11.6545 5.21073 11.1927C4.98001 10.836 4.9755 10.473 5.02602 10.057C5.12878 9.65116 5.43028 9.39237 5.77018 9.1813C6.31302 8.91508 7.02588 8.9448 7.54512 9.25233ZM6.07564 10.1106C6.04425 10.1339 6.01286 10.1571 5.98052 10.181C5.90692 10.2749 5.90692 10.2749 5.88868 10.4258C5.93167 10.6699 6.0369 10.7213 6.23309 10.8616C6.42687 10.9607 6.65091 10.9339 6.86286 10.9153C7.08003 10.8346 7.2255 10.7516 7.33519 10.5398C7.37456 10.408 7.37456 10.408 7.33519 10.2716C7.04016 9.9831 6.87527 9.93405 6.47971 9.93775C6.30648 9.95236 6.20833 9.99619 6.07564 10.1106ZM9.74933 10.1643C9.62944 10.3148 9.62944 10.3148 9.64765 10.4828C9.70894 10.6874 9.78538 10.7474 9.95925 10.8616C10.1874 10.9394 10.403 10.943 10.6415 10.9153C10.8403 10.8118 11.0169 10.6966 11.1138 10.4861C11.086 10.2584 11.0296 10.1814 10.8547 10.0369C10.4821 9.84721 10.0598 9.87945 9.74933 10.1643ZM8.29431 10.2284C8.2074 10.3541 8.20729 10.4327 8.20605 10.5859C8.2049 10.6369 8.20375 10.6879 8.20257 10.7405C8.20209 10.7938 8.20162 10.847 8.20113 10.9019C8.19719 11.3377 8.19285 11.6767 7.89936 12.0183C7.75504 12.1491 7.75504 12.1491 7.65643 12.2239C7.43425 12.3961 7.43425 12.3961 7.35159 12.6654C7.3927 12.8717 7.43217 12.9389 7.5976 13.061C7.88051 13.1575 8.19214 13.1245 8.4865 13.1247C8.54843 13.1254 8.61037 13.126 8.67418 13.1267C8.73395 13.1268 8.79372 13.1269 8.8553 13.127C8.90976 13.1272 8.96421 13.1274 9.02032 13.1277C9.21648 13.1108 9.36553 13.0535 9.52956 12.9437C9.63661 12.7767 9.62404 12.6648 9.59189 12.4709C9.48414 12.3435 9.35638 12.2491 9.22452 12.1491C8.97686 11.9247 8.82624 11.7057 8.78975 11.3669C8.78087 11.158 8.77885 10.9495 8.77699 10.7405C8.77584 10.6895 8.77469 10.6384 8.77351 10.5859C8.77313 10.5397 8.77276 10.4935 8.77238 10.4458C8.76045 10.3224 8.76045 10.3224 8.68525 10.2284C8.54753 10.1308 8.43202 10.1308 8.29431 10.2284Z" fill="#87888D"/>
<path d="M9.86586 0.428585C10.3394 0.818744 10.628 1.27797 10.9173 1.81081C10.9559 1.88068 10.9945 1.9505 11.0331 2.0203C11.0921 2.12683 11.1511 2.23338 11.2098 2.34006C11.3916 2.67009 11.5785 2.9971 11.7666 3.32365C11.8283 3.43111 11.8899 3.53859 11.9516 3.64607C11.9826 3.70023 12.0137 3.75438 12.0457 3.81018C12.2312 4.13392 12.4164 4.45788 12.6011 4.78206C12.637 4.84466 12.6728 4.90726 12.7097 4.97176C12.7592 5.05878 12.7592 5.05878 12.8098 5.14757C12.8391 5.19896 12.8684 5.25034 12.8986 5.30329C12.9688 5.43508 12.9688 5.43508 13.0276 5.60922C13.0957 5.60653 13.1638 5.60383 13.2339 5.60106C13.3245 5.59888 13.415 5.59677 13.5055 5.59471C13.5503 5.59276 13.595 5.59082 13.6411 5.58881C13.9562 5.58345 14.1349 5.62919 14.3805 5.8414C14.6594 6.12029 14.6464 6.40913 14.648 6.78103C14.6471 6.85406 14.6462 6.92709 14.6452 7.00233C14.6466 7.11188 14.6466 7.11188 14.648 7.22363C14.6452 7.88695 14.6452 7.88695 14.3805 8.16326C14.187 8.32105 14.0808 8.39156 13.8291 8.40995C13.7781 8.40517 13.7272 8.40038 13.6747 8.39544C13.6941 8.54869 13.7135 8.70193 13.7335 8.85981C13.7875 8.85712 13.8415 8.85443 13.8971 8.85165C14.6951 8.82849 14.6951 8.82849 15.0276 9.092C15.2992 9.34722 15.534 9.60368 15.5702 9.98636C15.5696 10.0348 15.5689 10.0833 15.5683 10.1333C15.5679 10.1887 15.5676 10.2441 15.5672 10.3012C15.5664 10.3605 15.5656 10.4197 15.5648 10.4808C15.5649 10.6074 15.565 10.7339 15.5653 10.8605C15.5652 11.0592 15.5644 11.2579 15.5617 11.4566C15.5594 11.649 15.56 11.8412 15.5611 12.0335C15.5596 12.0924 15.5581 12.1514 15.5566 12.2121C15.5611 12.5444 15.6042 12.7154 15.8467 12.954C15.9264 13.0213 16.0062 13.0885 16.0864 13.1552C16.6963 13.9441 16.9969 14.8343 16.9925 15.8212C16.9931 15.9192 16.9931 15.9192 16.9938 16.0191C16.9948 16.2328 16.9946 16.4464 16.9943 16.66C16.9945 16.8098 16.9949 16.9595 16.9952 17.1092C16.9957 17.4221 16.9956 17.735 16.995 18.0479C16.9943 18.408 16.9952 18.7681 16.9967 19.1283C16.9982 19.4769 16.9983 19.8255 16.998 20.1741C16.998 20.3215 16.9983 20.4689 16.999 20.6163C16.9999 20.8227 16.9993 21.029 16.9983 21.2354C16.9988 21.2955 16.9994 21.3556 17 21.4175C16.993 22.1075 16.7533 22.6492 16.2629 23.1392C15.8967 23.4469 15.4376 23.6593 14.9623 23.741C14.809 23.7916 14.7494 23.8756 14.6489 23.999C14.4943 24.1813 14.3455 24.3388 14.1452 24.4743C14.1064 24.4743 14.0676 24.4743 14.0276 24.4743C14.037 24.5164 14.0464 24.5586 14.0561 24.602C14.1034 24.8553 14.1021 25.1061 14.1048 25.3631C14.1065 25.416 14.1082 25.469 14.11 25.5235C14.114 25.9521 14.0238 26.2534 13.7356 26.578C13.6973 26.6093 13.659 26.6406 13.6195 26.6728C13.5814 26.705 13.5432 26.7371 13.5039 26.7703C13.2434 26.9474 13.0193 26.9849 12.7059 26.9858C12.6289 26.9863 12.552 26.9868 12.4727 26.9873C12.3879 26.9872 12.303 26.9872 12.2181 26.9871C12.1285 26.9875 12.0388 26.9879 11.9491 26.9883C11.7058 26.9893 11.4624 26.9896 11.2191 26.9897C11.067 26.9898 10.9149 26.99 10.7627 26.9903C10.2316 26.9914 9.70057 26.9919 9.1695 26.9918C8.67501 26.9917 8.18053 26.9929 7.68604 26.9948C7.26105 26.9963 6.83607 26.9969 6.41108 26.9968C6.15745 26.9968 5.90383 26.9971 5.65021 26.9984C5.41154 26.9995 5.1729 26.9995 4.93424 26.9987C4.84688 26.9985 4.75952 26.9988 4.67217 26.9995C4.12697 27.0036 3.73143 26.9906 3.30753 26.624C3.27583 26.5862 3.24413 26.5485 3.21148 26.5095C3.17887 26.4719 3.14627 26.4342 3.11267 26.3955C2.88204 26.0652 2.89383 25.7629 2.89898 25.374C2.89902 25.3196 2.89906 25.2652 2.8991 25.2092C2.90074 24.9551 2.91256 24.7231 2.96883 24.4743C2.90377 24.4527 2.90377 24.4527 2.8374 24.4307C2.65926 24.3513 2.55971 24.2643 2.42472 24.126C2.38438 24.0853 2.34404 24.0446 2.30248 24.0026C2.20413 23.8938 2.20413 23.8938 2.14531 23.7777C2.03011 23.74 1.91334 23.7069 1.79604 23.6761C1.13802 23.4827 0.641339 23.1766 0.292145 22.5823C0.125111 22.263 0.0208783 22.0019 0.0190135 21.6403C0.0185926 21.5841 0.0181717 21.5279 0.017738 21.47C0.0175008 21.3781 0.0175008 21.3781 0.0172587 21.2843C0.0168722 21.2194 0.0164857 21.1545 0.0160874 21.0877C0.0149267 20.8726 0.0142404 20.6576 0.0136541 20.4425C0.0132945 20.3321 0.0132948 20.3321 0.0129279 20.2194C0.0118271 19.8695 0.0109706 19.5196 0.0104803 19.1696C0.00990761 18.7677 0.0083648 18.3658 0.00597985 17.9639C0.00397776 17.6143 0.00329407 17.2647 0.00305646 16.9151C0.00277141 16.7672 0.00209096 16.6194 0.000994737 16.4715C-0.00559545 15.5233 0.00719699 14.6658 0.472521 13.8119C0.506568 13.747 0.540614 13.6821 0.575692 13.6153C0.66686 13.4617 0.751991 13.3722 0.892197 13.2564C1.19813 12.9998 1.38764 12.7807 1.4347 12.3759C1.45668 12.0018 1.44706 11.6285 1.43575 11.2542C1.43213 11.0608 1.42945 10.8674 1.42803 10.674C1.42693 10.5543 1.42446 10.4346 1.4204 10.315C1.41308 9.88421 1.50002 9.57895 1.7903 9.25208C1.82859 9.2208 1.86688 9.18953 1.90634 9.1573C1.94448 9.12513 1.98262 9.09295 2.02192 9.0598C2.30296 8.86872 2.53088 8.84631 2.86957 8.85256C2.94335 8.85361 3.01713 8.85465 3.09314 8.85573C3.14918 8.85708 3.20521 8.85843 3.26295 8.85981C3.29207 8.62995 3.29207 8.62995 3.32177 8.39544C3.27082 8.40023 3.21986 8.40502 3.16736 8.40995C2.85975 8.38747 2.69688 8.24783 2.48952 8.03129C2.29368 7.73035 2.34691 7.3456 2.35119 7.00233C2.35028 6.9293 2.34937 6.85627 2.34843 6.78103C2.35133 6.10595 2.35133 6.10595 2.61589 5.8414C2.90398 5.59255 3.12659 5.57887 3.49089 5.59471C3.53699 5.59576 3.58309 5.5968 3.63059 5.59788C3.74337 5.6006 3.85611 5.60476 3.96883 5.60922C3.98462 5.56793 4.00041 5.52665 4.01668 5.48411C4.0883 5.31468 4.17125 5.15904 4.26202 4.99883C4.29721 4.93652 4.3324 4.87421 4.36866 4.81002C4.40656 4.74333 4.44447 4.67663 4.48353 4.60792C4.52333 4.53765 4.56311 4.46737 4.60289 4.39709C4.68474 4.2525 4.7667 4.10798 4.84873 3.96349C4.96 3.76743 5.07074 3.57108 5.18137 3.37466C5.3495 3.07644 5.51873 2.77884 5.6888 2.48169C5.75966 2.35775 5.83029 2.23367 5.90072 2.10949C6.00841 1.91999 6.11716 1.73111 6.22617 1.54235C6.25833 1.48539 6.29048 1.42844 6.32361 1.36975C6.60692 0.883596 6.92799 0.483439 7.45411 0.243562C7.51264 0.216101 7.57118 0.188641 7.63149 0.160347C8.35678 -0.135136 9.23135 -0.00874868 9.86586 0.428585ZM7.41309 1.54075C7.24765 1.76049 7.12291 2.00047 6.99455 2.24253C6.93268 2.35678 6.87071 2.47099 6.80866 2.58514C6.77695 2.64365 6.74525 2.70215 6.71258 2.76243C6.55671 3.04717 6.39535 3.32877 6.23352 3.61025C6.20219 3.66489 6.17085 3.71952 6.13857 3.77581C5.97553 4.05959 5.81133 4.34268 5.64598 4.62515C5.61315 4.68138 5.58031 4.73761 5.54649 4.79554C5.48368 4.90297 5.42065 5.01027 5.35738 5.11743C5.31552 5.18903 5.31552 5.18903 5.27282 5.26207C5.24811 5.30404 5.22341 5.346 5.19795 5.38924C5.13652 5.49107 5.13652 5.49107 5.14529 5.60922C7.35822 5.60922 9.57115 5.60922 11.8511 5.60922C11.7721 5.37534 11.7168 5.2141 11.5965 5.0113C11.5693 4.9649 11.5421 4.91849 11.514 4.87069C11.4846 4.82109 11.4551 4.77149 11.4247 4.72039C11.3607 4.61136 11.2967 4.50229 11.2328 4.39319C11.1825 4.3074 11.1825 4.3074 11.1312 4.21988C10.9554 3.91784 10.784 3.61336 10.6122 3.30913C10.5428 3.18705 10.4734 3.06499 10.404 2.94294C10.2759 2.71776 10.1489 2.49205 10.0226 2.26589C9.96669 2.16738 9.91078 2.0689 9.85483 1.97044C9.8306 1.92636 9.80637 1.88228 9.7814 1.83686C9.58449 1.49378 9.35007 1.24576 8.99385 1.0612C8.34791 0.890813 7.83131 1.04537 7.41309 1.54075ZM3.32177 6.53796C3.32177 6.84445 3.32177 7.15093 3.32177 7.4667C6.73823 7.4667 10.1547 7.4667 13.6747 7.4667C13.6747 7.16022 13.6747 6.85373 13.6747 6.53796C10.2582 6.53796 6.84175 6.53796 3.32177 6.53796ZM4.26294 8.39544C4.06185 11.8832 4.06185 11.8832 5.61588 14.6644C6.43715 15.4622 7.49144 15.8064 8.63172 15.8292C9.8791 15.7791 10.9226 15.1729 11.7521 14.2867C13.1489 12.6599 12.7335 10.3587 12.7335 8.39544C9.93821 8.39544 7.14293 8.39544 4.26294 8.39544ZM2.53869 9.95181C2.38075 10.1538 2.37288 10.3184 2.37112 10.5656C2.37056 10.6295 2.36999 10.6934 2.36941 10.7593C2.36916 10.8284 2.36891 10.8975 2.36865 10.9688C2.36832 11.0398 2.36798 11.1109 2.36764 11.1841C2.36708 11.3347 2.3667 11.4852 2.36647 11.6357C2.3659 11.8658 2.36407 12.0959 2.36222 12.3259C2.36183 12.4721 2.36152 12.6184 2.3613 12.7646C2.36057 12.8333 2.35985 12.9021 2.3591 12.9729C2.35752 13.4376 2.35752 13.4376 2.55707 13.8518C2.72418 13.9342 2.84264 13.9281 3.02766 13.9098C3.19517 13.7803 3.25412 13.7038 3.32177 13.5035C3.32783 13.3994 3.33051 13.2951 3.33125 13.1909C3.33182 13.1269 3.33238 13.063 3.33296 12.9971C3.33334 12.8935 3.33334 12.8935 3.33372 12.7877C3.33422 12.6811 3.33422 12.6811 3.33474 12.5723C3.33529 12.4218 3.33568 12.2712 3.3359 12.1207C3.33647 11.8906 3.3383 11.6606 3.34015 11.4305C3.34054 11.2843 3.34085 11.1381 3.34107 10.9919C3.3418 10.9231 3.34253 10.8544 3.34327 10.7835C3.34485 10.3189 3.34485 10.3189 3.1453 9.90465C2.92205 9.79449 2.73512 9.79989 2.53869 9.95181ZM13.8327 9.95181C13.6748 10.1538 13.6669 10.3184 13.6652 10.5656C13.6646 10.6295 13.6641 10.6934 13.6635 10.7593C13.6632 10.8284 13.663 10.8975 13.6627 10.9688C13.6624 11.0398 13.662 11.1109 13.6617 11.1841C13.6611 11.3347 13.6608 11.4852 13.6605 11.6357C13.66 11.8658 13.6581 12.0959 13.6563 12.3259C13.6559 12.4721 13.6556 12.6184 13.6554 12.7646C13.6546 12.8333 13.6539 12.9021 13.6532 12.9729C13.6516 13.4376 13.6516 13.4376 13.8511 13.8518C14.0182 13.9342 14.1367 13.9281 14.3217 13.9098C14.4892 13.7803 14.5482 13.7038 14.6158 13.5035C14.6219 13.3994 14.6246 13.2951 14.6253 13.1909C14.6259 13.1269 14.6264 13.063 14.627 12.9971C14.6274 12.8935 14.6274 12.8935 14.6278 12.7877C14.6283 12.6811 14.6283 12.6811 14.6288 12.5723C14.6294 12.4218 14.6297 12.2712 14.63 12.1207C14.6305 11.8906 14.6324 11.6606 14.6342 11.4305C14.6346 11.2843 14.6349 11.1381 14.6351 10.9919C14.6359 10.9231 14.6366 10.8544 14.6373 10.7835C14.6389 10.3189 14.6389 10.3189 14.4394 9.90465C14.2161 9.79449 14.0292 9.79989 13.8327 9.95181ZM1.49825 14.084C1.08253 14.858 0.959826 15.5247 0.960298 16.3945C0.9601 16.4481 0.959902 16.5017 0.959699 16.5569C0.959145 16.7322 0.959025 16.9074 0.958962 17.0827C0.958773 17.2055 0.958575 17.3284 0.958369 17.4512C0.958018 17.7079 0.957907 17.9646 0.957942 18.2213C0.957948 18.5493 0.957143 18.8773 0.956132 19.2053C0.955476 19.4587 0.955359 19.7122 0.95539 19.9656C0.95532 20.0865 0.955062 20.2074 0.954606 20.3283C0.954027 20.4976 0.9542 20.6669 0.954553 20.8362C0.954223 20.8855 0.953892 20.9348 0.953551 20.9856C0.956251 21.4974 1.02966 21.9883 1.38061 22.3846C1.62215 22.5831 1.62215 22.5831 1.91001 22.6748C1.91056 22.6108 1.91111 22.5467 1.91168 22.4806C1.91404 22.2408 1.91791 22.001 1.92222 21.7611C1.92387 21.6577 1.92512 21.5543 1.92596 21.4509C1.93521 20.3636 1.93521 20.3636 2.20413 19.9467C2.23689 19.8856 2.26964 19.8245 2.30339 19.7616C2.53609 19.4824 2.82642 19.2953 3.17471 19.1848C3.22324 19.168 3.27177 19.1513 3.32177 19.134C3.38838 18.9548 3.39539 18.7686 3.40887 18.5793C3.41593 18.4822 3.41593 18.4822 3.42313 18.3831C3.4304 18.2782 3.4304 18.2782 3.43781 18.1713C3.44295 18.0988 3.44809 18.0263 3.45338 17.9517C3.46422 17.798 3.47496 17.6443 3.48556 17.4905C3.49635 17.3344 3.50735 17.1782 3.51859 17.0221C3.53486 16.7957 3.55072 16.5692 3.56649 16.3428C3.57145 16.2741 3.57641 16.2054 3.58152 16.1346C3.61352 15.6632 3.62138 15.1948 3.61589 14.7225C3.56174 14.7412 3.50759 14.76 3.4518 14.7793C3.05689 14.9033 2.55848 14.9182 2.17472 14.7479C1.93953 14.6089 1.78162 14.4115 1.6159 14.2001C1.57707 14.1618 1.53825 14.1235 1.49825 14.084ZM15.4394 14.084C15.418 14.1148 15.3966 14.1456 15.3746 14.1774C15.1427 14.4989 14.9451 14.7109 14.557 14.8386C14.4236 14.8456 14.2899 14.8488 14.1563 14.8495C14.0855 14.8503 14.0148 14.8511 13.9419 14.852C13.7337 14.8386 13.5759 14.7909 13.3805 14.7225C13.3742 15.2651 13.3909 15.8016 13.4299 16.3428C13.4376 16.4523 13.4376 16.4523 13.4454 16.5641C13.4588 16.7554 13.4724 16.9468 13.4862 17.1381C13.4974 17.2947 13.5082 17.4513 13.519 17.608C13.532 17.7958 13.5453 17.9835 13.5586 18.1713C13.5635 18.2412 13.5683 18.311 13.5733 18.3831C13.578 18.4478 13.5827 18.5126 13.5876 18.5793C13.5916 18.6362 13.5957 18.693 13.5998 18.7516C13.6141 18.8858 13.6306 19.0063 13.6747 19.134C13.7848 19.2044 13.7848 19.2044 13.921 19.2501C14.396 19.4437 14.6662 19.673 14.91 20.1208C15.0308 20.414 15.0474 20.6741 15.052 20.9856C15.0531 21.0341 15.0542 21.0825 15.0554 21.1325C15.0589 21.2862 15.0616 21.44 15.0644 21.5937C15.0666 21.6984 15.0689 21.8031 15.0713 21.9078C15.0769 22.1634 15.0818 22.4191 15.0864 22.6748C15.4739 22.4907 15.7306 22.2634 15.932 21.884C16.0236 21.5407 16.0363 21.2121 16.0361 20.8596C16.0363 20.8065 16.0365 20.7535 16.0367 20.6987C16.0373 20.5236 16.0374 20.3485 16.0375 20.1734C16.0377 20.0509 16.0379 19.9284 16.0381 19.8059C16.0384 19.5491 16.0385 19.2922 16.0385 19.0354C16.0385 18.7082 16.0393 18.381 16.0403 18.0537C16.041 17.8006 16.0411 17.5474 16.041 17.2942C16.0411 17.1737 16.0414 17.0532 16.0418 16.9326C16.0581 15.7416 16.0581 15.7416 15.7666 14.5955C15.7424 14.5348 15.7182 14.4741 15.6933 14.4116C15.6219 14.2702 15.5602 14.1852 15.4394 14.084ZM12.3217 15.0708C12.287 15.1141 12.2523 15.1574 12.2165 15.2021C11.5325 16.038 10.3236 16.5462 9.26292 16.6961C7.65453 16.7965 6.2959 16.5216 5.05292 15.4646C4.95973 15.3826 4.86719 15.2998 4.77558 15.2161C4.6897 15.1224 4.6897 15.1224 4.61588 15.1288C4.52417 16.0143 4.45767 16.8997 4.40265 17.7881C4.3947 17.9139 4.38674 18.0398 4.37875 18.1657C4.35955 18.4691 4.34059 18.7725 4.32177 19.076C4.37577 19.0868 4.37577 19.0868 4.43085 19.0978C4.50197 19.1126 4.50197 19.1126 4.57452 19.1277C4.62144 19.1373 4.66836 19.1469 4.7167 19.1567C5.07269 19.2502 5.28866 19.491 5.49823 19.7725C5.60748 19.9942 5.63119 20.1732 5.63297 20.4187C5.63409 20.5245 5.63409 20.5245 5.63524 20.6324C5.63537 20.7082 5.6355 20.784 5.63564 20.862C5.63602 20.9412 5.63641 21.0203 5.63683 21.0995C5.63753 21.2653 5.63775 21.431 5.63768 21.5967C5.63767 21.8081 5.63927 22.0195 5.6413 22.2308C5.64261 22.3943 5.64285 22.5578 5.64278 22.7213C5.64299 22.8368 5.64426 22.9523 5.64555 23.0678C5.64314 23.5426 5.60138 23.8735 5.27787 24.2435C5.22862 24.2823 5.22862 24.2823 5.17838 24.3219C5.12936 24.3621 5.12936 24.3621 5.07935 24.4031C4.82906 24.5643 4.599 24.6074 4.30338 24.6266C4.20909 24.6332 4.20909 24.6332 4.1129 24.6398C4.06536 24.6426 4.01781 24.6455 3.96883 24.6484C3.89683 24.8616 3.89464 25.0612 3.89162 25.2833C3.88992 25.3249 3.88821 25.3664 3.88645 25.4093C3.88396 25.6131 3.8921 25.7278 4.01777 25.893C4.23061 26.044 4.4034 26.0489 4.65812 26.0493C4.72822 26.0495 4.79832 26.0498 4.87054 26.05C4.94755 26.05 5.02456 26.05 5.1039 26.05C5.18575 26.0501 5.26759 26.0503 5.34943 26.0505C5.57184 26.0511 5.79425 26.0512 6.01667 26.0512C6.20232 26.0513 6.38797 26.0515 6.57361 26.0517C7.01163 26.0522 7.44965 26.0523 7.88767 26.0523C8.33952 26.0522 8.79137 26.0529 9.24323 26.0538C9.63114 26.0545 10.0191 26.0548 10.407 26.0548C10.6387 26.0548 10.8703 26.055 11.102 26.0556C11.32 26.0561 11.5379 26.0561 11.7559 26.0557C11.8739 26.0556 11.9919 26.0561 12.1099 26.0566C12.1804 26.0564 12.2508 26.0561 12.3234 26.0559C12.3845 26.0559 12.4456 26.0559 12.5085 26.056C12.6861 26.0405 12.8108 26.0066 12.9688 25.9254C13.1126 25.7125 13.1004 25.6053 13.0975 25.3522C13.0971 25.2817 13.0967 25.2113 13.0963 25.1386C13.0879 24.9678 13.0676 24.8143 13.0276 24.6484C12.9821 24.6469 12.9366 24.6454 12.8897 24.6439C12.3836 24.6167 12.0155 24.5442 11.6563 24.1768C11.3133 23.7324 11.2956 23.2095 11.3004 22.6708C11.3003 22.5731 11.3003 22.5731 11.3003 22.4736C11.3004 22.3369 11.301 22.2002 11.302 22.0635C11.3033 21.8551 11.3032 21.6468 11.3028 21.4384C11.3031 21.305 11.3035 21.1716 11.304 21.0382C11.304 20.9764 11.3039 20.9146 11.3039 20.8509C11.309 20.3201 11.356 19.8531 11.7581 19.4585C12.0478 19.2064 12.3017 19.1346 12.6747 19.076C12.6451 18.6395 12.6155 18.2029 12.5857 17.7665C12.5718 17.5637 12.5581 17.361 12.5443 17.1582C12.5285 16.9245 12.5126 16.6908 12.4966 16.4571C12.4917 16.3852 12.4869 16.3132 12.4819 16.2392C12.4551 15.8488 12.4234 15.4597 12.3806 15.0708C12.3611 15.0708 12.3417 15.0708 12.3217 15.0708ZM3.09016 20.3385C2.8111 20.7724 2.83108 21.2334 2.83262 21.729C2.8328 21.8542 2.83142 21.9794 2.82993 22.1046C2.81569 22.7948 2.81569 22.7948 3.10266 23.4045C3.36861 23.6479 3.67856 23.7219 4.03133 23.7378C4.27665 23.7186 4.41395 23.6831 4.61588 23.5455C4.7144 23.3499 4.74845 23.1893 4.74969 22.9721C4.75025 22.9175 4.75081 22.8628 4.75139 22.8066C4.75133 22.7482 4.75128 22.6898 4.75122 22.6297C4.7516 22.5388 4.7516 22.5388 4.75199 22.4461C4.75232 22.3181 4.75235 22.1901 4.7521 22.0621C4.75191 21.8667 4.75329 21.6713 4.75478 21.4759C4.75492 21.3514 4.75496 21.2269 4.7549 21.1024C4.75544 21.0441 4.75598 20.9859 4.75654 20.9259C4.75446 20.6148 4.73861 20.3876 4.55706 20.1208C4.13323 19.8579 3.42462 19.9754 3.09016 20.3385ZM12.3806 20.1788C12.282 20.3745 12.248 20.5351 12.2467 20.7523C12.2462 20.8069 12.2456 20.8615 12.245 20.9178C12.2451 20.9762 12.2452 21.0345 12.2452 21.0947C12.245 21.1553 12.2447 21.2159 12.2444 21.2783C12.2441 21.4063 12.2441 21.5343 12.2443 21.6622C12.2445 21.8577 12.2431 22.053 12.2417 22.2484C12.2415 22.373 12.2415 22.4975 12.2415 22.622C12.241 22.6802 12.2405 22.7385 12.2399 22.7985C12.242 23.1095 12.2578 23.3367 12.4394 23.6036C12.7143 23.7741 13.0336 23.7531 13.3417 23.6927C13.6765 23.5998 13.8409 23.4876 14.0276 23.1973C14.1665 22.7968 14.1651 22.4128 14.1638 21.9954C14.1636 21.8702 14.165 21.745 14.1665 21.6198C14.1807 20.9296 14.1807 20.9296 13.8938 20.3199C13.6278 20.0765 13.3179 20.0025 12.9651 19.9866C12.7198 20.0058 12.5825 20.0413 12.3806 20.1788Z" fill="#87888D"/>
</svg>
