<svg width="48" height="48" viewBox="0 0 48 48" fill="none" xmlns="http://www.w3.org/2000/svg">
<g clip-path="url(#clip0_425_2098)">
<rect width="48" height="48" rx="24" fill="white" fill-opacity="0.6"/>
<circle cx="25" cy="44" r="18" fill="white" fill-opacity="0.6"/>
<path fill-rule="evenodd" clip-rule="evenodd" d="M27.0103 38.7124C27.1233 38.7784 27.2496 38.8181 27.38 38.8285C27.5773 38.8467 27.7756 38.8058 27.9497 38.7111C28.1237 38.6163 28.2657 38.472 28.3576 38.2965C28.4194 38.1819 28.4575 38.0561 28.4697 37.9265C28.4818 37.7969 28.4677 37.6661 28.4282 37.5421C28.3908 37.4158 28.3285 37.2982 28.2449 37.1964C28.1613 37.0946 28.0582 37.0105 27.9416 36.9492C27.8263 36.8846 27.6986 36.8451 27.5669 36.8335C27.4352 36.8218 27.3025 36.8382 27.1777 36.8816C27.0532 36.9195 26.9375 36.9817 26.8374 37.0647C26.7372 37.1478 26.6546 37.2499 26.5944 37.3652C26.5314 37.4816 26.4922 37.6093 26.4789 37.7409C26.4657 37.8726 26.4787 38.0055 26.5172 38.1321C26.5564 38.2569 26.6202 38.3726 26.7049 38.4722C26.7896 38.5719 26.8935 38.6536 27.0103 38.7124ZM32.4675 45.2724C32.4909 45.2482 32.5141 45.2241 32.5402 45.1998C32.5785 45.1452 32.6134 45.0883 32.6446 45.0294C32.7068 44.915 32.7451 44.7891 32.7572 44.6595C32.7694 44.5298 32.7551 44.399 32.7152 44.275C32.6778 44.1487 32.6155 44.0312 32.5319 43.9294C32.4484 43.8275 32.3452 43.7435 32.2287 43.6822C32.1123 43.6192 31.9846 43.58 31.8529 43.5667C31.7213 43.5535 31.5883 43.5665 31.4617 43.605C31.3375 43.6453 31.2222 43.7093 31.1223 43.7935C30.9248 43.9674 30.7979 44.2077 30.7656 44.4688C30.7515 44.6025 30.7647 44.7376 30.8045 44.866C30.8435 44.9909 30.9072 45.1067 30.9919 45.2064C31.0767 45.3061 31.1807 45.3877 31.2977 45.4463C31.4125 45.5092 31.5385 45.5488 31.6686 45.5631C31.8665 45.5859 32.0665 45.5457 32.2402 45.4484L32.4043 45.336C32.4269 45.3144 32.4472 45.2933 32.4675 45.2724ZM35.7271 40.9948C35.9005 40.9024 36.0441 40.7625 36.141 40.5915C36.1997 40.4736 36.2347 40.3455 36.2443 40.2142C36.2629 40.0843 36.2507 39.9518 36.2086 39.8275C36.1721 39.7027 36.1112 39.5863 36.0296 39.4851C35.9388 39.3882 35.8353 39.304 35.7221 39.2347C35.4861 39.1129 35.2118 39.0886 34.9581 39.167C34.7044 39.2453 34.4916 39.42 34.3653 39.6536C34.3095 39.7725 34.2746 39.9001 34.262 40.0308C34.2412 40.2276 34.2798 40.4261 34.3729 40.6007C34.466 40.7753 34.6092 40.918 34.7842 41.0104C34.903 41.0664 35.0307 41.1014 35.1615 41.1137C35.3574 41.1285 35.5536 41.0873 35.7271 40.9948Z" fill="#474751"/>
<path fill-rule="evenodd" clip-rule="evenodd" d="M27.6043 29.7988L29.6788 29.8811C29.7689 29.5646 29.8985 29.2597 30.0652 28.9739L33.5373 23.0134C33.8612 22.4656 33.9568 21.8125 33.8036 21.1948C33.6503 20.5771 33.2603 20.0445 32.7179 19.7117C32.1754 19.3789 31.5239 19.2726 30.9038 19.4159C30.2837 19.5591 29.7448 19.9403 29.4032 20.4773L25.7193 26.1765C20.9355 20.8468 10.5023 21.8856 10.0468 21.9338C9.7781 21.9623 9.53178 22.0964 9.362 22.3066C9.19221 22.5167 9.11286 22.7857 9.1414 23.0544C9.16995 23.323 9.30405 23.5694 9.51421 23.7392C9.72437 23.9089 9.99336 23.9883 10.262 23.9597C10.2637 23.9596 10.2679 23.9592 10.2746 23.9586C10.5819 23.9305 16.1315 23.4219 20.5479 25.1436C18.4533 26.4983 16.0093 27.2133 13.5149 27.2011C9.03645 27.0234 6.3614 25.6124 4.31298 22.3333C5.378 21.4407 8.32046 19.5288 13.6855 19.918C15.2425 20.1049 16.7565 20.5544 18.1631 21.2475C18.2793 21.3182 18.4085 21.3648 18.543 21.3847C18.6776 21.4046 18.8147 21.3973 18.9464 21.3634C19.0781 21.3294 19.2016 21.2695 19.3098 21.187C19.4179 21.1045 19.5084 21.0012 19.576 20.8832C19.6436 20.7652 19.6869 20.6349 19.7033 20.4999C19.7197 20.3649 19.7089 20.2279 19.6715 20.0972C19.6341 19.9664 19.571 19.8445 19.4857 19.7385C19.4005 19.6326 19.2949 19.5447 19.1752 19.4802C17.5139 18.6428 15.718 18.1049 13.8699 17.8915C7.64491 17.4132 4.14962 19.7956 2.93926 20.8312C2.58662 21.1361 2.35357 21.5563 2.28154 22.0169C2.20951 22.4775 2.30317 22.9487 2.54587 23.3468C4.93238 27.2104 8.28275 29.0262 13.4057 29.2356L13.4346 29.2367C16.7468 29.2461 19.9727 28.1803 22.6274 26.1996C23.355 26.6662 23.9995 27.251 24.5345 27.9298C24.6889 28.1266 24.8882 28.2835 25.1156 28.3876C25.3431 28.4917 25.5922 28.5399 25.842 28.5282C26.0919 28.5165 26.3354 28.4451 26.5521 28.3202C26.7688 28.1952 26.9524 28.0202 27.0878 27.8099L31.115 21.5789C31.1689 21.4937 31.2543 21.4333 31.3525 21.4106C31.4507 21.388 31.5539 21.405 31.6397 21.458C31.7272 21.5102 31.7907 21.5949 31.8163 21.6936C31.842 21.7922 31.8278 21.8971 31.7768 21.9854L28.3046 27.9468C27.969 28.5219 27.7327 29.148 27.6043 29.7988Z" fill="#547853"/>
</g>
<defs>
<clipPath id="clip0_425_2098">
<rect width="48" height="48" rx="24" fill="white"/>
</clipPath>
</defs>
</svg>
