<svg width="24" height="24" viewBox="0 0 24 24" fill="none" xmlns="http://www.w3.org/2000/svg">
<path d="M12 23.25H11.5725C10.4379 23.1147 9.39367 22.5638 8.64153 21.7036C7.88938 20.8434 7.48269 19.735 7.5 18.5925V15.9075C6.0094 14.9374 4.87218 13.5117 4.25784 11.8427C3.6435 10.1737 3.58494 8.35086 4.09088 6.64589C4.59682 4.94091 5.64017 3.44507 7.06543 2.38131C8.49069 1.31756 10.2215 0.742859 12 0.742859C13.7785 0.742859 15.5093 1.31756 16.9346 2.38131C18.3598 3.44507 19.4032 4.94091 19.9091 6.64589C20.4151 8.35086 20.3565 10.1737 19.7422 11.8427C19.1278 13.5117 17.9906 14.9374 16.5 15.9075V18.75C16.5 19.9435 16.0259 21.0881 15.182 21.932C14.3381 22.7759 13.1935 23.25 12 23.25ZM12 2.25002C11.7494 2.25168 11.499 2.2667 11.25 2.29502C9.86914 2.45603 8.57168 3.03949 7.5349 3.96566C6.49812 4.89183 5.77261 6.11554 5.45749 7.46957C5.14237 8.8236 5.25302 10.2419 5.77432 11.5307C6.29561 12.8195 7.20213 13.9158 8.37 14.67C8.56414 14.7989 8.7233 14.974 8.83324 15.1795C8.94318 15.3849 9.00048 15.6145 9 15.8475V18.585C8.98031 19.3527 9.24513 20.1006 9.74354 20.6849C10.242 21.2691 10.9388 21.6485 11.7 21.75C12.1184 21.7921 12.541 21.7457 12.9404 21.6139C13.3397 21.4821 13.7069 21.2678 14.0181 20.9849C14.3292 20.702 14.5775 20.3568 14.7466 19.9718C14.9158 19.5868 15.0021 19.1705 15 18.75V15.8475C15.0013 15.6123 15.0617 15.3811 15.1757 15.1754C15.2898 14.9696 15.4537 14.7958 15.6525 14.67C16.8757 13.8799 17.8106 12.7154 18.3177 11.3503C18.8247 9.98514 18.8767 8.49267 18.4658 7.0956C18.055 5.69853 17.2033 4.47179 16.038 3.59849C14.8727 2.72519 13.4562 2.25216 12 2.25002Z" fill="#87888D"/>
<path d="M15.75 16.6875H8.25V18.1875H15.75V16.6875Z" fill="#87888D"/>
<path d="M14.25 11.25H9.75C9.33579 11.25 9 11.5858 9 12C9 12.4142 9.33579 12.75 9.75 12.75H14.25C14.6642 12.75 15 12.4142 15 12C15 11.5858 14.6642 11.25 14.25 11.25Z" fill="#87888D"/>
<path d="M12.75 11.4375H11.25V17.4375H12.75V11.4375Z" fill="#87888D"/>
</svg>
