<svg width="24" height="24" viewBox="0 0 24 24" fill="none" xmlns="http://www.w3.org/2000/svg">
<g clip-path="url(#clip0_620_2391)">
<path fill-rule="evenodd" clip-rule="evenodd" d="M23.1145 21.3199L18.1225 14.1889L16.8748 12.375C16.8748 12.3851 16.8737 12.3949 16.8737 12.405L16.4263 11.766C16.0142 11.1769 15.3392 10.818 14.62 10.806C13.8966 10.7861 13.2145 11.1304 12.7828 11.7056L9.91372 15.5317L9.27022 14.5031C8.8641 13.8533 8.16435 13.4584 7.39785 13.4464C7.09672 13.4422 6.8016 13.5011 6.5271 13.6114L5.30535 14.7251L0.876597 21.3326C0.722472 21.5625 0.707847 21.8588 0.837972 22.1029C0.968472 22.3474 1.2231 22.5 1.49985 22.5H22.4998C22.7796 22.5 23.0361 22.3444 23.1651 22.0965C23.2941 21.8482 23.2746 21.549 23.1145 21.3199ZM6.73935 15.2794L2.90535 21H11.5648L7.99822 15.2985C7.86285 15.0821 7.62997 14.9505 7.3746 14.9468C7.11397 14.9299 6.88147 15.0671 6.73935 15.2794ZM10.7661 16.8949L13.3341 21H21.0595L15.1971 12.6262C15.0598 12.4294 14.8348 12.3101 14.5952 12.306C14.3548 12.3101 14.1265 12.4144 13.9825 12.6064L10.7661 16.8949Z" fill="#87888D"/>
<path d="M18.1225 14.1889C18.2867 13.6001 18.3748 12.9923 18.3748 12.375C18.3748 8.65313 15.3467 5.625 11.6248 5.625C7.90297 5.625 4.87485 8.65313 4.87485 12.375C4.87485 13.1869 5.02522 13.9736 5.30535 14.7251L6.5271 13.6114C6.4296 13.2094 6.37485 12.7969 6.37485 12.375C6.37485 9.48 8.72985 7.125 11.6248 7.125C14.5198 7.125 16.8748 9.48 16.8748 12.375L18.1225 14.1889Z" fill="#87888D"/>
<path d="M19.125 12.375C19.125 12.789 19.461 13.125 19.875 13.125H21.75C22.164 13.125 22.5 12.789 22.5 12.375C22.5 11.961 22.164 11.625 21.75 11.625H19.875C19.461 11.625 19.125 11.961 19.125 12.375ZM18.7706 9C18.8978 9 19.0268 8.96775 19.1449 8.89913L20.7686 7.96163C21.1275 7.75463 21.2501 7.296 21.0431 6.93713C20.8361 6.57825 20.3775 6.45525 20.0186 6.66263L18.3949 7.60013C18.036 7.80713 17.9134 8.26575 18.1204 8.62463C18.2595 8.86575 18.5115 9 18.7706 9ZM15.375 5.87962C15.4931 5.94788 15.6221 5.9805 15.7493 5.9805C16.0084 5.9805 16.2607 5.84587 16.3995 5.6055L17.337 3.98175C17.544 3.62287 17.4214 3.16425 17.0625 2.95725C16.7036 2.7495 16.245 2.87287 16.038 3.23175L15.1005 4.8555C14.8935 5.214 15.0161 5.67263 15.375 5.87962ZM11.625 4.875C12.039 4.875 12.375 4.539 12.375 4.125V2.25C12.375 1.836 12.039 1.5 11.625 1.5C11.211 1.5 10.875 1.836 10.875 2.25V4.125C10.875 4.539 11.211 4.875 11.625 4.875ZM6.8505 5.60512C6.98925 5.84587 7.24125 5.98012 7.50075 5.98012C7.62788 5.98012 7.75688 5.94788 7.875 5.87925C8.23387 5.67225 8.3565 5.21362 8.1495 4.85475L7.212 3.231C7.005 2.87288 6.54637 2.7495 6.1875 2.95688C5.82863 3.16388 5.706 3.6225 5.913 3.98137L6.8505 5.60512ZM2.48137 7.962L4.10512 8.8995C4.22325 8.96775 4.35225 9 4.47937 9C4.7385 9 4.99087 8.86538 5.12962 8.625C5.33663 8.26613 5.214 7.8075 4.85512 7.6005L3.23137 6.663C2.87287 6.45563 2.41388 6.57863 2.20688 6.9375C1.99988 7.29637 2.12288 7.755 2.48137 7.962ZM1.5 13.125H3.375C3.789 13.125 4.125 12.789 4.125 12.375C4.125 11.961 3.789 11.625 3.375 11.625H1.5C1.086 11.625 0.75 11.961 0.75 12.375C0.75 12.789 1.086 13.125 1.5 13.125Z" fill="#87888D"/>
<path fill-rule="evenodd" clip-rule="evenodd" d="M23.1145 21.3199L18.1225 14.1889L16.8748 12.375C16.8748 12.3851 16.8737 12.3949 16.8737 12.405L16.4263 11.766C16.0142 11.1769 15.3392 10.818 14.62 10.806C13.8966 10.7861 13.2145 11.1304 12.7828 11.7056L9.91372 15.5317L9.27022 14.5031C8.8641 13.8533 8.16435 13.4584 7.39785 13.4464C7.09672 13.4422 6.8016 13.5011 6.5271 13.6114L5.30535 14.7251L0.876597 21.3326C0.722472 21.5625 0.707847 21.8588 0.837972 22.1029C0.968472 22.3474 1.2231 22.5 1.49985 22.5H22.4998C22.7796 22.5 23.0361 22.3444 23.1651 22.0965C23.2941 21.8483 23.2746 21.549 23.1145 21.3199ZM6.73935 15.2794L2.90535 21H11.5648L7.99822 15.2985C7.86285 15.0821 7.62997 14.9505 7.3746 14.9468C7.11397 14.9299 6.88147 15.0671 6.73935 15.2794ZM10.7661 16.8949L13.3341 21H21.0595L15.1971 12.6262C15.0598 12.4294 14.8348 12.3101 14.5952 12.306C14.3548 12.3101 14.1265 12.4144 13.9825 12.6064L10.7661 16.8949Z" fill="#87888D"/>
</g>
<defs>
<clipPath id="clip0_620_2391">
<rect width="24" height="24" fill="white"/>
</clipPath>
</defs>
</svg>
