<svg width="201" height="317" viewBox="0 0 201 317" fill="none" xmlns="http://www.w3.org/2000/svg">
<path d="M172.49 34.0051C173.171 38.98 172.574 45.7765 170.703 53.2997L168.762 52.8169C168.03 55.7574 167.098 58.817 165.964 61.9258C164.83 65.0346 163.574 67.9761 162.241 70.6971L164.037 71.5771C160.625 78.539 156.706 84.1236 152.982 87.492L151.641 86.0087C148.543 88.8108 146.298 89.3475 144.964 88.8609C143.63 88.3743 142.258 86.5185 141.691 82.3799L139.709 82.6512C139.028 77.6763 139.625 70.8799 141.496 63.3566L143.437 63.8394C144.169 60.8989 145.101 57.8393 146.235 54.7305C147.369 51.6217 148.625 48.6802 149.958 45.9592L148.162 45.0792C151.573 38.1173 155.492 32.5327 159.216 29.1643L160.558 30.6476C163.656 27.8455 165.901 27.3088 167.235 27.7954C168.569 28.282 169.941 30.1378 170.508 34.2764L172.49 34.0051Z" stroke="white" stroke-width="4" stroke-dasharray="13 13"/>
<path d="M100.562 60.4718C105.326 62.0595 111.159 65.5982 117.08 70.6022L115.789 72.1298C118.104 74.0856 120.436 76.2742 122.724 78.6652C125.012 81.0562 127.095 83.4831 128.947 85.8817L130.53 84.6595C135.267 90.7963 138.545 96.78 139.92 101.609L137.997 102.157C139.141 106.174 138.631 108.425 137.605 109.407C136.579 110.389 134.307 110.8 130.344 109.479L129.712 111.376C124.948 109.789 119.115 106.25 113.194 101.246L114.485 99.7182C112.17 97.7624 109.838 95.5738 107.55 93.1828C105.263 90.7918 103.179 88.3648 101.327 85.9663L99.7443 87.1884C95.0069 81.0517 91.7293 75.068 90.3536 70.2388L92.2771 69.6909C91.1327 65.6735 91.6433 63.4226 92.6694 62.4409C93.6956 61.4591 95.9668 61.0484 99.9297 62.3692L100.562 60.4718Z" stroke="white" stroke-width="4" stroke-dasharray="13 13"/>
<path d="M96.1658 103.34C100.905 104.887 106.705 108.38 112.586 113.336L111.297 114.866C113.595 116.802 115.91 118.972 118.179 121.343C120.448 123.715 122.513 126.123 124.346 128.505L125.931 127.284C130.623 133.379 133.856 139.328 135.193 144.131L133.266 144.667C134.369 148.63 133.854 150.866 132.821 151.854C131.788 152.842 129.532 153.259 125.621 151.982L125 153.883C120.261 152.335 114.461 148.842 108.579 143.886L109.868 142.356C107.57 140.42 105.255 138.251 102.986 135.879C100.717 133.507 98.6526 131.099 96.8195 128.718L95.2347 129.938C90.5429 123.843 87.3098 117.894 85.9729 113.092L87.8996 112.555C86.7963 108.592 87.3121 106.356 88.3447 105.368C89.3773 104.38 91.634 103.963 95.5449 105.241L96.1658 103.34Z" stroke="white" stroke-width="4" stroke-dasharray="13 13"/>
<path d="M195.883 96.3003C191.215 94.4484 184.474 93.4011 176.721 93.418L176.725 95.418C173.695 95.4247 170.501 95.5978 167.212 95.9547C163.922 96.3116 160.765 96.8274 157.804 97.4707L157.38 95.5163C149.804 97.1623 143.443 99.631 139.282 102.441L140.401 104.098C136.939 106.436 135.881 108.487 136.034 109.899C136.187 111.31 137.66 113.087 141.543 114.628L140.806 116.487C145.473 118.338 152.215 119.386 159.967 119.369L159.963 117.369C162.993 117.362 166.187 117.189 169.477 116.832C172.766 116.475 175.923 115.959 178.884 115.316L179.309 117.271C186.885 115.625 193.245 113.156 197.406 110.346L196.287 108.689C199.749 106.351 200.808 104.3 200.655 102.888C200.501 101.476 199.028 99.6999 195.145 98.1593L195.883 96.3003Z" stroke="white" stroke-width="4" stroke-dasharray="13 13"/>
<path d="M189.361 137.587C184.695 135.73 177.954 134.676 170.202 134.686L170.204 136.686C167.174 136.689 163.98 136.859 160.69 137.213C157.4 137.566 154.243 138.079 151.281 138.719L150.858 136.765C143.281 138.403 136.918 140.865 132.754 143.671L133.871 145.33C130.407 147.664 129.346 149.714 129.498 151.126C129.65 152.538 131.122 154.316 135.003 155.86L134.263 157.718C138.929 159.575 145.669 160.629 153.422 160.62L153.42 158.62C156.45 158.616 159.644 158.446 162.934 158.093C166.224 157.739 169.381 157.226 172.343 156.586L172.766 158.541C180.343 156.902 186.706 154.44 190.87 151.634L189.753 149.976C193.217 147.642 194.278 145.592 194.126 144.18C193.974 142.768 192.502 140.99 188.621 139.445L189.361 137.587Z" stroke="white" stroke-width="4" stroke-dasharray="13 13"/>
<path d="M166.921 208.155C165.78 203.204 162.707 197.042 158.118 190.718L156.499 191.893C154.706 189.422 152.672 186.921 150.423 184.458C148.174 181.995 145.869 179.742 143.571 177.732L144.888 176.227C139.007 171.081 133.149 167.461 128.323 165.875L127.698 167.775C123.82 166.501 121.463 166.89 120.3 167.952C119.137 169.014 118.535 171.326 119.452 175.304L117.503 175.753C118.644 180.704 121.717 186.866 126.307 193.19L127.926 192.015C129.719 194.486 131.753 196.986 134.002 199.45C136.25 201.913 138.556 204.166 140.854 206.176L139.537 207.681C145.418 212.826 151.275 216.446 156.102 218.032L156.726 216.132C160.604 217.407 162.962 217.018 164.125 215.956C165.288 214.894 165.889 212.582 164.972 208.604L166.921 208.155Z" stroke="white" stroke-width="4" stroke-dasharray="14 14"/>
<path d="M137.959 242.085C136.818 237.134 133.745 230.972 129.155 224.648L127.536 225.823C125.743 223.352 123.709 220.851 121.46 218.388C119.212 215.925 116.906 213.672 114.608 211.662L115.925 210.157C110.044 205.011 104.187 201.391 99.3601 199.805L98.7357 201.705C94.8578 200.431 92.5004 200.82 91.3373 201.882C90.1742 202.944 89.5729 205.256 90.4896 209.234L88.5407 209.683C89.6817 214.634 92.7546 220.796 97.3445 227.12L98.9631 225.945C100.756 228.416 102.79 230.916 105.039 233.38C107.288 235.843 109.593 238.096 111.891 240.106L110.574 241.611C116.455 246.756 122.313 250.376 127.139 251.962L127.764 250.062C131.642 251.337 133.999 250.948 135.162 249.886C136.325 248.824 136.927 246.512 136.01 242.534L137.959 242.085Z" stroke="white" stroke-width="4" stroke-dasharray="14 14"/>
<path d="M61.4772 169.965C65.5858 167.12 71.8787 164.552 79.3937 162.755L79.8589 164.7C82.7969 163.997 85.9314 163.414 89.2012 162.981C92.471 162.549 95.6495 162.298 98.6692 162.213L98.6129 160.214C106.337 159.996 113.081 160.84 117.788 162.521L117.115 164.404C121.09 165.823 122.586 167.534 122.763 168.876C122.941 170.218 121.941 172.26 118.472 174.662L119.61 176.307C115.502 179.152 109.209 181.72 101.694 183.517L101.229 181.572C98.2906 182.275 95.1561 182.858 91.8863 183.291C88.6165 183.723 85.438 183.974 82.4183 184.059L82.4746 186.058C74.7507 186.275 68.0068 185.432 63.2998 183.751L63.9722 181.868C59.9978 180.449 58.5015 178.738 58.3241 177.396C58.1467 176.054 59.1468 174.012 62.616 171.609L61.4772 169.965Z" stroke="white" stroke-width="4" stroke-dasharray="13 13"/>
<path d="M32.055 203.941C36.1637 201.095 42.4566 198.528 49.9715 196.73L50.4367 198.675C53.3748 197.973 56.5093 197.389 59.7791 196.957C63.0489 196.525 66.2273 196.273 69.247 196.189L69.1908 194.189C76.9146 193.972 83.6585 194.816 88.3655 196.496L87.6931 198.38C91.6675 199.798 93.1638 201.51 93.3412 202.852C93.5187 204.194 92.5185 206.235 89.0494 208.638L90.1881 210.282C86.0795 213.128 79.7866 215.695 72.2717 217.493L71.8064 215.548C68.8684 216.25 65.7339 216.834 62.4641 217.266C59.1943 217.698 56.0159 217.95 52.9962 218.034L53.0524 220.034C45.3286 220.251 38.5847 219.407 33.8777 217.727L34.5501 215.843C30.5756 214.425 29.0794 212.713 28.902 211.371C28.7245 210.029 29.7247 207.988 33.1938 205.585L32.055 203.941Z" stroke="white" stroke-width="4" stroke-dasharray="13 13"/>
<path d="M138.155 109.263L140.142 109.488L138.155 109.263ZM81.3468 296.866C81.6747 297.921 82.7955 298.51 83.8503 298.183C84.9051 297.855 85.4944 296.734 85.1666 295.679L81.3468 296.866ZM144.704 85.8657C143.753 86.9482 142.503 88.7986 141.248 91.2993L144.823 93.0938C145.975 90.7982 147.047 89.2593 147.71 88.505L144.704 85.8657ZM137.18 102.964C136.76 104.857 136.412 106.883 136.168 109.038L140.142 109.488C140.37 107.477 140.694 105.589 141.085 103.831L137.18 102.964ZM136.168 109.038C135.949 110.964 135.814 112.849 135.694 114.718L139.685 114.974C139.804 113.12 139.935 111.314 140.142 109.488L136.168 109.038ZM134.719 125.712C134.25 128.919 133.512 132.38 132.251 136.285L136.058 137.514C137.393 133.376 138.179 129.696 138.677 126.291L134.719 125.712ZM128.177 146.432C126.76 149.417 125.052 152.643 122.987 156.157L126.435 158.184C128.554 154.579 130.318 151.248 131.79 148.147L128.177 146.432ZM117.074 165.521C116.076 167.007 115.021 168.537 113.908 170.114L117.175 172.422C118.306 170.82 119.378 169.264 120.395 167.751L117.074 165.521ZM113.908 170.114C112.578 171.997 111.224 173.823 109.856 175.608L113.03 178.042C114.425 176.222 115.811 174.353 117.175 172.422L113.908 170.114ZM101.245 186.295C98.2677 189.887 95.3065 193.437 92.5002 197.047L95.6582 199.502C98.4173 195.953 101.332 192.458 104.325 188.847L101.245 186.295ZM84.452 208.518C82.0348 212.462 79.8807 216.626 78.1103 221.151L81.8352 222.608C83.5069 218.336 85.5486 214.383 87.8624 210.608L84.452 208.518ZM74.2704 234.776C73.4878 239.125 73.0397 243.787 72.9843 248.838L76.984 248.881C77.0372 244.042 77.466 239.603 78.2072 235.484L74.2704 234.776ZM73.756 262.839C74.2562 267.181 75.006 271.778 76.0298 276.663L79.9448 275.843C78.9438 271.067 78.2146 266.591 77.7297 262.381L73.756 262.839ZM79.3686 290.19C79.9798 292.363 80.6387 294.588 81.3468 296.866L85.1666 295.679C84.4688 293.434 83.8203 291.244 83.2193 289.107L79.3686 290.19ZM138.155 109.263L140.142 109.488L138.155 109.263ZM81.3468 296.866C81.6747 297.921 82.7955 298.51 83.8503 298.183C84.9051 297.855 85.4944 296.734 85.1666 295.679L81.3468 296.866ZM144.704 85.8657C143.753 86.9482 142.503 88.7986 141.248 91.2993L144.823 93.0938C145.975 90.7982 147.047 89.2593 147.71 88.505L144.704 85.8657ZM137.18 102.964C136.76 104.857 136.412 106.883 136.168 109.038L140.142 109.488C140.37 107.477 140.694 105.589 141.085 103.831L137.18 102.964ZM136.168 109.038C135.949 110.964 135.814 112.849 135.694 114.718L139.685 114.974C139.804 113.12 139.935 111.314 140.142 109.488L136.168 109.038ZM134.719 125.712C134.25 128.919 133.512 132.38 132.251 136.285L136.058 137.514C137.393 133.376 138.179 129.696 138.677 126.291L134.719 125.712ZM128.177 146.432C126.76 149.417 125.052 152.643 122.987 156.157L126.435 158.184C128.554 154.579 130.318 151.248 131.79 148.147L128.177 146.432ZM117.074 165.521C116.076 167.007 115.021 168.537 113.908 170.114L117.175 172.422C118.306 170.82 119.378 169.264 120.395 167.751L117.074 165.521ZM113.908 170.114C112.578 171.997 111.224 173.823 109.856 175.608L113.03 178.042C114.425 176.222 115.811 174.353 117.175 172.422L113.908 170.114ZM101.245 186.295C98.2677 189.887 95.3065 193.437 92.5002 197.047L95.6582 199.502C98.4173 195.953 101.332 192.458 104.325 188.847L101.245 186.295ZM84.452 208.518C82.0348 212.462 79.8807 216.626 78.1103 221.151L81.8352 222.608C83.5069 218.336 85.5486 214.383 87.8624 210.608L84.452 208.518ZM74.2704 234.776C73.4878 239.125 73.0397 243.787 72.9843 248.838L76.984 248.881C77.0372 244.042 77.466 239.603 78.2072 235.484L74.2704 234.776ZM73.756 262.839C74.2562 267.181 75.006 271.778 76.0298 276.663L79.9448 275.843C78.9438 271.067 78.2146 266.591 77.7297 262.381L73.756 262.839ZM79.3686 290.19C79.9798 292.363 80.6387 294.588 81.3468 296.866L85.1666 295.679C84.4688 293.434 83.8203 291.244 83.2193 289.107L79.3686 290.19Z" fill="white"/>
</svg>
