<svg width="271" height="196" viewBox="0 0 271 196" fill="none" xmlns="http://www.w3.org/2000/svg">
<mask id="path-1-inside-1_393_2578" fill="white">
<path fill-rule="evenodd" clip-rule="evenodd" d="M129.083 6.24691C123.95 -2.08231 111.84 -2.0823 106.707 6.24692L2.6781 175.043C-2.71815 183.799 3.58086 195.08 13.866 195.08H146.17C147.362 195.435 148.641 195.628 149.992 195.628H320.165C330.829 195.628 337.053 183.596 330.89 174.892L245.804 54.7156C240.567 47.3183 229.59 47.3183 224.352 54.7156L189.389 104.098L129.083 6.24691Z"/>
</mask>
<path d="M106.707 6.24692L105.309 5.38503L106.707 6.24692ZM129.083 6.24691L130.482 5.38502L129.083 6.24691ZM2.6781 175.043L4.07659 175.905L2.6781 175.043ZM146.17 195.08L146.639 193.506L146.409 193.438H146.17V195.08ZM330.89 174.892L332.231 173.943L330.89 174.892ZM245.804 54.7156L247.145 53.7663L245.804 54.7156ZM224.352 54.7156L225.693 55.6649L224.352 54.7156ZM189.389 104.098L187.99 104.96L189.294 107.075L190.729 105.048L189.389 104.098ZM105.309 5.38503L100.107 13.8249L102.904 15.5486L108.106 7.10881L105.309 5.38503ZM89.7042 30.7045L79.3013 47.5841L82.0983 49.3079L92.5012 32.4283L89.7042 30.7045ZM68.8984 64.4638L58.4955 81.3434L61.2925 83.0672L71.6954 66.1876L68.8984 64.4638ZM48.0927 98.2231L37.6898 115.103L40.4867 116.826L50.8896 99.9468L48.0927 98.2231ZM27.2869 131.982L16.884 148.862L19.6809 150.586L30.0839 133.706L27.2869 131.982ZM6.48106 165.742L1.2796 174.181L4.07659 175.905L9.27805 167.465L6.48106 165.742ZM1.2796 174.181C-0.183806 176.556 -0.886657 179.112 -0.936632 181.622L2.34823 181.687C2.38671 179.755 2.92567 177.773 4.07659 175.905L1.2796 174.181ZM6.36912 194.706C8.53193 195.98 11.0768 196.723 13.866 196.723V193.438C11.6724 193.438 9.70219 192.857 8.03688 191.875L6.36912 194.706ZM13.866 196.723H22.1351V193.438H13.866V196.723ZM38.6731 196.723H55.2111V193.438H38.6731V196.723ZM71.7491 196.723H88.2871V193.438H71.7491V196.723ZM104.825 196.723H121.363V193.438H104.825V196.723ZM137.901 196.723H146.17V193.438H137.901V196.723ZM145.702 196.655C147.046 197.055 148.483 197.271 149.992 197.271V193.985C148.799 193.985 147.678 193.815 146.639 193.506L145.702 196.655ZM149.992 197.271H158.5V193.985H149.992V197.271ZM175.517 197.271H192.535V193.985H175.517V197.271ZM209.552 197.271H226.569V193.985H209.552V197.271ZM243.587 197.271H260.604V193.985H243.587V197.271ZM277.621 197.271H294.639V193.985H277.621V197.271ZM311.656 197.271H320.165V193.985H311.656V197.271ZM320.165 197.271C323.05 197.271 325.665 196.482 327.867 195.136L326.153 192.333C324.46 193.367 322.437 193.985 320.165 193.985V197.271ZM334.939 181.462C334.765 178.888 333.899 176.298 332.231 173.943L329.55 175.841C330.863 177.696 331.528 179.704 331.661 181.684L334.939 181.462ZM332.231 173.943L326.913 166.432L324.232 168.33L329.55 175.841L332.231 173.943ZM316.277 151.41L305.642 136.388L302.96 138.286L313.596 153.308L316.277 151.41ZM295.006 121.366L284.37 106.344L281.689 108.242L292.324 123.264L295.006 121.366ZM273.734 91.3215L263.098 76.2994L260.417 78.1979L271.053 93.22L273.734 91.3215ZM252.463 61.2774L247.145 53.7663L244.463 55.6649L249.781 63.1759L252.463 61.2774ZM247.145 53.7663C245.714 51.7459 243.895 50.2095 241.874 49.1669L240.368 52.0867C241.929 52.8922 243.342 54.0817 244.463 55.6649L247.145 53.7663ZM228.282 49.167C226.261 50.2095 224.442 51.7459 223.012 53.7664L225.693 55.6649C226.814 54.0817 228.227 52.8923 229.788 52.0867L228.282 49.167ZM223.012 53.7664L218.641 59.9392L221.323 61.8377L225.693 55.6649L223.012 53.7664ZM209.9 72.2849L201.159 84.6305L203.841 86.529L212.582 74.1834L209.9 72.2849ZM192.418 96.9762L188.048 103.149L190.729 105.048L195.1 98.8747L192.418 96.9762ZM190.787 103.236L185.762 95.0821L182.965 96.8059L187.99 104.96L190.787 103.236ZM175.711 78.7735L165.66 62.465L162.863 64.1887L172.914 80.4973L175.711 78.7735ZM155.609 46.1564L145.558 29.8479L142.761 31.5716L152.812 47.8802L155.609 46.1564ZM135.507 13.5393L130.482 5.38502L127.685 7.1088L132.71 15.2631L135.507 13.5393ZM130.482 5.38502C129.085 3.11945 127.22 1.39245 125.109 0.217763L123.511 3.08855C125.139 3.99444 126.588 5.32993 127.685 7.1088L130.482 5.38502ZM110.681 0.217775C108.57 1.39246 106.705 3.11947 105.309 5.38503L108.106 7.10881C109.202 5.32994 110.651 3.99445 112.279 3.08856L110.681 0.217775ZM106.707 6.24692L103.91 4.52314L106.707 6.24692ZM129.083 6.24691L131.88 4.52313L129.083 6.24691ZM2.6781 175.043L5.47509 176.767L2.6781 175.043ZM146.17 195.08L147.107 191.931L146.649 191.795H146.17V195.08ZM330.89 174.892L333.572 172.993L330.89 174.892ZM245.804 54.7156L248.485 52.8171L245.804 54.7156ZM224.352 54.7156L227.034 56.6141L224.352 54.7156ZM189.389 104.098L186.592 105.822L189.199 110.052L192.07 105.997L189.389 104.098ZM103.91 4.52314L98.7086 12.963L104.303 16.4105L109.504 7.9707L103.91 4.52314ZM88.3057 29.8426L77.9028 46.7222L83.4968 50.1698L93.8997 33.2902L88.3057 29.8426ZM67.4999 63.6019L57.0971 80.4815L62.691 83.9291L73.0939 67.0494L67.4999 63.6019ZM46.6942 97.3612L36.2913 114.241L41.8852 117.688L52.2881 100.809L46.6942 97.3612ZM25.8884 131.12L15.4855 148L21.0794 151.448L31.4823 134.568L25.8884 131.12ZM5.08257 164.88L-0.118893 173.32L5.47509 176.767L10.6765 168.327L5.08257 164.88ZM-0.118893 173.32C-1.73854 175.948 -2.52334 178.791 -2.57906 181.589L3.99065 181.72C4.02339 180.076 4.48041 178.381 5.47509 176.767L-0.118893 173.32ZM5.53524 196.122C7.94681 197.542 10.779 198.366 13.866 198.366V191.795C11.9702 191.795 10.2873 191.295 8.87076 190.46L5.53524 196.122ZM13.866 198.366H22.1351V191.795H13.866V198.366ZM38.6731 198.366H55.2111V191.795H38.6731V198.366ZM71.7491 198.366H88.2871V191.795H71.7491V198.366ZM104.825 198.366H121.363V191.795H104.825V198.366ZM137.901 198.366H146.17V191.795H137.901V198.366ZM145.233 198.23C146.731 198.675 148.326 198.914 149.992 198.914V192.343C148.957 192.343 147.993 192.195 147.107 191.931L145.233 198.23ZM149.992 198.914H158.5V192.343H149.992V198.914ZM175.517 198.914H192.535V192.343H175.517V198.914ZM209.552 198.914H226.569V192.343H209.552V198.914ZM243.587 198.914H260.604V192.343H243.587V198.914ZM277.621 198.914H294.639V192.343H277.621V198.914ZM311.656 198.914H320.165V192.343H311.656V198.914ZM320.165 198.914C323.357 198.914 326.267 198.039 328.723 196.538L325.297 190.931C323.858 191.81 322.13 192.343 320.165 192.343V198.914ZM336.578 181.351C336.384 178.48 335.416 175.599 333.572 172.993L328.209 176.79C329.345 178.395 329.909 180.112 330.022 181.795L336.578 181.351ZM333.572 172.993L328.254 165.482L322.891 169.279L328.209 176.79L333.572 172.993ZM317.618 150.46L306.982 135.438L301.619 139.235L312.255 154.257L317.618 150.46ZM296.347 120.416L285.711 105.394L280.348 109.191L290.984 124.213L296.347 120.416ZM275.075 90.3722L264.439 75.3502L259.076 79.1472L269.712 94.1692L275.075 90.3722ZM253.803 60.3281L248.485 52.8171L243.122 56.6141L248.44 64.1251L253.803 60.3281ZM248.485 52.8171C246.9 50.5779 244.878 48.8681 242.628 47.7071L239.615 53.5466C240.946 54.2336 242.156 55.2497 243.122 56.6141L248.485 52.8171ZM227.528 47.7071C225.278 48.8681 223.256 50.5779 221.671 52.8171L227.034 56.6141C228 55.2497 229.21 54.2336 230.542 53.5466L227.528 47.7071ZM221.671 52.8171L217.3 58.9899L222.663 62.787L227.034 56.6141L221.671 52.8171ZM208.559 71.3356L199.819 83.6813L205.181 87.4783L213.922 75.1326L208.559 71.3356ZM191.078 96.0269L186.707 102.2L192.07 105.997L196.441 99.8239L191.078 96.0269ZM192.186 102.374L187.16 94.2202L181.566 97.6677L186.592 105.822L192.186 102.374ZM177.109 77.9116L167.058 61.6031L161.464 65.0506L171.515 81.3592L177.109 77.9116ZM157.007 45.2945L146.956 28.986L141.362 32.4335L151.413 48.7421L157.007 45.2945ZM136.905 12.6774L131.88 4.52313L126.286 7.97069L131.311 16.125L136.905 12.6774ZM131.88 4.52313C130.334 2.01422 128.26 0.0914516 125.908 -1.21763L122.712 4.52395C124.098 5.29543 125.34 6.43516 126.286 7.97069L131.88 4.52313ZM109.882 -1.21762C107.53 0.0914667 105.456 2.01423 103.91 4.52314L109.504 7.9707C110.45 6.43518 111.692 5.29544 113.078 4.52395L109.882 -1.21762Z" fill="white" mask="url(#path-1-inside-1_393_2578)"/>
<mask id="path-3-inside-2_393_2578" fill="white">
<path fill-rule="evenodd" clip-rule="evenodd" d="M146.022 47.3241C143.655 52.236 136.689 52.2901 134.238 47.4373L127.747 62.2252C124.698 69.1703 114.864 69.2235 111.74 62.3118L104.382 46.0297L99.1734 56.8391C97.5903 60.1248 92.92 60.1501 91.3014 56.8817L84.2615 42.6669L2.6781 175.043C-2.71815 183.799 3.58086 195.081 13.866 195.081H146.17C147.362 195.435 148.641 195.628 149.992 195.628H320.165C330.829 195.628 337.053 183.596 330.891 174.892L265.315 82.2725L264.445 83.9024C263.289 86.0693 260.776 86.7118 258.807 85.8529L254.588 93.7591C252.916 96.8927 248.406 96.8383 246.81 93.6653L239.971 80.0683L233.602 90.4791C231.87 93.3118 227.738 93.262 226.074 90.3884L222.459 84.1439L215.924 96.9959C213.455 101.851 206.49 101.767 204.139 96.8539L200.259 88.745L189.389 104.099L149.697 39.6956L146.022 47.3241Z"/>
</mask>
<path d="M134.238 47.4373L135.705 46.6968L134.134 43.5869L132.734 46.777L134.238 47.4373ZM146.022 47.3241L144.542 46.611V46.611L146.022 47.3241ZM127.747 62.2252L126.243 61.5649L127.747 62.2252ZM111.74 62.3118L113.237 61.6353L111.74 62.3118ZM104.382 46.0297L105.879 45.3532L104.43 42.1463L102.902 45.3166L104.382 46.0297ZM99.1734 56.8391L97.6935 56.1261L99.1734 56.8391ZM91.3014 56.8817L89.8293 57.6108L91.3014 56.8817ZM84.2615 42.6669L85.7337 41.9379L84.4182 39.2817L82.863 41.805L84.2615 42.6669ZM2.6781 175.043L1.2796 174.182H1.2796L2.6781 175.043ZM146.17 195.081L146.639 193.506L146.409 193.438H146.17V195.081ZM330.891 174.892L332.231 173.943L330.891 174.892ZM265.315 82.2725L266.655 81.3232L265.118 79.1517L263.865 81.4992L265.315 82.2725ZM264.445 83.9024L265.894 84.6758V84.6758L264.445 83.9024ZM258.807 85.8529L259.464 84.3472L258.072 83.74L257.358 85.0796L258.807 85.8529ZM254.588 93.7591L256.038 94.5324L254.588 93.7591ZM246.81 93.6653L245.343 94.4035V94.4035L246.81 93.6653ZM239.971 80.0683L241.438 79.3301L240.111 76.6911L238.569 79.2111L239.971 80.0683ZM233.602 90.4791L232.201 89.6219L233.602 90.4791ZM226.074 90.3884L227.496 89.5652H227.496L226.074 90.3884ZM222.459 84.1439L223.88 83.3207L222.365 80.7037L220.994 83.3993L222.459 84.1439ZM215.924 96.9959L214.46 96.2514V96.2514L215.924 96.9959ZM204.139 96.8539L202.657 97.5629V97.5629L204.139 96.8539ZM200.259 88.745L201.741 88.036L200.534 85.5137L198.919 87.7958L200.259 88.745ZM189.389 104.099L187.99 104.96L189.294 107.076L190.73 105.048L189.389 104.099ZM149.697 39.6956L151.096 38.8337L149.521 36.2779L148.217 38.9825L149.697 39.6956ZM132.734 46.777L131.111 50.4739L134.12 51.7946L135.742 48.0976L132.734 46.777ZM127.865 57.8679L126.243 61.5649L129.251 62.8855L130.874 59.1885L127.865 57.8679ZM126.243 61.5649C125.637 62.9439 124.72 63.9704 123.65 64.6701L125.447 67.4202C127.046 66.3754 128.387 64.8547 129.251 62.8855L126.243 61.5649ZM115.864 64.7122C114.786 64.0242 113.858 63.0076 113.237 61.6353L110.243 62.9883C111.129 64.9481 112.486 66.4542 114.096 67.4816L115.864 64.7122ZM113.237 61.6353L111.398 57.5647L108.404 58.9178L110.243 62.9883L113.237 61.6353ZM107.718 49.4237L105.879 45.3532L102.885 46.7063L104.725 50.7768L107.718 49.4237ZM102.902 45.3166L101.6 48.019L104.56 49.4452L105.862 46.7428L102.902 45.3166ZM98.9957 53.4237L97.6935 56.1261L100.653 57.5522L101.955 54.8499L98.9957 53.4237ZM97.6935 56.1261C97.4469 56.6378 97.0959 57.0079 96.6978 57.2583L98.4474 60.0393C99.3614 59.4642 100.135 58.6276 100.653 57.5522L97.6935 56.1261ZM93.7814 57.2741C93.3806 57.028 93.0256 56.6618 92.7735 56.1527L89.8293 57.6108C90.359 58.6805 91.1419 59.5087 92.062 60.0738L93.7814 57.2741ZM92.7735 56.1527L91.0135 52.599L88.0693 54.0571L89.8293 57.6108L92.7735 56.1527ZM87.4936 45.4916L85.7337 41.9379L82.7894 43.396L84.5494 46.9497L87.4936 45.4916ZM82.863 41.805L77.7641 50.0786L80.5611 51.8023L85.66 43.5288L82.863 41.805ZM67.5661 66.6256L57.3682 83.1727L60.1652 84.8965L70.3631 68.3494L67.5661 66.6256ZM47.1703 99.7197L36.9724 116.267L39.7693 117.991L49.9673 101.444L47.1703 99.7197ZM26.7744 132.814L16.5765 149.361L19.3735 151.085L29.5714 134.538L26.7744 132.814ZM6.37857 165.908L1.2796 174.182L4.07659 175.905L9.17556 167.632L6.37857 165.908ZM1.2796 174.182C-0.183805 176.556 -0.886656 179.112 -0.936632 181.622L2.34823 181.687C2.38671 179.755 2.92567 177.773 4.07659 175.905L1.2796 174.182ZM6.36912 194.706C8.53193 195.981 11.0768 196.723 13.866 196.723V193.438C11.6724 193.438 9.70218 192.857 8.03687 191.876L6.36912 194.706ZM13.866 196.723H22.135V193.438H13.866V196.723ZM38.6731 196.723H55.2111V193.438H38.6731V196.723ZM71.7491 196.723H88.2871V193.438H71.7491V196.723ZM104.825 196.723H121.363V193.438H104.825V196.723ZM137.901 196.723H146.17V193.438H137.901V196.723ZM145.702 196.655C147.046 197.055 148.484 197.271 149.992 197.271V193.985C148.799 193.985 147.678 193.815 146.639 193.506L145.702 196.655ZM149.992 197.271H158.5V193.985H149.992V197.271ZM175.518 197.271H192.535V193.985H175.518V197.271ZM209.552 197.271H226.57V193.985H209.552V197.271ZM243.587 197.271H260.604V193.985H243.587V197.271ZM277.622 197.271H294.639V193.985H277.622V197.271ZM311.656 197.271H320.165V193.985H311.656V197.271ZM320.165 197.271C323.05 197.271 325.665 196.482 327.867 195.136L326.153 192.333C324.461 193.368 322.437 193.985 320.165 193.985V197.271ZM334.94 181.462C334.766 178.888 333.899 176.298 332.231 173.943L329.55 175.841C330.863 177.696 331.528 179.704 331.662 181.684L334.94 181.462ZM332.231 173.943L326.767 166.225L324.085 168.123L329.55 175.841L332.231 173.943ZM315.837 150.788L304.908 135.351L302.227 137.25L313.156 152.686L315.837 150.788ZM293.979 119.915L283.049 104.478L280.368 106.377L291.297 121.813L293.979 119.915ZM272.12 89.0415L266.655 81.3232L263.974 83.2218L269.439 90.9401L272.12 89.0415ZM263.865 81.4992L263.648 81.9066L266.547 83.4533L266.764 83.0458L263.865 81.4992ZM263.213 82.7216L262.996 83.1291L265.894 84.6758L266.112 84.2683L263.213 82.7216ZM262.996 83.1291C262.819 83.4593 262.601 83.7242 262.358 83.9325L264.499 86.4248C265.051 85.9505 265.527 85.3648 265.894 84.6758L262.996 83.1291ZM260.465 84.5757C260.119 84.5615 259.778 84.4843 259.464 84.3472L258.15 87.3586C258.846 87.6621 259.587 87.8279 260.33 87.8584L260.465 84.5757ZM257.358 85.0796L256.303 87.0561L259.202 88.6028L260.256 86.6262L257.358 85.0796ZM254.194 91.0092L253.139 92.9857L256.038 94.5324L257.092 92.5559L254.194 91.0092ZM253.139 92.9857C252.879 93.4733 252.523 93.8241 252.125 94.0588L253.793 96.8895C254.704 96.3524 255.489 95.5605 256.038 94.5324L253.139 92.9857ZM249.266 94.0243C248.873 93.7801 248.526 93.4208 248.278 92.9271L245.343 94.4035C245.866 95.4445 246.632 96.2551 247.53 96.814L249.266 94.0243ZM248.278 92.9271L246.568 89.5279L243.633 91.0043L245.343 94.4035L248.278 92.9271ZM243.148 82.7293L241.438 79.3301L238.503 80.8065L240.213 84.2057L243.148 82.7293ZM238.569 79.2111L236.977 81.8138L239.78 83.5282L241.372 80.9255L238.569 79.2111ZM233.793 87.0192L232.201 89.6219L235.004 91.3363L236.596 88.7336L233.793 87.0192ZM232.201 89.6219C231.932 90.0616 231.582 90.3803 231.195 90.5936L232.78 93.4715C233.659 92.9873 234.432 92.271 235.004 91.3363L232.201 89.6219ZM228.479 90.5609C228.096 90.3383 227.754 90.0112 227.496 89.5652L224.653 91.2116C225.202 92.1598 225.957 92.8945 226.825 93.3997L228.479 90.5609ZM227.496 89.5652L226.592 88.0041L223.749 89.6505L224.653 91.2116L227.496 89.5652ZM224.784 84.8818L223.88 83.3207L221.037 84.9671L221.941 86.5282L224.784 84.8818ZM220.994 83.3993L219.361 86.6124L222.289 88.1014L223.923 84.8884L220.994 83.3993ZM216.093 93.0384L214.46 96.2514L217.388 97.7404L219.022 94.5274L216.093 93.0384ZM214.46 96.2514C214.005 97.1464 213.361 97.803 212.628 98.2444L214.324 101.059C215.577 100.304 216.651 99.1913 217.388 97.7404L214.46 96.2514ZM207.404 98.1814C206.682 97.7225 206.054 97.0506 205.621 96.1448L202.657 97.5629C203.36 99.0311 204.407 100.169 205.641 100.954L207.404 98.1814ZM205.621 96.1448L204.651 94.1176L201.687 95.5357L202.657 97.5629L205.621 96.1448ZM202.711 90.0632L201.741 88.036L198.777 89.4541L199.747 91.4813L202.711 90.0632ZM198.919 87.7958L196.201 91.6342L198.882 93.5327L201.6 89.6943L198.919 87.7958ZM190.766 99.3109L188.048 103.149L190.73 105.048L193.447 101.209L190.766 99.3109ZM190.787 103.237L185.826 95.1863L183.029 96.9101L187.99 104.96L190.787 103.237ZM175.903 79.0856L165.98 62.9848L163.183 64.7086L173.106 80.8093L175.903 79.0856ZM156.057 46.8841L151.096 38.8337L148.299 40.5575L153.26 48.6079L156.057 46.8841ZM148.217 38.9825L147.299 40.8896L150.258 42.3158L151.177 40.4087L148.217 38.9825ZM145.461 44.7039L144.542 46.611L147.502 48.0371L148.42 46.13L145.461 44.7039ZM144.542 46.611C144.106 47.516 143.477 48.186 142.754 48.6426L144.51 51.4198C145.746 50.6386 146.795 49.5034 147.502 48.0371L144.542 46.611ZM137.53 48.6924C136.798 48.2493 136.156 47.5915 135.705 46.6968L132.772 48.1777C133.505 49.6302 134.577 50.7456 135.829 51.5032L137.53 48.6924ZM134.238 47.4373L137.171 45.9564L134.03 39.7366L131.23 46.1167L134.238 47.4373ZM146.022 47.3241L143.062 45.8979V45.8979L146.022 47.3241ZM127.747 62.2252L124.738 60.9046V60.9046L127.747 62.2252ZM111.74 62.3118L114.734 60.9587L111.74 62.3118ZM104.382 46.0297L107.376 44.6766L104.477 38.2629L101.422 44.6035L104.382 46.0297ZM99.1734 56.8391L96.2136 55.413V55.413L99.1734 56.8391ZM91.3014 56.8817L88.3571 58.3399V58.3399L91.3014 56.8817ZM84.2615 42.6669L87.2058 41.2088L84.5748 35.8964L81.4646 40.9431L84.2615 42.6669ZM2.6781 175.043L-0.118893 173.32H-0.118894L2.6781 175.043ZM146.17 195.081L147.107 191.932L146.649 191.795H146.17V195.081ZM330.891 174.892L333.572 172.994L330.891 174.892ZM265.315 82.2725L267.996 80.374L264.921 76.0308L262.416 80.7258L265.315 82.2725ZM264.445 83.9024L267.344 85.4491L267.344 85.4491L264.445 83.9024ZM258.807 85.8529L260.121 82.8416L257.338 81.6272L255.908 84.3062L258.807 85.8529ZM254.588 93.7591L257.487 95.3058V95.3058L254.588 93.7591ZM246.81 93.6653L243.875 95.1417V95.1417L246.81 93.6653ZM239.971 80.0683L242.906 78.5919L240.251 73.3138L237.168 78.3538L239.971 80.0683ZM233.602 90.4791L230.8 88.7647L233.602 90.4791ZM226.074 90.3884L228.918 88.742V88.742L226.074 90.3884ZM222.459 84.1439L225.302 82.4975L222.271 77.2635L219.53 82.6548L222.459 84.1439ZM215.924 96.9959L212.995 95.5068V95.5068L215.924 96.9959ZM204.139 96.8539L201.175 98.2719L204.139 96.8539ZM200.259 88.745L203.223 87.327L200.809 82.2824L197.578 86.8465L200.259 88.745ZM189.389 104.099L186.592 105.822L189.199 110.053L192.07 105.997L189.389 104.099ZM149.697 39.6956L152.494 37.9718L149.344 32.8601L146.738 38.2694L149.697 39.6956ZM131.23 46.1167L129.607 49.8136L135.624 52.4549L137.247 48.7579L131.23 46.1167ZM126.361 57.2076L124.738 60.9046L130.755 63.5458L132.378 59.8488L126.361 57.2076ZM124.738 60.9046C124.263 61.9885 123.557 62.7679 122.751 63.295L126.346 68.7953C128.208 67.5779 129.761 65.8101 130.755 63.5458L124.738 60.9046ZM116.748 63.3275C115.936 62.8092 115.222 62.0374 114.734 60.9587L108.746 63.6649C109.765 65.9183 111.337 67.6692 113.212 68.8663L116.748 63.3275ZM114.734 60.9587L112.895 56.8882L106.907 59.5944L108.746 63.6649L114.734 60.9587ZM109.215 48.7472L107.376 44.6766L101.388 47.3828L103.228 51.4533L109.215 48.7472ZM101.422 44.6035L100.12 47.3059L106.04 50.1583L107.342 47.4559L101.422 44.6035ZM97.5157 52.7106L96.2136 55.413L102.133 58.2653L103.435 55.563L97.5157 52.7106ZM96.2136 55.413C96.1028 55.643 95.9632 55.7797 95.8231 55.8678L99.3221 61.4297C100.494 60.6924 101.479 59.6224 102.133 58.2653L96.2136 55.413ZM94.641 55.8742C94.5 55.7876 94.3589 55.6524 94.2456 55.4236L88.3571 58.3399C89.0257 59.6898 90.0225 60.7491 91.2024 61.4737L94.641 55.8742ZM94.2456 55.4236L92.4856 51.8699L86.5972 54.7861L88.3571 58.3399L94.2456 55.4236ZM88.9657 44.7625L87.2058 41.2088L81.3173 44.125L83.0773 47.6787L88.9657 44.7625ZM81.4646 40.9431L76.3656 49.2167L81.9596 52.6642L87.0585 44.3907L81.4646 40.9431ZM66.1677 65.7637L55.9697 82.3108L61.5637 85.7584L71.7616 69.2113L66.1677 65.7637ZM45.7718 98.8579L35.5739 115.405L41.1678 118.852L51.3658 102.305L45.7718 98.8579ZM25.3759 131.952L15.178 148.499L20.772 151.947L30.9699 135.4L25.3759 131.952ZM4.98007 165.046L-0.118893 173.32L5.47509 176.767L10.5741 168.494L4.98007 165.046ZM-0.118894 173.32C-1.73854 175.948 -2.52334 178.791 -2.57906 181.589L3.99065 181.72C4.02339 180.076 4.48041 178.381 5.47509 176.767L-0.118894 173.32ZM5.53524 196.122C7.94681 197.542 10.779 198.366 13.866 198.366V191.795C11.9702 191.795 10.2873 191.295 8.87075 190.46L5.53524 196.122ZM13.866 198.366H22.135V191.795H13.866V198.366ZM38.6731 198.366H55.2111V191.795H38.6731V198.366ZM71.7491 198.366H88.2871V191.795H71.7491V198.366ZM104.825 198.366H121.363V191.795H104.825V198.366ZM137.901 198.366H146.17V191.795H137.901V198.366ZM145.233 198.23C146.731 198.675 148.326 198.914 149.992 198.914V192.343C148.957 192.343 147.993 192.195 147.107 191.932L145.233 198.23ZM149.992 198.914H158.5V192.343H149.992V198.914ZM175.518 198.914H192.535V192.343H175.518V198.914ZM209.552 198.914H226.57V192.343H209.552V198.914ZM243.587 198.914H260.604V192.343H243.587V198.914ZM277.622 198.914H294.639V192.343H277.622V198.914ZM311.656 198.914H320.165V192.343H311.656V198.914ZM320.165 198.914C323.357 198.914 326.268 198.039 328.723 196.538L325.297 190.931C323.858 191.81 322.131 192.343 320.165 192.343V198.914ZM336.579 181.352C336.385 178.48 335.417 175.599 333.572 172.994L328.209 176.791C329.345 178.395 329.909 180.113 330.023 181.795L336.579 181.352ZM333.572 172.994L328.107 165.275L322.745 169.072L328.209 176.791L333.572 172.994ZM317.178 149.839L306.249 134.402L300.886 138.199L311.815 153.636L317.178 149.839ZM295.319 118.966L284.39 103.529L279.027 107.326L289.957 122.763L295.319 118.966ZM273.461 88.0923L267.996 80.374L262.633 84.171L268.098 91.8893L273.461 88.0923ZM262.416 80.7258L262.199 81.1333L267.996 84.2267L268.213 83.8192L262.416 80.7258ZM261.764 81.9483L261.546 82.3558L267.344 85.4491L267.561 85.0416L261.764 81.9483ZM261.546 82.3557C261.466 82.5066 261.376 82.611 261.288 82.6863L265.57 87.6709C266.277 87.0637 266.88 86.3175 267.344 85.4491L261.546 82.3557ZM260.532 82.9343C260.384 82.9283 260.244 82.8954 260.121 82.8416L257.493 88.8642C258.379 89.251 259.321 89.4612 260.262 89.4998L260.532 82.9343ZM255.908 84.3062L254.854 86.2828L260.651 89.3761L261.706 87.3996L255.908 84.3062ZM252.744 90.2359L251.69 92.2124L257.487 95.3058L258.542 93.3292L252.744 90.2359ZM251.69 92.2124C251.574 92.4297 251.433 92.5599 251.291 92.6435L254.627 98.3049C255.795 97.6166 256.794 96.6041 257.487 95.3058L251.69 92.2124ZM250.134 92.6295C249.994 92.5425 249.856 92.4089 249.745 92.1889L243.875 95.1417C244.536 96.4564 245.511 97.4927 246.662 98.2089L250.134 92.6295ZM249.745 92.189L248.035 88.7897L242.165 91.7425L243.875 95.1417L249.745 92.189ZM244.616 81.9912L242.906 78.5919L237.036 81.5447L238.745 84.9439L244.616 81.9912ZM237.168 78.3538L235.576 80.9566L241.181 84.3854L242.773 81.7827L237.168 78.3538ZM232.392 86.162L230.8 88.7647L236.405 92.1935L237.997 89.5908L232.392 86.162ZM230.8 88.7647C230.682 88.9569 230.544 89.0768 230.402 89.1547L233.572 94.9104C234.697 94.2908 235.682 93.3757 236.405 92.1935L230.8 88.7647ZM229.305 89.1415C229.166 89.0602 229.031 88.937 228.918 88.742L223.231 92.0348C223.926 93.234 224.888 94.1726 225.998 94.8192L229.305 89.1415ZM228.918 88.742L228.014 87.1809L222.327 90.4736L223.231 92.0348L228.918 88.742ZM226.206 84.0586L225.302 82.4975L219.615 85.7903L220.519 87.3514L226.206 84.0586ZM219.53 82.6548L217.896 85.8678L223.754 88.846L225.387 85.633L219.53 82.6548ZM214.629 92.2938L212.995 95.5068L218.853 98.485L220.486 95.272L214.629 92.2938ZM212.995 95.5068C212.681 96.124 212.253 96.5525 211.781 96.8372L215.171 102.466C216.684 101.555 217.974 100.214 218.853 98.485L212.995 95.5068ZM208.285 96.7951C207.819 96.4991 207.402 96.0604 207.103 95.4358L201.175 98.2719C202.012 100.021 203.269 101.393 204.76 102.34L208.285 96.7951ZM207.103 95.4358L206.133 93.4086L200.205 96.2447L201.175 98.2719L207.103 95.4358ZM204.193 89.3542L203.223 87.327L197.296 90.1631L198.266 92.1903L204.193 89.3542ZM197.578 86.8465L194.86 90.6849L200.223 94.4819L202.941 90.6436L197.578 86.8465ZM189.425 98.3617L186.707 102.2L192.07 105.997L194.788 102.159L189.425 98.3617ZM192.186 102.375L187.224 94.3244L181.63 97.772L186.592 105.822L192.186 102.375ZM177.301 78.2237L167.379 62.1229L161.785 65.5705L171.708 81.6712L177.301 78.2237ZM157.456 46.0222L152.494 37.9718L146.9 41.4194L151.862 49.4698L157.456 46.0222ZM146.738 38.2694L145.819 40.1766L151.738 43.0289L152.657 41.1218L146.738 38.2694ZM143.981 43.9908L143.062 45.8979L148.981 48.7502L149.9 46.8431L143.981 43.9908ZM143.062 45.8979C142.761 46.5223 142.342 46.9596 141.877 47.254L145.388 52.8083C146.88 51.8649 148.14 50.4971 148.981 48.7502L143.062 45.8979ZM138.381 47.287C137.908 47.0011 137.482 46.5721 137.171 45.9564L131.305 48.9182C132.18 50.6496 133.467 51.9938 134.978 52.9086L138.381 47.287Z" fill="white" mask="url(#path-3-inside-2_393_2578)"/>
</svg>
