<svg width="225" height="271" viewBox="0 0 225 271" fill="none" xmlns="http://www.w3.org/2000/svg">
<mask id="path-1-inside-1_399_2255" fill="white">
<path fill-rule="evenodd" clip-rule="evenodd" d="M114.55 0H111.134V1.95889C99.1342 4.19414 63.8393 11.9088 48.9899 27.5922C30.9565 46.6383 23.994 69.3275 33.4387 78.27C35.4535 80.1777 38.0522 81.3056 41.0692 81.7148C16.3902 101.349 0.68486 130.907 0.68486 163.966C0.68486 223.079 50.8995 271 112.842 271C174.785 271 225 223.079 225 163.966C225 120.614 197.992 83.2814 159.157 66.456C156.323 53.9581 137.538 44.2368 114.55 43.8501V3.05612C114.983 1.89499 115.21 1.25226 115.21 1.25226C115.21 1.25226 114.981 1.2868 114.55 1.35734V0ZM111.134 11.7183V43.8616C104.915 44.0084 99.012 44.8386 93.6606 46.2213C101.181 34.4603 107.352 20.8566 111.134 11.7183Z"/>
</mask>
<path d="M111.134 0H109.426V-1.70798H111.134V0ZM114.55 0V-1.70798H116.258V0H114.55ZM111.134 1.95889H112.842V3.37811L111.447 3.63799L111.134 1.95889ZM48.9899 27.5922L47.7496 26.4179L48.9899 27.5922ZM33.4387 78.27L34.613 77.0297L33.4387 78.27ZM41.0692 81.7148L41.2987 80.0223L45.2639 80.5602L42.1325 83.0514L41.0692 81.7148ZM159.157 66.456L158.478 68.0232L157.683 67.6788L157.492 66.8338L159.157 66.456ZM114.55 43.8501L114.522 45.5579L112.842 45.5296V43.8501H114.55ZM114.55 3.05612H112.842V2.74831L112.95 2.45986L114.55 3.05612ZM115.21 1.25226L114.954 -0.436489L117.766 -0.862104L116.82 1.82L115.21 1.25226ZM114.55 1.35734L114.826 3.04289L112.842 3.36767V1.35734H114.55ZM111.134 43.8616H112.842V45.5298L111.175 45.5692L111.134 43.8616ZM111.134 11.7183L109.556 11.0652L112.842 11.7183H111.134ZM93.6606 46.2213L94.0879 47.8749L89.8807 48.962L92.2217 45.3011L93.6606 46.2213ZM111.134 -1.70798H111.988V1.70798H111.134V-1.70798ZM113.696 -1.70798H114.55V1.70798H113.696V-1.70798ZM116.258 0V0.339335H112.842V0H116.258ZM116.258 1.01801V1.35734H112.842V1.01801H116.258ZM114.274 -0.328205C114.334 -0.337979 114.39 -0.347082 114.442 -0.355518L114.988 3.01652C114.938 3.02464 114.884 3.03343 114.826 3.04289L114.274 -0.328205ZM114.779 -0.409388C114.835 -0.418211 114.878 -0.424867 114.907 -0.429376C114.922 -0.431631 114.933 -0.433349 114.941 -0.434533C114.945 -0.435126 114.948 -0.435585 114.95 -0.435911C114.951 -0.436073 114.952 -0.436203 114.953 -0.4363C114.953 -0.436348 114.953 -0.436388 114.953 -0.436419C114.954 -0.436435 114.954 -0.436449 114.954 -0.43646C114.954 -0.436466 114.954 -0.436472 114.954 -0.436476C114.954 -0.436479 114.954 -0.436481 114.954 -0.436483C114.954 -0.436484 114.954 -0.436486 114.954 -0.436486C114.954 -0.436488 114.954 -0.436489 115.21 1.25226C115.465 2.941 115.465 2.941 115.465 2.941C115.465 2.941 115.465 2.941 115.465 2.941C115.465 2.941 115.465 2.941 115.465 2.94099C115.465 2.94099 115.465 2.94099 115.465 2.94099C115.465 2.94098 115.465 2.94098 115.465 2.94098C115.465 2.94098 115.465 2.94099 115.465 2.94101C115.465 2.94105 115.464 2.94112 115.464 2.94122C115.462 2.94142 115.46 2.94176 115.457 2.94223C115.451 2.94317 115.441 2.94464 115.428 2.94664C115.402 2.95065 115.363 2.95679 115.31 2.96509L114.779 -0.409388ZM115.21 1.25226C116.82 1.82 116.82 1.82002 116.82 1.82003C116.82 1.82004 116.82 1.82005 116.82 1.82006C116.82 1.82008 116.82 1.82011 116.82 1.82013C116.82 1.82018 116.82 1.82025 116.82 1.82032C116.82 1.82046 116.82 1.82064 116.82 1.82086C116.82 1.8213 116.82 1.82188 116.819 1.82262C116.819 1.8241 116.818 1.82619 116.817 1.82887C116.815 1.83424 116.813 1.84201 116.809 1.85216C116.802 1.87245 116.791 1.90224 116.777 1.9413C116.749 2.01941 116.708 2.13459 116.654 2.28499L113.441 1.12276C113.494 0.977014 113.534 0.866387 113.56 0.792728C113.573 0.755898 113.583 0.728311 113.59 0.710197C113.593 0.701141 113.595 0.694453 113.597 0.690162C113.597 0.688016 113.598 0.68647 113.598 0.685527C113.598 0.685056 113.599 0.684735 113.599 0.684565C113.599 0.68448 113.599 0.684433 113.599 0.684424C113.599 0.68442 113.599 0.684425 113.599 0.684439C113.599 0.684446 113.599 0.684456 113.599 0.684468C113.599 0.684474 113.599 0.684484 113.599 0.684487C113.599 0.684499 113.599 0.68451 115.21 1.25226ZM116.32 3.19761C116.267 3.3391 116.211 3.49081 116.151 3.65239L112.95 2.45986C113.009 2.30115 113.064 2.15229 113.115 2.01359L116.32 3.19761ZM116.258 3.05612V13.2546H112.842V3.05612H116.258ZM116.258 33.6516V43.8501H112.842V33.6516H116.258ZM114.579 42.1424C116.882 42.1811 119.145 42.3117 121.356 42.528L121.024 45.9278C118.904 45.7205 116.733 45.5951 114.522 45.5579L114.579 42.1424ZM134.716 45.0286C139.412 46.3712 143.684 48.1444 147.362 50.2704L145.652 53.2278C142.248 51.2602 138.241 49.5893 133.777 48.313L134.716 45.0286ZM157.846 59.4624C159.271 61.5277 160.294 63.7443 160.823 66.0782L157.492 66.8338C157.07 64.9753 156.244 63.1555 155.035 61.4026L157.846 59.4624ZM159.836 64.8888C162.263 65.94 164.644 67.0701 166.976 68.2758L165.407 71.3102C163.144 70.1402 160.833 69.0435 158.478 68.0232L159.836 64.8888ZM180.476 76.4764C184.8 79.5301 188.89 82.8694 192.715 86.4654L190.376 88.9544C186.667 85.4677 182.7 82.2291 178.505 79.2668L180.476 76.4764ZM203.434 98.0778C206.726 102.201 209.718 106.556 212.377 111.113L209.426 112.834C206.852 108.422 203.955 104.204 200.764 100.21L203.434 98.0778ZM219.309 125.325C221.249 130.198 222.834 135.24 224.031 140.42L220.703 141.19C219.545 136.18 218.013 131.303 216.135 126.589L219.309 125.325ZM226.411 156.058C226.608 158.67 226.708 161.307 226.708 163.966H223.292C223.292 161.393 223.195 158.841 223.005 156.314L226.411 156.058ZM226.708 163.966C226.708 166.911 226.585 169.829 226.345 172.715L222.941 172.431C223.173 169.639 223.292 166.816 223.292 163.966H226.708ZM223.435 189.954C221.974 195.647 220.043 201.164 217.684 206.464L214.563 205.075C216.845 199.947 218.713 194.61 220.127 189.105L223.435 189.954ZM209.289 221.796C206.083 226.662 202.486 231.267 198.539 235.571L196.021 233.263C199.847 229.091 203.332 224.629 206.436 219.917L209.289 221.796ZM185.765 247.486C181.233 251.098 176.403 254.381 171.315 257.294L169.618 254.33C174.555 251.503 179.24 248.319 183.636 244.815L185.765 247.486ZM155.552 264.799C150.174 266.879 144.593 268.577 138.844 269.859L138.101 266.525C143.682 265.28 149.101 263.632 154.32 261.613L155.552 264.799ZM121.576 272.393C118.693 272.602 115.781 272.708 112.842 272.708V269.292C115.698 269.292 118.528 269.189 121.329 268.986L121.576 272.393ZM112.842 272.708C109.904 272.708 106.992 272.602 104.109 272.393L104.356 268.986C107.157 269.189 109.987 269.292 112.842 269.292V272.708ZM86.8404 269.859C81.0919 268.577 75.5104 266.879 70.1329 264.799L71.3648 261.613C76.5843 263.632 82.0026 265.28 87.5841 266.525L86.8404 269.859ZM54.3694 257.294C49.2817 254.381 44.4517 251.098 39.92 247.486L42.0493 244.815C46.4446 248.319 51.1302 251.503 56.0669 254.33L54.3694 257.294ZM27.1456 235.571C23.1989 231.267 19.6015 226.662 16.3961 221.796L19.2486 219.917C22.3528 224.629 25.838 229.091 29.6634 233.263L27.1456 235.571ZM8.00095 206.464C5.64232 201.164 3.71123 195.647 2.24937 189.954L5.558 189.105C6.97179 194.61 8.83965 199.947 11.1219 205.075L8.00095 206.464ZM-0.659882 172.715C-0.900528 169.829 -1.02312 166.911 -1.02312 163.966H2.39284C2.39284 166.816 2.51149 169.639 2.74428 172.431L-0.659882 172.715ZM-1.02312 163.966C-1.02312 161.267 -0.92012 158.591 -0.717606 155.94L2.68843 156.2C2.49254 158.764 2.39284 161.354 2.39284 163.966H-1.02312ZM1.73315 140.079C2.96602 134.827 4.59674 129.718 6.59331 124.783L9.75989 126.064C7.82828 130.838 6.25105 135.78 5.05875 140.86L1.73315 140.079ZM13.7226 110.408C16.4554 105.805 19.5292 101.412 22.9108 97.26L25.5595 99.4172C22.2828 103.44 19.3058 107.695 16.6599 112.152L13.7226 110.408ZM33.9095 85.5917C35.8752 83.7857 37.9087 82.0466 40.0058 80.3782L42.1325 83.0514C40.0985 84.6696 38.1266 86.3561 36.2206 88.1072L33.9095 85.5917ZM40.8396 83.4073C40.0519 83.3005 39.2842 83.148 38.5397 82.9477L39.4274 79.6491C40.0227 79.8093 40.6468 79.9339 41.2987 80.0223L40.8396 83.4073ZM34.1694 81.0163C33.4934 80.573 32.8569 80.0713 32.2644 79.5102L34.613 77.0297C35.0565 77.4497 35.5335 77.8259 36.0424 78.1596L34.1694 81.0163ZM32.2644 79.5102C30.2936 77.6442 28.9736 75.2806 28.2372 72.5935L31.5317 71.6907C32.1253 73.8567 33.1534 75.6478 34.613 77.0297L32.2644 79.5102ZM28.8976 57.521C30.0919 53.1927 32.0392 48.6016 34.6549 43.9625L37.6305 45.6402C35.1277 50.0791 33.2989 54.4127 32.1905 58.4297L28.8976 57.521ZM42.9302 31.9025C44.4372 30.0509 46.0451 28.218 47.7496 26.4179L50.2301 28.7665C48.584 30.505 47.0324 32.2738 45.5796 34.0588L42.9302 31.9025ZM47.7496 26.4179C49.7014 24.3565 51.9719 22.445 54.4604 20.6742L56.4409 23.4574C54.0947 25.127 52.0006 26.8965 50.2301 28.7665L47.7496 26.4179ZM69.6711 12.3224C74.9837 10.0067 80.531 8.0446 85.8391 6.40673L86.8463 9.67084C81.6266 11.2814 76.204 13.2012 71.036 15.4538L69.6711 12.3224ZM102.431 2.01044C105.8 1.25133 108.678 0.67912 110.822 0.279785L111.447 3.63799C109.339 4.03065 106.503 4.59439 103.182 5.34284L102.431 2.01044ZM109.426 1.95889V1.46917H112.842V1.95889H109.426ZM109.426 0.489722V0H112.842V0.489722H109.426ZM109.426 43.8616V35.8258H112.842V43.8616H109.426ZM109.426 19.7541V11.7183H112.842V19.7541H109.426ZM112.713 12.3714C111.614 15.0251 110.316 18.0535 108.842 21.3043L105.73 19.8935C107.187 16.6817 108.471 13.6886 109.556 11.0652L112.713 12.3714ZM100.106 38.7375C98.5205 41.5808 96.8475 44.4081 95.0996 47.1414L92.2217 45.3011C93.9273 42.634 95.5653 39.8665 97.1231 37.0736L100.106 38.7375ZM93.2334 44.5676C94.6684 44.1968 96.1408 43.8651 97.6462 43.5748L98.2931 46.9289C96.8559 47.2061 95.4529 47.5223 94.0879 47.8749L93.2334 44.5676ZM106.591 42.38C108.072 42.2659 109.574 42.19 111.094 42.1541L111.175 45.5692C109.715 45.6036 108.274 45.6764 106.854 45.7859L106.591 42.38ZM111.134 0H107.718V-3.41597H111.134V0ZM114.55 0V-3.41597H117.966V0H114.55ZM111.134 1.95889H114.55V4.79732L111.76 5.31709L111.134 1.95889ZM48.9899 27.5922L46.5094 25.2436L48.9899 27.5922ZM33.4387 78.27L35.7873 75.7895L33.4387 78.27ZM41.0692 81.7148L41.5283 78.3299L49.4587 79.4055L43.1958 84.388L41.0692 81.7148ZM159.157 66.456L157.799 69.5904L156.209 68.9015L155.826 67.2115L159.157 66.456ZM114.55 43.8501L114.493 47.2656L111.134 47.2091V43.8501H114.55ZM114.55 3.05612H111.134V2.44049L111.349 1.8636L114.55 3.05612ZM115.21 1.25226L114.698 -2.12524L120.322 -2.97647L118.431 2.38775L115.21 1.25226ZM114.55 1.35734L115.102 4.72843L111.134 5.378V1.35734H114.55ZM111.134 43.8616H114.55V47.198L111.215 47.2767L111.134 43.8616ZM111.134 11.7183L107.978 10.412L114.55 11.7183H111.134ZM93.6606 46.2213L94.5152 49.5286L86.1007 51.7028L90.7828 44.381L93.6606 46.2213ZM111.134 -3.41597H111.988V3.41597H111.134V-3.41597ZM113.696 -3.41597H114.55V3.41597H113.696V-3.41597ZM117.966 0V0.339335H111.134V0H117.966ZM117.966 1.01801V1.35734H111.134V1.01801H117.966ZM113.999 -2.01375C114.059 -2.02368 114.116 -2.03295 114.169 -2.04154L115.261 4.70254C115.212 4.71051 115.159 4.71914 115.102 4.72843L113.999 -2.01375ZM114.514 -2.09663C114.572 -2.10571 114.616 -2.11262 114.647 -2.11738C114.662 -2.11977 114.674 -2.12161 114.683 -2.12292C114.687 -2.12357 114.691 -2.12409 114.693 -2.12448C114.695 -2.12467 114.696 -2.12483 114.696 -2.12496C114.697 -2.12502 114.697 -2.12507 114.698 -2.12512C114.698 -2.12514 114.698 -2.12517 114.698 -2.12518C114.698 -2.12519 114.698 -2.1252 114.698 -2.12521C114.698 -2.12522 114.698 -2.12522 114.698 -2.12522C114.698 -2.12523 114.698 -2.12523 114.698 -2.12523C114.698 -2.12523 114.698 -2.12524 115.21 1.25226C115.721 4.62975 115.721 4.62975 115.721 4.62974C115.721 4.62974 115.721 4.62974 115.721 4.62974C115.721 4.62974 115.721 4.62973 115.721 4.62973C115.721 4.62972 115.721 4.62972 115.721 4.62971C115.721 4.6297 115.721 4.62969 115.721 4.62968C115.721 4.62967 115.721 4.62967 115.721 4.62967C115.721 4.62967 115.721 4.62971 115.721 4.62979C115.72 4.62993 115.718 4.6302 115.715 4.63061C115.71 4.63143 115.701 4.63277 115.689 4.63465C115.664 4.63841 115.627 4.64429 115.576 4.65232L114.514 -2.09663ZM115.21 1.25226C118.431 2.38775 118.431 2.38778 118.431 2.3878C118.431 2.38781 118.431 2.38784 118.431 2.38786C118.431 2.3879 118.431 2.38794 118.431 2.38798C118.431 2.38806 118.431 2.38816 118.431 2.38826C118.431 2.38847 118.431 2.38872 118.431 2.38901C118.431 2.38958 118.43 2.3903 118.43 2.39117C118.429 2.39292 118.429 2.39527 118.428 2.39822C118.425 2.40413 118.422 2.41245 118.419 2.42314C118.411 2.44452 118.4 2.47541 118.386 2.51558C118.357 2.59592 118.315 2.71338 118.26 2.86611L111.835 0.541644C111.887 0.398226 111.926 0.289877 111.952 0.218444C111.964 0.182728 111.974 0.156242 111.98 0.139218C111.983 0.130706 111.985 0.12456 111.986 0.120807C111.987 0.118931 111.987 0.117654 111.988 0.116979C111.988 0.116641 111.988 0.116454 111.988 0.116418C111.988 0.1164 111.988 0.11642 111.988 0.116478C111.988 0.116506 111.988 0.116545 111.988 0.116592C111.988 0.116616 111.988 0.116642 111.988 0.116671C111.988 0.116685 111.988 0.116708 111.988 0.116716C111.988 0.116739 111.988 0.116764 115.21 1.25226ZM117.922 3.78962C117.869 3.93251 117.812 4.08563 117.751 4.24865L111.349 1.8636C111.408 1.70633 111.463 1.55888 111.513 1.42158L117.922 3.78962ZM117.966 3.05612V13.2546H111.134V3.05612H117.966ZM117.966 33.6516V43.8501H111.134V33.6516H117.966ZM114.608 40.4347C116.957 40.4742 119.265 40.6074 121.522 40.8281L120.857 47.6276C118.784 47.4248 116.659 47.3021 114.493 47.2656L114.608 40.4347ZM135.185 43.3864C139.998 44.7621 144.401 46.5865 148.216 48.7917L144.797 54.7065C141.53 52.8181 137.656 51.1983 133.307 49.9552L135.185 43.3864ZM159.252 58.4923C160.785 60.7138 161.906 63.1288 162.489 65.7005L155.826 67.2115C155.458 65.5907 154.731 63.9694 153.629 62.3727L159.252 58.4923ZM160.515 63.3216C162.977 64.3883 165.394 65.5351 167.76 66.7586L164.622 72.8274C162.394 71.6753 160.119 70.5952 157.799 69.5904L160.515 63.3216ZM181.461 75.0813C185.85 78.1806 190.002 81.5703 193.885 85.221L189.206 90.1988C185.555 86.7669 181.65 83.5785 177.52 80.6619L181.461 75.0813ZM204.768 97.0119C208.112 101.199 211.151 105.622 213.852 110.252L207.951 113.695C205.419 109.355 202.569 105.206 199.43 101.275L204.768 97.0119ZM220.896 124.693C222.868 129.646 224.478 134.77 225.695 140.036L219.039 141.574C217.9 136.65 216.394 131.856 214.549 127.221L220.896 124.693ZM228.115 155.93C228.314 158.584 228.416 161.264 228.416 163.966H221.584C221.584 161.436 221.489 158.927 221.302 156.442L228.115 155.93ZM228.416 163.966C228.416 166.958 228.291 169.923 228.047 172.857L221.239 172.289C221.467 169.544 221.584 166.769 221.584 163.966H228.416ZM225.09 190.379C223.604 196.166 221.641 201.772 219.244 207.158L213.003 204.381C215.247 199.338 217.083 194.092 218.473 188.68L225.09 190.379ZM210.715 222.736C207.459 227.678 203.806 232.355 199.798 236.726L194.763 232.109C198.527 228.003 201.956 223.613 205.01 218.977L210.715 222.736ZM186.83 248.822C182.23 252.488 177.327 255.82 172.164 258.776L168.769 252.847C173.63 250.064 178.244 246.929 182.571 243.479L186.83 248.822ZM156.168 266.392C150.711 268.502 145.048 270.225 139.216 271.526L137.729 264.858C143.227 263.632 148.564 262.008 153.704 260.02L156.168 266.392ZM121.699 274.096C118.775 274.308 115.822 274.416 112.842 274.416V267.584C115.657 267.584 118.446 267.482 121.206 267.282L121.699 274.096ZM112.842 274.416C109.863 274.416 106.909 274.308 103.986 274.096L104.479 267.282C107.239 267.482 110.028 267.584 112.842 267.584V274.416ZM86.4685 271.526C80.6365 270.225 74.9734 268.502 69.5169 266.392L71.9808 260.02C77.1213 262.008 82.458 263.632 87.956 264.858L86.4685 271.526ZM53.5207 258.776C48.3575 255.82 43.4553 252.488 38.8553 248.822L43.1139 243.479C47.441 246.929 52.0544 250.064 56.9156 252.847L53.5207 258.776ZM25.8867 236.726C21.8793 232.355 18.2258 227.678 14.9698 222.736L20.6749 218.977C23.7285 223.613 27.1576 228.003 30.9223 232.109L25.8867 236.726ZM6.44049 207.158C4.04364 201.772 2.08096 196.166 0.595062 190.379L7.21231 188.68C8.60207 194.092 10.4383 199.338 12.6823 204.381L6.44049 207.158ZM-2.36195 172.857C-2.60654 169.923 -2.73111 166.958 -2.73111 163.966H4.10083C4.10083 166.769 4.2175 169.544 4.44635 172.289L-2.36195 172.857ZM-2.73111 163.966C-2.73111 161.224 -2.62643 158.504 -2.42062 155.81L4.39145 156.331C4.19885 158.851 4.10083 161.398 4.10083 163.966H-2.73111ZM0.0703583 139.689C1.32352 134.35 2.98096 129.157 5.01001 124.143L11.3432 126.705C9.44405 131.399 7.89357 136.257 6.72154 141.25L0.0703583 139.689ZM12.254 109.536C15.0303 104.86 18.1524 100.398 21.5865 96.1814L26.8838 100.496C23.6596 104.455 20.731 108.641 18.1286 113.024L12.254 109.536ZM32.754 84.334C34.7496 82.5005 36.8138 80.7352 38.9425 79.0416L43.1958 84.388C41.1935 85.9811 39.2523 87.6413 37.3761 89.365L32.754 84.334ZM40.61 85.0998C39.7545 84.9838 38.9149 84.8174 38.0958 84.597L39.8712 77.9998C40.3919 78.1399 40.9443 78.2507 41.5283 78.3299L40.61 85.0998ZM33.2329 82.4446C32.4733 81.9466 31.7572 81.3821 31.0901 80.7505L35.7873 75.7895C36.1563 76.1389 36.5535 76.4524 36.9789 76.7313L33.2329 82.4446ZM31.0901 80.7505C28.8636 78.6424 27.3977 75.9926 26.59 73.0449L33.179 71.2393C33.7011 73.1447 34.5833 74.6495 35.7873 75.7895L31.0901 80.7505ZM27.2511 57.0667C28.4884 52.5828 30.4949 47.8629 33.1672 43.1236L39.1183 46.4791C36.672 50.8178 34.9024 55.0226 33.8369 58.884L27.2511 57.0667ZM41.6055 30.8243C43.1396 28.9395 44.7757 27.0746 46.5094 25.2436L51.4704 29.9408C49.8534 31.6485 48.33 33.3852 46.9043 35.137L41.6055 30.8243ZM46.5094 25.2436C48.5518 23.0864 50.9105 21.104 53.4701 19.2826L57.4312 24.849C55.156 26.468 53.1502 28.1666 51.4704 29.9408L46.5094 25.2436ZM68.9886 10.7567C74.3736 8.40947 79.9832 6.42618 85.3355 4.77467L87.3499 11.3029C82.1744 12.8998 76.8141 14.7985 71.7185 17.0195L68.9886 10.7567ZM102.055 0.344242C105.448 -0.420207 108.347 -0.996645 110.509 -1.39932L111.76 5.31709C109.67 5.70642 106.855 6.26592 103.557 7.00905L102.055 0.344242ZM107.718 1.95889V1.46917H114.55V1.95889H107.718ZM107.718 0.489722V0H114.55V0.489722H107.718ZM107.718 43.8616V35.8258H114.55V43.8616H107.718ZM107.718 19.7541V11.7183H114.55V19.7541H107.718ZM114.291 13.0246C113.186 15.6934 111.88 18.7394 110.397 22.0097L104.175 19.1881C105.623 15.9959 106.899 13.0203 107.978 10.412L114.291 13.0246ZM101.598 39.5695C99.9982 42.438 98.3076 45.2952 96.5385 48.0616L90.7828 44.381C92.4672 41.7469 94.0877 39.0094 95.6315 36.2416L101.598 39.5695ZM92.8061 42.9139C94.2762 42.5341 95.7832 42.1946 97.3228 41.8977L98.6166 48.606C97.2135 48.8766 95.8451 49.185 94.5152 49.5286L92.8061 42.9139ZM106.46 40.6771C107.971 40.5606 109.504 40.4832 111.054 40.4466L111.215 47.2767C109.786 47.3104 108.375 47.3817 106.985 47.4888L106.46 40.6771Z" fill="white" mask="url(#path-1-inside-1_399_2255)"/>
<path d="M78.6788 74.8667C56.4312 110.29 44.7809 133.629 53.9131 176.207" stroke="white" stroke-width="4.55462" stroke-dasharray="22.77 22.77"/>
</svg>
