<svg width="114" height="63" viewBox="0 0 114 63" fill="none" xmlns="http://www.w3.org/2000/svg">
<g filter="url(#filter0_d_462_2189)">
<g clip-path="url(#clip0_462_2189)">
<rect x="3" y="3" width="106" height="55" rx="27.5" fill="white"/>
<circle cx="33" cy="47.609" r="24" fill="#FDAC01" fill-opacity="0.6"/>
<circle cx="33" cy="47.609" r="18" fill="#FDAC01" fill-opacity="0.6"/>
<path d="M32 43.1064C32 42.0018 32.4477 40.6064 33 40.6064C33.5523 40.6064 34 42.5018 34 43.6064C34 44.7109 33.5523 44.6064 33 44.6064C32.4477 44.6064 32 44.2109 32 43.1064Z" fill="#474751"/>
<path d="M40 43.109C40 42.0045 40.4477 40.609 41 40.609C41.5523 40.609 42 42.5045 42 43.609C42 44.7136 41.5523 44.609 41 44.609C40.4477 44.609 40 44.2136 40 43.109Z" fill="#474751"/>
<path d="M34 49.609C34.5 50.7757 36.8 52.409 42 49.609" stroke="#474751" stroke-linecap="round"/>
<path fill-rule="evenodd" clip-rule="evenodd" d="M38.4491 25.1099L40.8143 25.2037C40.9171 24.8428 41.0649 24.4952 41.2549 24.1693L45.2137 17.3734C45.583 16.7488 45.692 16.0041 45.5173 15.2998C45.3425 14.5956 44.8979 13.9882 44.2794 13.6088C43.6609 13.2293 42.9181 13.1082 42.2111 13.2715C41.5041 13.4348 40.8896 13.8694 40.5001 14.4817L36.2998 20.9798C30.8455 14.903 18.9498 16.0874 18.4304 16.1424C18.1241 16.1749 17.8433 16.3278 17.6497 16.5674C17.4561 16.807 17.3656 17.1137 17.3982 17.4201C17.4307 17.7264 17.5836 18.0072 17.8232 18.2008C18.0628 18.3944 18.3696 18.4849 18.6759 18.4523C18.6778 18.4522 18.6826 18.4517 18.6902 18.451C19.0406 18.4189 25.3681 17.8391 30.4036 19.8021C28.0154 21.3467 25.2288 22.1619 22.3847 22.148C17.2785 21.9454 14.2285 20.3367 11.8929 16.5978C13.1072 15.5802 16.4622 13.4002 22.5793 13.844C24.3544 14.0571 26.0806 14.5697 27.6845 15.3599C27.817 15.4404 27.9643 15.4936 28.1176 15.5163C28.271 15.539 28.4274 15.5307 28.5775 15.492C28.7277 15.4533 28.8686 15.3849 28.9919 15.2909C29.1151 15.1969 29.2184 15.0791 29.2954 14.9446C29.3725 14.81 29.4218 14.6614 29.4405 14.5075C29.4592 14.3535 29.4469 14.1974 29.4043 14.0483C29.3617 13.8992 29.2897 13.7602 29.1925 13.6394C29.0953 13.5186 28.9749 13.4185 28.8384 13.3449C26.9443 12.39 24.8966 11.7768 22.7895 11.5335C15.6919 10.9881 11.7067 13.7044 10.3267 14.8852C9.9246 15.2329 9.65888 15.712 9.57675 16.2371C9.49462 16.7623 9.60141 17.2996 9.87813 17.7535C12.5978 22.1565 16.4154 24.2268 22.2515 24.4673L22.2935 24.469C26.0699 24.4796 29.7478 23.2644 32.7746 21.0061C33.6041 21.5381 34.3389 22.2049 34.9489 22.9788C35.125 23.2032 35.3522 23.3822 35.6115 23.5009C35.8709 23.6196 36.1549 23.6745 36.4398 23.6611C36.7247 23.6478 37.0022 23.5664 37.2493 23.424C37.4964 23.2815 37.7058 23.082 37.8601 22.8421L42.4518 15.7377C42.5133 15.6406 42.6106 15.5717 42.7226 15.5459C42.8346 15.5201 42.9523 15.5395 43.0501 15.5999C43.1499 15.6595 43.2222 15.7559 43.2515 15.8685C43.2807 15.981 43.2645 16.1005 43.2064 16.2012L39.2475 22.9983C38.8649 23.6539 38.5954 24.3678 38.4491 25.1099Z" fill="#547853"/>
<path d="M74.496 16.632V21.036C74.96 21.036 75.468 21.008 76.02 20.952C76.572 20.896 77.104 20.816 77.616 20.712L77.76 21.78C77.088 21.916 76.364 22.02 75.588 22.092C74.812 22.156 74.016 22.18 73.2 22.164V15.528H76.956V16.632H74.496ZM78.324 14.916H79.572V18.048H80.688V14.736H81.936V25.236H80.688V19.14H79.572V24.852H78.324V14.916ZM88.2591 19.92C88.2591 19.648 88.1471 19.424 87.9231 19.248C87.6991 19.072 87.4191 18.984 87.0831 18.984C86.7471 18.984 86.4711 19.072 86.2551 19.248C86.0391 19.424 85.9311 19.648 85.9311 19.92C85.9311 20.208 86.0391 20.444 86.2551 20.628C86.4711 20.804 86.7471 20.892 87.0831 20.892C87.4191 20.892 87.6991 20.804 87.9231 20.628C88.1471 20.444 88.2591 20.208 88.2591 19.92ZM85.4511 15.9V14.796H88.6791V15.9H85.4511ZM84.0231 17.556V16.476H90.0231V17.556H84.0231ZM92.3031 14.736V18.972H94.0791V20.076H92.3031V25.236H91.0071V14.736H92.3031ZM90.7191 23.64C90.2871 23.704 89.7711 23.76 89.1711 23.808C88.5711 23.848 87.9471 23.884 87.2991 23.916C86.6511 23.956 86.0111 23.984 85.3791 24C84.7471 24.024 84.1911 24.036 83.7111 24.036L83.6271 22.92C83.9951 22.92 84.4231 22.916 84.9111 22.908C85.4071 22.9 85.9191 22.884 86.4471 22.86V21.864C86.0471 21.784 85.6991 21.62 85.4031 21.372C85.1871 21.204 85.0191 20.996 84.8991 20.748C84.7791 20.5 84.7191 20.224 84.7191 19.92C84.7191 19.632 84.7791 19.368 84.8991 19.128C85.0191 18.88 85.1871 18.672 85.4031 18.504C85.6191 18.328 85.8671 18.192 86.1471 18.096C86.4351 18 86.7471 17.952 87.0831 17.952C87.4031 17.952 87.7071 18 87.9951 18.096C88.2911 18.192 88.5471 18.328 88.7631 18.504C88.9791 18.672 89.1511 18.88 89.2791 19.128C89.4071 19.368 89.4711 19.632 89.4711 19.92C89.4711 20.224 89.4071 20.5 89.2791 20.748C89.1511 20.996 88.9791 21.204 88.7631 21.372C88.6271 21.484 88.4711 21.58 88.2951 21.66C88.1271 21.74 87.9471 21.804 87.7551 21.852V22.788C88.3071 22.756 88.8311 22.72 89.3271 22.68C89.8231 22.64 90.2471 22.588 90.5991 22.524L90.7191 23.64ZM81.264 34.736V38.852H83.04V39.956H81.264V45.236H79.968V34.736H81.264ZM72.768 37.88V36.8H79.008V37.88H72.768ZM74.064 36.044V34.94H77.748V36.044H74.064ZM77.148 40.58C77.148 40.22 77.024 39.932 76.776 39.716C76.536 39.492 76.244 39.38 75.9 39.38C75.732 39.38 75.568 39.412 75.408 39.476C75.256 39.532 75.12 39.612 75 39.716C74.888 39.82 74.796 39.948 74.724 40.1C74.66 40.244 74.628 40.404 74.628 40.58C74.628 40.764 74.66 40.932 74.724 41.084C74.796 41.228 74.888 41.356 75 41.468C75.12 41.58 75.256 41.668 75.408 41.732C75.568 41.788 75.732 41.816 75.9 41.816C76.068 41.816 76.228 41.788 76.38 41.732C76.532 41.668 76.664 41.58 76.776 41.468C76.896 41.356 76.988 41.228 77.052 41.084C77.116 40.932 77.148 40.764 77.148 40.58ZM78.36 40.58C78.36 40.924 78.292 41.236 78.156 41.516C78.02 41.796 77.84 42.036 77.616 42.236C77.392 42.436 77.128 42.592 76.824 42.704C76.528 42.808 76.22 42.86 75.9 42.86C75.572 42.86 75.256 42.808 74.952 42.704C74.656 42.592 74.392 42.436 74.16 42.236C73.936 42.036 73.756 41.796 73.62 41.516C73.484 41.236 73.416 40.924 73.416 40.58C73.416 40.236 73.484 39.928 73.62 39.656C73.764 39.376 73.948 39.14 74.172 38.948C74.404 38.748 74.668 38.596 74.964 38.492C75.268 38.388 75.58 38.336 75.9 38.336C76.22 38.336 76.528 38.392 76.824 38.504C77.12 38.608 77.38 38.76 77.604 38.96C77.836 39.152 78.02 39.388 78.156 39.668C78.292 39.94 78.36 40.244 78.36 40.58ZM83.7351 41.624C84.9671 41.136 85.9751 40.456 86.7591 39.584C87.5431 38.712 88.0191 37.74 88.1871 36.668H84.4311V35.528H89.6031C89.6031 36.448 89.4711 37.276 89.2071 38.012C88.9511 38.748 88.5951 39.408 88.1391 39.992C87.7071 40.552 87.1911 41.052 86.5911 41.492C85.9991 41.924 85.3271 42.308 84.5751 42.644L83.7351 41.624ZM91.4151 34.736H92.7111V45.236H91.4151V34.736Z" fill="#87888D"/>
</g>
<rect x="3.5" y="3.5" width="105" height="54" rx="27" stroke="#FDAC01" stroke-dasharray="8 8"/>
</g>
<defs>
<filter id="filter0_d_462_2189" x="0" y="0" width="114" height="63" filterUnits="userSpaceOnUse" color-interpolation-filters="sRGB">
<feFlood flood-opacity="0" result="BackgroundImageFix"/>
<feColorMatrix in="SourceAlpha" type="matrix" values="0 0 0 0 0 0 0 0 0 0 0 0 0 0 0 0 0 0 127 0" result="hardAlpha"/>
<feOffset dx="1" dy="1"/>
<feGaussianBlur stdDeviation="2"/>
<feComposite in2="hardAlpha" operator="out"/>
<feColorMatrix type="matrix" values="0 0 0 0 0 0 0 0 0 0 0 0 0 0 0 0 0 0 0.25 0"/>
<feBlend mode="normal" in2="BackgroundImageFix" result="effect1_dropShadow_462_2189"/>
<feBlend mode="normal" in="SourceGraphic" in2="effect1_dropShadow_462_2189" result="shape"/>
</filter>
<clipPath id="clip0_462_2189">
<rect x="3" y="3" width="106" height="55" rx="27.5" fill="white"/>
</clipPath>
</defs>
</svg>
