<svg width="181" height="271" viewBox="0 0 181 271" fill="none" xmlns="http://www.w3.org/2000/svg">
<mask id="path-1-inside-1_393_1759" fill="white">
<path fill-rule="evenodd" clip-rule="evenodd" d="M113.866 0H110.45V1.95889C98.4494 4.19414 63.1545 11.9088 48.305 27.5922C30.2717 46.6383 23.3092 69.3275 32.7538 78.27C34.7687 80.1777 37.3674 81.3056 40.3843 81.7148C15.7054 101.349 4.57764e-05 130.907 4.57764e-05 163.966C4.57764e-05 223.079 50.2147 271 112.158 271C174.101 271 224.315 223.079 224.315 163.966C224.315 120.614 197.307 83.2814 158.473 66.456C155.638 53.9581 136.853 44.2368 113.866 43.8501V3.05612C114.298 1.89499 114.525 1.25226 114.525 1.25226C114.525 1.25226 114.296 1.2868 113.866 1.35734V0ZM110.45 11.7183V43.8616C104.23 44.0084 98.3272 44.8386 92.9758 46.2213C100.497 34.4603 106.668 20.8566 110.45 11.7183Z"/>
</mask>
<path d="M110.45 0H108.45V-2H110.45V0ZM113.866 0V-2H115.866V0H113.866ZM110.45 1.95889H112.45V3.62075L110.816 3.92507L110.45 1.95889ZM48.305 27.5922L46.8527 26.2171V26.2171L48.305 27.5922ZM32.7538 78.27L34.1289 76.8177L32.7538 78.27ZM40.3843 81.7148L40.6532 79.733L45.2963 80.3628L41.6295 83.28L40.3843 81.7148ZM158.473 66.456L157.678 68.2912L156.747 67.8878L156.522 66.8984L158.473 66.456ZM113.866 43.8501L113.832 45.8499L111.866 45.8168V43.8501H113.866ZM113.866 3.05612H111.866V2.69568L111.991 2.35792L113.866 3.05612ZM114.525 1.25226L114.225 -0.725217L117.518 -1.2236L116.411 1.91707L114.525 1.25226ZM113.866 1.35734L114.189 3.33107L111.866 3.71138V1.35734H113.866ZM110.45 43.8616H112.45V45.815L110.497 45.8611L110.45 43.8616ZM110.45 11.7183L108.602 10.9535L112.45 11.7183H110.45ZM92.9758 46.2213L93.4762 48.1577L88.5496 49.4306L91.2909 45.1438L92.9758 46.2213ZM110.45 -2H111.304V2H110.45V-2ZM113.012 -2H113.866V2H113.012V-2ZM115.866 0V0.339335H111.866V0H115.866ZM115.866 1.01801V1.35734H111.866V1.01801H115.866ZM113.542 -0.616385C113.602 -0.626186 113.658 -0.635317 113.711 -0.643779L114.35 3.30478C114.3 3.31288 114.246 3.32164 114.189 3.33107L113.542 -0.616385ZM114.049 -0.697858C114.105 -0.706726 114.149 -0.713425 114.178 -0.717978C114.193 -0.720254 114.204 -0.721993 114.212 -0.723199C114.216 -0.723802 114.219 -0.724271 114.221 -0.724607C114.222 -0.724775 114.223 -0.72491 114.224 -0.725012C114.224 -0.725063 114.225 -0.725105 114.225 -0.725139C114.225 -0.725156 114.225 -0.725171 114.225 -0.725184C114.225 -0.725191 114.225 -0.725197 114.225 -0.725202C114.225 -0.725205 114.225 -0.725207 114.225 -0.72521C114.225 -0.725211 114.225 -0.725213 114.225 -0.725213C114.225 -0.725215 114.225 -0.725217 114.525 1.25226C114.824 3.22973 114.824 3.22973 114.824 3.22973C114.824 3.22973 114.824 3.22973 114.824 3.22973C114.824 3.22972 114.824 3.22972 114.824 3.22972C114.824 3.22972 114.824 3.22971 114.824 3.22971C114.824 3.22971 114.824 3.2297 114.824 3.2297C114.824 3.2297 114.824 3.22971 114.824 3.22972C114.824 3.22976 114.823 3.22982 114.823 3.22992C114.822 3.23011 114.819 3.23044 114.816 3.2309C114.81 3.23181 114.801 3.23326 114.788 3.23524C114.762 3.23921 114.723 3.2453 114.671 3.25355L114.049 -0.697858ZM114.525 1.25226C116.411 1.91707 116.411 1.91709 116.411 1.9171C116.411 1.91711 116.411 1.91713 116.411 1.91714C116.411 1.91716 116.411 1.91719 116.411 1.91722C116.411 1.91728 116.411 1.91734 116.411 1.91742C116.411 1.91757 116.411 1.91777 116.411 1.918C116.41 1.91846 116.41 1.91907 116.41 1.91983C116.409 1.92135 116.409 1.92348 116.408 1.92621C116.406 1.93167 116.403 1.93954 116.399 1.94978C116.392 1.97026 116.381 2.00023 116.367 2.03948C116.339 2.11797 116.298 2.23355 116.243 2.38435L112.482 1.02341C112.535 0.878058 112.574 0.767821 112.6 0.694541C112.613 0.657902 112.623 0.630503 112.63 0.612576C112.633 0.603613 112.635 0.597017 112.637 0.592818C112.637 0.590719 112.638 0.589219 112.638 0.588322C112.638 0.587873 112.638 0.587575 112.638 0.587428C112.638 0.587355 112.638 0.587319 112.638 0.587322C112.638 0.587323 112.638 0.587333 112.638 0.587353C112.638 0.587363 112.638 0.587376 112.638 0.587391C112.638 0.587398 112.638 0.587411 112.638 0.587414C112.638 0.587428 112.638 0.587442 114.525 1.25226ZM115.909 3.29882C115.856 3.44056 115.8 3.59251 115.74 3.75433L111.991 2.35792C112.05 2.19945 112.106 2.05083 112.157 1.91238L115.909 3.29882ZM115.866 3.05612V13.2546H111.866V3.05612H115.866ZM115.866 33.6516V43.8501H111.866V33.6516H115.866ZM113.899 41.8504C116.21 41.8893 118.481 42.0203 120.7 42.2374L120.31 46.2184C118.199 46.0119 116.036 45.8869 113.832 45.8499L113.899 41.8504ZM134.111 44.7479C138.827 46.0961 143.122 47.878 146.823 50.0176L144.821 53.4806C141.441 51.5265 137.456 49.8644 133.012 48.5938L134.111 44.7479ZM157.402 59.2966C158.845 61.3886 159.885 63.639 160.423 66.0137L156.522 66.8984C156.11 65.0805 155.301 63.2947 154.109 61.5685L157.402 59.2966ZM159.268 64.6209C161.7 65.6747 164.087 66.8077 166.425 68.0164L164.588 71.5696C162.331 70.4027 160.026 69.3088 157.678 68.2912L159.268 64.6209ZM179.959 76.2379C184.295 79.2994 188.395 82.6473 192.231 86.2527L189.491 89.1671C185.792 85.6898 181.836 82.4598 177.652 79.5053L179.959 76.2379ZM202.977 97.8956C206.279 102.029 209.278 106.396 211.944 110.966L208.489 112.981C205.922 108.582 203.033 104.375 199.851 100.392L202.977 97.8956ZM218.896 125.217C220.841 130.104 222.43 135.16 223.631 140.355L219.734 141.255C218.579 136.26 217.051 131.398 215.179 126.697L218.896 125.217ZM226.018 156.036C226.215 158.655 226.315 161.3 226.315 163.966H222.315C222.315 161.4 222.219 158.856 222.029 156.336L226.018 156.036ZM226.315 163.966C226.315 166.919 226.192 169.845 225.951 172.739L221.965 172.407C222.197 169.623 222.315 166.808 222.315 163.966H226.315ZM223.034 190.027C221.568 195.736 219.631 201.268 217.266 206.583L213.611 204.957C215.887 199.843 217.75 194.522 219.159 189.032L223.034 190.027ZM208.848 221.957C205.634 226.836 202.027 231.453 198.07 235.769L195.121 233.065C198.936 228.905 202.412 224.455 205.508 219.756L208.848 221.957ZM185.262 247.714C180.719 251.336 175.876 254.627 170.776 257.547L168.788 254.076C173.712 251.257 178.385 248.081 182.769 244.587L185.262 247.714ZM154.973 265.072C149.581 267.156 143.986 268.859 138.223 270.144L137.352 266.24C142.92 264.998 148.324 263.354 153.53 261.341L154.973 265.072ZM120.912 272.684C118.022 272.893 115.103 273 112.158 273V269C115.006 269 117.829 268.897 120.623 268.694L120.912 272.684ZM112.158 273C109.212 273 106.293 272.893 103.403 272.684L103.692 268.694C106.486 268.897 109.309 269 112.158 269V273ZM86.092 270.144C80.3292 268.859 74.7338 267.156 69.3427 265.072L70.7853 261.341C75.9913 263.354 81.3956 264.998 86.9629 266.24L86.092 270.144ZM53.5395 257.547C48.4389 254.627 43.5966 251.336 39.0531 247.714L41.5465 244.587C45.9301 248.081 50.6034 251.257 55.5272 254.076L53.5395 257.547ZM26.2455 235.769C22.2884 231.453 18.6814 226.836 15.4674 221.957L18.8077 219.756C21.9032 224.455 25.3788 228.905 29.1938 233.065L26.2455 235.769ZM7.04935 206.583C4.68417 201.268 2.7477 195.736 1.28172 190.027L5.15604 189.032C6.5657 194.522 8.42816 199.843 10.7038 204.957L7.04935 206.583ZM-1.6357 172.739C-1.87701 169.845 -1.99995 166.919 -1.99995 163.966H2.00005C2.00005 166.808 2.11836 169.623 2.35046 172.407L-1.6357 172.739ZM-1.99995 163.966C-1.99995 161.26 -1.89667 158.576 -1.69359 155.918L2.29478 156.223C2.09946 158.779 2.00005 161.362 2.00005 163.966H-1.99995ZM0.764053 140.012C2.00038 134.745 3.63567 129.622 5.6378 124.674L9.34578 126.174C7.41972 130.934 5.84706 135.861 4.65822 140.926L0.764053 140.012ZM12.7867 110.259C15.5269 105.644 18.609 101.239 21.9996 97.0756L25.1011 99.6016C21.8334 103.614 18.8646 107.857 16.2262 112.301L12.7867 110.259ZM33.0271 85.3767C34.998 83.566 37.0367 81.8224 39.1392 80.1497L41.6295 83.28C39.6009 84.8938 37.6343 86.5758 35.7334 88.3223L33.0271 85.3767ZM40.1155 83.6967C39.3163 83.5883 38.5362 83.4335 37.779 83.2297L38.8184 79.3671C39.401 79.5239 40.0129 79.6461 40.6532 79.733L40.1155 83.6967ZM33.3245 81.2605C32.6342 80.8079 31.9841 80.2954 31.3788 79.7223L34.1289 76.8177C34.5598 77.2256 35.0231 77.5911 35.5177 77.9154L33.3245 81.2605ZM31.3788 79.7223C29.3643 77.8149 28.0193 75.4023 27.2708 72.6707L31.1286 71.6135C31.7099 73.735 32.7131 75.4771 34.1289 76.8177L31.3788 79.7223ZM27.9313 57.4434C29.1329 53.0884 31.0903 48.4753 33.7158 43.819L37.2001 45.7836C34.7069 50.2054 32.8883 54.5169 31.7872 58.5073L27.9313 57.4434ZM42.0189 31.7182C43.5305 29.8609 45.1433 28.0225 46.8527 26.2171L49.7573 28.9672C48.1162 30.7005 46.5695 32.4638 45.1213 34.2431L42.0189 31.7182ZM46.8527 26.2171C48.82 24.1393 51.1056 22.2157 53.6062 20.4363L55.9254 23.6954C53.5913 25.3563 51.5123 27.1137 49.7573 28.9672L46.8527 26.2171ZM68.8696 12.0547C74.1946 9.73363 79.7525 7.7679 85.0682 6.12769L86.2475 9.94987C81.0354 11.5581 75.6235 13.4743 70.4679 15.7215L68.8696 12.0547ZM101.682 1.72557C105.055 0.965541 107.936 0.392612 110.083 -0.00729378L110.816 3.92507C108.711 4.31716 105.879 4.88017 102.561 5.62772L101.682 1.72557ZM108.45 1.95889V1.46917H112.45V1.95889H108.45ZM108.45 0.489722V0H112.45V0.489722H108.45ZM108.45 43.8616V35.8258H112.45V43.8616H108.45ZM108.45 19.7541V11.7183H112.45V19.7541H108.45ZM112.298 12.4831C111.198 15.1394 109.898 18.1708 108.423 21.4249L104.78 19.7729C106.235 16.5645 107.517 13.5743 108.602 10.9535L112.298 12.4831ZM99.6766 38.8797C98.0884 41.7274 96.4123 44.5598 94.6608 47.2987L91.2909 45.1438C92.9928 42.4823 94.6279 39.72 96.1833 36.9313L99.6766 38.8797ZM92.4755 44.2849C93.9165 43.9125 95.3949 43.5795 96.9061 43.2881L97.6636 47.2157C96.2323 47.4917 94.8351 47.8066 93.4762 48.1577L92.4755 44.2849ZM105.884 42.0889C107.37 41.9743 108.877 41.8982 110.402 41.8622L110.497 45.8611C109.042 45.8954 107.606 45.968 106.191 46.077L105.884 42.0889ZM110.45 0H106.45V-4H110.45V0ZM113.866 0V-4H117.866V0H113.866ZM110.45 1.95889H114.45V5.28262L111.182 5.89125L110.45 1.95889ZM48.305 27.5922L45.4004 24.842H45.4005L48.305 27.5922ZM32.7538 78.27L35.504 75.3654L32.7538 78.27ZM40.3843 81.7148L40.922 77.7511L50.2083 79.0107L42.8746 84.8451L40.3843 81.7148ZM158.473 66.456L156.882 70.1263L155.02 69.3196L154.572 67.3407L158.473 66.456ZM113.866 43.8501L113.798 47.8496L109.866 47.7834V43.8501H113.866ZM113.866 3.05612H109.866V2.33524L110.117 1.65971L113.866 3.05612ZM114.525 1.25226L113.926 -2.70269L120.511 -3.69946L118.297 2.58189L114.525 1.25226ZM113.866 1.35734L114.512 5.30479L109.866 6.06542V1.35734H113.866ZM110.45 43.8616H114.45V47.7684L110.544 47.8605L110.45 43.8616ZM110.45 11.7183L106.754 10.1887L114.45 11.7183H110.45ZM92.9758 46.2213L93.9765 50.0941L84.1233 52.6399L89.6059 44.0663L92.9758 46.2213ZM110.45 -4H111.304V4H110.45V-4ZM113.012 -4H113.866V4H113.012V-4ZM117.866 0V0.339335H109.866V0H117.866ZM117.866 1.01801V1.35734H109.866V1.01801H117.866ZM113.219 -2.59011C113.28 -2.6001 113.338 -2.60941 113.391 -2.61806L114.67 5.27906C114.621 5.28698 114.568 5.29555 114.512 5.30479L113.219 -2.59011ZM113.738 -2.67356C113.797 -2.68274 113.842 -2.68974 113.873 -2.69459C113.889 -2.69701 113.901 -2.6989 113.91 -2.70025C113.914 -2.70092 113.918 -2.70146 113.921 -2.70187C113.922 -2.70207 113.923 -2.70224 113.924 -2.70238C113.924 -2.70245 113.925 -2.70251 113.925 -2.70256C113.925 -2.70259 113.926 -2.70261 113.926 -2.70263C113.926 -2.70264 113.926 -2.70265 113.926 -2.70266C113.926 -2.70267 113.926 -2.70267 113.926 -2.70268C113.926 -2.70268 113.926 -2.70268 113.926 -2.70268C113.926 -2.70269 113.926 -2.70269 114.525 1.25226C115.123 5.20721 115.123 5.2072 115.123 5.2072C115.123 5.2072 115.123 5.20719 115.123 5.20719C115.123 5.20719 115.123 5.20718 115.124 5.20718C115.124 5.20717 115.124 5.20717 115.124 5.20716C115.124 5.20715 115.124 5.20713 115.124 5.20712C115.124 5.20711 115.124 5.2071 115.124 5.20709C115.124 5.20709 115.124 5.20712 115.124 5.20718C115.123 5.2073 115.121 5.20756 115.119 5.20794C115.113 5.20872 115.105 5.21002 115.093 5.21185C115.069 5.21552 115.032 5.22132 114.981 5.22926L113.738 -2.67356ZM114.525 1.25226C118.297 2.58189 118.297 2.58192 118.297 2.58195C118.297 2.58196 118.297 2.58199 118.297 2.58201C118.297 2.58206 118.297 2.5821 118.297 2.58215C118.297 2.58225 118.297 2.58235 118.297 2.58247C118.297 2.5827 118.297 2.58297 118.297 2.58328C118.297 2.5839 118.296 2.58466 118.296 2.58558C118.295 2.58742 118.294 2.58987 118.293 2.59291C118.291 2.599 118.288 2.6075 118.284 2.61838C118.277 2.64013 118.265 2.6714 118.251 2.71195C118.222 2.79305 118.18 2.91129 118.124 3.06482L110.601 0.342935C110.653 0.200313 110.692 0.0927437 110.717 0.0220714C110.729 -0.013264 110.739 -0.0393728 110.745 -0.0560245C110.748 -0.0643503 110.75 -0.0703115 110.751 -0.0738793C110.752 -0.0756632 110.752 -0.0768488 110.752 -0.0774323C110.752 -0.0777241 110.752 -0.0778654 110.752 -0.0778557C110.752 -0.0778508 110.752 -0.0778083 110.752 -0.0777279C110.752 -0.0776877 110.752 -0.0776381 110.752 -0.077579C110.752 -0.0775494 110.752 -0.0775175 110.752 -0.0774833C110.752 -0.0774661 110.752 -0.0774387 110.752 -0.0774301C110.752 -0.077402 110.752 -0.0773734 114.525 1.25226ZM117.785 3.99205C117.732 4.13542 117.675 4.28903 117.614 4.45254L110.117 1.65971C110.176 1.50293 110.23 1.35597 110.281 1.21915L117.785 3.99205ZM117.866 3.05612V13.2546H109.866V3.05612H117.866ZM117.866 33.6516V43.8501H109.866V33.6516H117.866ZM113.933 39.8507C116.297 39.8905 118.621 40.0246 120.894 40.2469L120.116 48.2089C118.058 48.0076 115.949 47.8858 113.798 47.8496L113.933 39.8507ZM134.661 42.8249C139.513 44.2119 143.962 46.0537 147.824 48.286L143.82 55.2121C140.6 53.3508 136.771 51.7485 132.462 50.5168L134.661 42.8249ZM159.048 58.1606C160.618 60.4355 161.772 62.9183 162.374 65.5713L154.572 67.3407C154.223 65.8012 153.528 64.2477 152.463 62.7044L159.048 58.1606ZM160.063 62.7857C162.537 63.8577 164.965 65.0102 167.343 66.2398L163.669 73.3462C161.453 72.2002 159.189 71.1258 156.882 70.1263L160.063 62.7857ZM181.113 74.6042C185.524 77.7192 189.697 81.126 193.601 84.7954L188.121 90.6244C184.49 87.2111 180.606 84.04 176.498 81.139L181.113 74.6042ZM204.54 96.6475C207.901 100.856 210.956 105.303 213.672 109.958L206.762 113.989C204.245 109.675 201.41 105.549 198.289 101.64L204.54 96.6475ZM220.754 124.477C222.736 129.457 224.356 134.609 225.579 139.904L217.785 141.706C216.653 136.81 215.156 132.045 213.321 127.437L220.754 124.477ZM228.012 155.886C228.213 158.555 228.315 161.25 228.315 163.966H220.315C220.315 161.45 220.221 158.956 220.035 156.486L228.012 155.886ZM228.315 163.966C228.315 166.975 228.19 169.956 227.944 172.905L219.972 172.241C220.199 169.512 220.315 166.752 220.315 163.966H228.315ZM224.971 190.524C223.477 196.343 221.503 201.98 219.093 207.396L211.784 204.143C214.015 199.13 215.841 193.915 217.222 188.535L224.971 190.524ZM210.518 223.057C207.245 228.026 203.572 232.727 199.544 237.12L193.647 231.714C197.391 227.631 200.801 223.265 203.837 218.656L210.518 223.057ZM186.509 249.278C181.885 252.964 176.959 256.312 171.77 259.283L167.794 252.341C172.63 249.572 177.218 246.453 181.522 243.023L186.509 249.278ZM155.694 266.937C150.21 269.057 144.519 270.789 138.659 272.096L136.917 264.288C142.386 263.068 147.695 261.453 152.809 259.476L155.694 266.937ZM121.057 274.679C118.119 274.892 115.151 275 112.158 275V267C114.958 267 117.733 266.899 120.479 266.7L121.057 274.679ZM112.158 275C109.164 275 106.196 274.892 103.259 274.679L103.837 266.7C106.582 266.899 109.357 267 112.158 267V275ZM85.6565 272.096C79.7959 270.789 74.105 269.057 68.6214 266.937L71.5066 259.476C76.6201 261.453 81.9289 263.068 87.3984 264.288L85.6565 272.096ZM52.5457 259.283C47.3567 256.312 42.4298 252.964 37.8065 249.278L42.7931 243.023C47.0969 246.453 51.6856 249.572 56.521 252.341L52.5457 259.283ZM24.7714 237.12C20.7432 232.727 17.0705 228.026 13.7972 223.057L20.4778 218.656C23.5141 223.265 26.924 227.631 30.6679 231.714L24.7714 237.12ZM5.22209 207.396C2.81218 201.98 0.838684 196.343 -0.655426 190.524L7.09319 188.535C8.4747 193.915 10.3002 199.13 12.5311 204.143L5.22209 207.396ZM-3.62878 172.905C-3.87471 169.956 -3.99995 166.975 -3.99995 163.966H4.00005C4.00005 166.752 4.11604 169.512 4.34355 172.241L-3.62878 172.905ZM-3.99995 163.966C-3.99995 161.209 -3.89471 158.474 -3.68777 155.766L4.28897 156.375C4.0975 158.881 4.00005 161.412 4.00005 163.966H-3.99995ZM-1.18304 139.555C0.0770569 134.187 1.74365 128.966 3.78381 123.924L11.1998 126.924C9.31174 131.59 7.7704 136.42 6.6053 141.383L-1.18304 139.555ZM11.067 109.238C13.8581 104.537 16.9968 100.051 20.4488 95.8126L26.6518 100.865C23.4456 104.801 20.5335 108.964 17.946 113.322L11.067 109.238ZM31.674 83.9039C33.6798 82.0611 35.7545 80.2867 37.894 78.5846L42.8746 84.8451C40.8831 86.4295 38.9524 88.0807 37.0865 89.795L31.674 83.9039ZM39.8467 85.6785C38.968 85.5594 38.1038 85.3883 37.2593 85.161L39.3382 77.4358C39.8334 77.5691 40.3612 77.6751 40.922 77.7511L39.8467 85.6785ZM32.2279 82.933C31.4397 82.4163 30.6963 81.8303 30.0037 81.1746L35.504 75.3654C35.8476 75.6907 36.2175 75.9827 36.6143 76.2428L32.2279 82.933ZM30.0037 81.1746C27.6899 78.9838 26.174 76.236 25.3419 73.1992L33.0574 71.085C33.5552 72.9013 34.3875 74.3082 35.504 75.3654L30.0037 81.1746ZM26.0033 56.9114C27.2553 52.3742 29.2821 47.6103 31.9736 42.8367L38.9422 46.7659C36.5152 51.0704 34.7659 55.2312 33.7151 59.0393L26.0033 56.9114ZM40.4678 30.4557C42.0111 28.5595 43.6568 26.6836 45.4004 24.842L51.2096 30.3423C49.6027 32.0395 48.0889 33.7652 46.6724 35.5056L40.4678 30.4557ZM45.4005 24.842C47.4739 22.6521 49.8628 20.6455 52.4467 18.8068L57.085 25.3249C54.8342 26.9266 52.8585 28.6009 51.2096 30.3423L45.4005 24.842ZM68.0704 10.2213C73.4802 7.8633 79.111 5.87278 84.4785 4.2166L86.8372 11.861C81.6769 13.4532 76.3379 15.3446 71.267 17.5549L68.0704 10.2213ZM101.242 -0.225504C104.643 -0.991776 107.549 -1.56966 109.717 -1.97348L111.182 5.89125C109.098 6.27943 106.291 6.83749 103.001 7.57879L101.242 -0.225504ZM106.45 1.95889V1.46917H114.45V1.95889H106.45ZM106.45 0.489722V0H114.45V0.489722H106.45ZM106.45 43.8616V35.8258H114.45V43.8616H106.45ZM106.45 19.7541V11.7183H114.45V19.7541H106.45ZM114.146 13.2479C113.039 15.9219 111.73 18.9739 110.244 22.2509L102.958 18.9469C104.403 15.7613 105.676 12.7918 106.754 10.1887L114.146 13.2479ZM101.423 39.854C99.8186 42.7311 98.122 45.5985 96.3457 48.3762L89.6059 44.0663C91.2831 41.4436 92.8976 38.7163 94.4366 35.9571L101.423 39.854ZM91.9752 42.3485C93.4573 41.9655 94.9762 41.6234 96.5273 41.3242L98.0424 49.1795C96.651 49.4478 95.2944 49.7536 93.9765 50.0941L91.9752 42.3485ZM105.73 40.0948C107.252 39.9775 108.795 39.8996 110.355 39.8628L110.544 47.8605C109.125 47.894 107.724 47.9648 106.345 48.0711L105.73 40.0948Z" fill="white" mask="url(#path-1-inside-1_393_1759)"/>
<path d="M77.994 74.8667C55.7464 110.29 44.0961 133.629 53.2283 176.207" stroke="white" stroke-width="4" stroke-linecap="round" stroke-dasharray="22.77 22.77"/>
</svg>
