<svg width="203" height="240" viewBox="0 0 203 240" fill="none" xmlns="http://www.w3.org/2000/svg">
<path d="M2.5 122.148L35.8014 122.148" stroke="white" stroke-width="4" stroke-linecap="round" stroke-dasharray="34.45 45.93"/>
<path d="M33.5048 85.4019L48.433 91.1435" stroke="white" stroke-width="4" stroke-linecap="round"/>
<path d="M86.3278 32.5789L92.0694 48.6555" stroke="white" stroke-width="4" stroke-linecap="round"/>
<path d="M38.0981 37.1722L62.2129 61.2871" stroke="white" stroke-width="4" stroke-linecap="round" stroke-dasharray="34.45 45.93"/>
<path d="M212.644 85.4019L197.715 91.1435" stroke="white" stroke-width="4" stroke-linecap="round"/>
<path d="M159.821 32.5789L154.079 48.6555" stroke="white" stroke-width="4" stroke-linecap="round"/>
<path d="M208.05 37.1722L183.935 61.2871" stroke="white" stroke-width="4" stroke-linecap="round" stroke-dasharray="34.45 45.93"/>
<path d="M123.074 2.72247V36.0239" stroke="white" stroke-width="4" stroke-linecap="round" stroke-dasharray="34.45 45.93"/>
<path fill-rule="evenodd" clip-rule="evenodd" d="M186.736 123.264L188.735 123.307C188.787 120.949 188.704 118.565 188.482 116.161C188.26 113.758 187.903 111.399 187.42 109.09L185.462 109.5L183.505 109.91C183.957 112.069 184.291 114.278 184.499 116.53C184.707 118.781 184.784 121.014 184.736 123.22L186.736 123.264ZM178.982 92.2984L180.723 91.3147C178.366 87.1419 175.545 83.2732 172.334 79.769L170.859 81.1202L169.385 82.4715C172.394 85.7549 175.035 89.3776 177.241 93.2821L178.982 92.2984ZM156.544 69.5476L157.558 67.8235C153.476 65.4236 149.109 63.461 144.528 61.9946L143.918 63.8993L143.309 65.8041C147.605 67.1796 151.702 69.0206 155.531 71.2717L156.544 69.5476ZM125.745 60.9209L125.777 58.9211C123.419 58.8838 121.035 58.9732 118.631 59.1956C116.228 59.4179 113.868 59.7674 111.557 60.2366L111.955 62.1966L112.353 64.1566C114.523 63.716 116.74 63.3876 119 63.1786C121.259 62.9695 123.499 62.8856 125.713 62.9206L125.745 60.9209ZM94.6364 68.4584L93.6875 66.6978C89.4539 68.9796 85.5208 71.7101 81.9483 74.8181L83.261 76.327L84.5738 77.8359C87.9247 74.9206 91.614 72.3593 95.5853 70.2189L94.6364 68.4584ZM71.3118 90.3293L69.6144 89.2716C67.1007 93.3053 65.037 97.626 63.4853 102.16L65.3776 102.808L67.2698 103.455C68.7218 99.2126 70.6538 95.1668 73.0092 91.3871L71.3118 90.3293ZM60.4164 128.009C60.1941 125.605 60.1119 123.221 60.1633 120.863L62.1629 120.906L64.1624 120.95C64.1143 123.156 64.1911 125.389 64.3994 127.64C64.6077 129.892 64.9417 132.1 65.3937 134.26L63.4362 134.67L61.4786 135.08C60.9955 132.771 60.6388 130.412 60.4164 128.009ZM69.9164 151.871L68.1751 152.855C69.6422 155.452 71.2892 157.932 73.0981 160.279L77.8779 159.837C75.54 157.061 73.4543 154.068 71.6578 150.888L69.9164 151.871ZM181.936 150.211L177.156 150.653C178.945 147.496 180.446 144.17 181.629 140.714L183.521 141.362L185.413 142.01C184.447 144.832 183.283 147.571 181.936 150.211Z" fill="white"/>
<path d="M18.5765 154.301C30.0598 146.646 41.543 146.646 53.0263 154.301C64.5096 161.957 75.9928 161.957 87.4761 154.301C98.9593 146.646 110.443 146.646 121.926 154.301C133.409 161.957 144.892 161.957 156.376 154.301C167.859 146.646 179.342 146.646 190.825 154.301C202.309 161.957 213.792 161.957 225.275 154.301" stroke="white" stroke-width="4" stroke-dasharray="45.93 27.56"/>
<path d="M18.5765 195.785C30.0598 188.129 41.543 188.129 53.0263 195.785C64.5096 203.44 75.9928 203.44 87.4761 195.785C98.9593 188.129 110.443 188.129 121.926 195.785C133.409 203.44 144.892 203.44 156.376 195.785C167.859 188.129 179.342 188.129 190.825 195.785C202.309 203.44 213.792 203.44 225.275 195.785" stroke="white" stroke-width="4" stroke-dasharray="45.93 27.56"/>
</svg>
