<svg width="16" height="16" viewBox="0 0 16 16" fill="none" xmlns="http://www.w3.org/2000/svg">
<g clip-path="url(#clip0_632_2128)">
<path d="M15.1693 0.440684C15.2907 0.733541 15.2407 0.983541 15.0193 1.19068L9.73716 6.47283V14.4228C9.73716 14.7228 9.59787 14.9335 9.3193 15.055C9.22644 15.0907 9.13716 15.1085 9.05144 15.1085C8.85859 15.1085 8.69787 15.0407 8.5693 14.905L5.82644 12.1621C5.69073 12.0264 5.62287 11.8657 5.62287 11.68V6.47283L0.34073 1.19068C0.119301 0.983541 0.0693011 0.733541 0.19073 0.440684C0.312158 0.162113 0.522873 0.0228271 0.822873 0.0228271H14.5372C14.8372 0.0228271 15.0479 0.162113 15.1693 0.440684Z" fill="black"/>
</g>
<defs>
<clipPath id="clip0_632_2128">
<rect width="16" height="15.2" fill="white"/>
</clipPath>
</defs>
</svg>
