<svg width="125" height="125" viewBox="0 0 125 125" fill="none" xmlns="http://www.w3.org/2000/svg">
<path d="M110.094 56.2308C110.273 57.6045 110.395 58.9965 110.455 60.4042L109.956 60.4256C109.985 61.1134 110 61.8049 110 62.5C110 63.1951 109.985 63.8866 109.956 64.5744L110.455 64.5958C110.395 66.0035 110.273 67.3955 110.094 68.7692L109.598 68.7046C109.418 70.0845 109.179 71.4458 108.883 72.7858L109.372 72.8936C109.069 74.2648 108.708 75.6139 108.291 76.9383L107.814 76.788C107.397 78.1121 106.923 79.4111 106.396 80.6823L106.858 80.8738C106.321 82.1683 105.729 83.4341 105.085 84.6685L104.642 84.4372C104.001 85.6654 103.309 86.862 102.567 88.0243L102.988 88.2933C102.235 89.4721 101.433 90.6159 100.583 91.7216L100.187 91.417C99.344 92.5136 98.4545 93.5724 97.5211 94.5904L97.8897 94.9283C96.9459 95.9578 95.9578 96.9459 94.9283 97.8897L94.5904 97.5211C93.5724 98.4545 92.5136 99.344 91.417 100.187L91.7216 100.583C90.6159 101.433 89.4722 102.235 88.2933 102.988L88.0243 102.567C86.862 103.309 85.6654 104.001 84.4372 104.642L84.6685 105.085C83.4341 105.729 82.1683 106.321 80.8738 106.858L80.6823 106.396C79.4111 106.923 78.1121 107.397 76.788 107.814L76.9383 108.291C75.6139 108.708 74.2648 109.069 72.8936 109.372L72.7858 108.883C71.4458 109.179 70.0845 109.418 68.7046 109.598L68.7692 110.094C67.3955 110.273 66.0035 110.395 64.5958 110.455L64.5744 109.956C63.8866 109.985 63.1951 110 62.5 110C61.8049 110 61.1134 109.985 60.4256 109.956L60.4042 110.455C58.9965 110.395 57.6045 110.273 56.2308 110.094L56.2954 109.598C54.9155 109.418 53.5542 109.179 52.2142 108.883L52.1064 109.372C50.7352 109.069 49.3861 108.708 48.0617 108.291L48.212 107.814C46.8879 107.397 45.5889 106.923 44.3177 106.396L44.1262 106.858C42.8318 106.321 41.5659 105.729 40.3315 105.085L40.5628 104.642C39.3346 104.001 38.138 103.309 36.9757 102.567L36.7067 102.988C35.5279 102.235 34.3841 101.433 33.2784 100.583L33.583 100.187C32.4864 99.344 31.4276 98.4545 30.4096 97.5211L30.0717 97.8897C29.0422 96.9459 28.0541 95.9578 27.1103 94.9283L27.4789 94.5904C26.5455 93.5724 25.656 92.5136 24.8133 91.417L24.4168 91.7216C23.5671 90.6159 22.7645 89.4722 22.012 88.2933L22.4334 88.0243C21.6914 86.862 20.9987 85.6654 20.358 84.4372L19.9147 84.6685C19.2708 83.4341 18.679 82.1683 18.1423 80.8738L18.6041 80.6823C18.077 79.4111 17.6035 78.1121 17.1864 76.788L16.7095 76.9383C16.2923 75.6139 15.931 74.2648 15.6283 72.8936L16.1165 72.7858C15.8207 71.4458 15.5815 70.0845 15.4015 68.7046L14.9057 68.7692C14.7265 67.3955 14.6054 66.0035 14.5449 64.5958L15.0445 64.5744C15.0149 63.8866 15 63.1951 15 62.5C15 61.8049 15.0149 61.1134 15.0445 60.4256L14.5449 60.4042C14.6054 58.9965 14.7265 57.6045 14.9057 56.2308L15.4015 56.2954C15.5815 54.9155 15.8207 53.5542 16.1165 52.2142L15.6283 52.1064C15.931 50.7352 16.2923 49.3861 16.7095 48.0617L17.1864 48.212C17.6035 46.8879 18.077 45.5889 18.6041 44.3177L18.1423 44.1262C18.679 42.8318 19.2708 41.5659 19.9147 40.3315L20.358 40.5628C20.9987 39.3346 21.6914 38.138 22.4334 36.9757L22.0119 36.7067C22.7645 35.5279 23.5671 34.3841 24.4168 33.2784L24.8133 33.583C25.656 32.4864 26.5455 31.4276 27.4789 30.4096L27.1103 30.0717C28.0541 29.0422 29.0422 28.0541 30.0717 27.1103L30.4096 27.4789C31.4276 26.5455 32.4864 25.656 33.583 24.8133L33.2784 24.4168C34.3841 23.5671 35.5279 22.7645 36.7067 22.012L36.9757 22.4334C38.138 21.6914 39.3346 20.9987 40.5628 20.358L40.3315 19.9147C41.5659 19.2708 42.8317 18.679 44.1262 18.1423L44.3177 18.6041C45.5889 18.077 46.8879 17.6035 48.212 17.1864L48.0617 16.7095C49.3861 16.2923 50.7352 15.931 52.1064 15.6283L52.2142 16.1165C53.5542 15.8207 54.9155 15.5815 56.2954 15.4015L56.2308 14.9057C57.6045 14.7265 58.9965 14.6054 60.4042 14.5449L60.4256 15.0445C61.1134 15.0149 61.8049 15 62.5 15C63.1951 15 63.8866 15.0149 64.5744 15.0445L64.5958 14.5449C66.0035 14.6054 67.3955 14.7265 68.7692 14.9057L68.7046 15.4015C70.0845 15.5815 71.4458 15.8207 72.7858 16.1165L72.8936 15.6283C74.2648 15.931 75.6139 16.2923 76.9383 16.7095L76.788 17.1864C78.1121 17.6035 79.4111 18.077 80.6823 18.6041L80.8738 18.1423C82.1683 18.679 83.4341 19.2708 84.6685 19.9147L84.4372 20.358C85.6654 20.9987 86.862 21.6914 88.0243 22.4334L88.2933 22.0119C89.4721 22.7645 90.6159 23.5671 91.7216 24.4168L91.417 24.8133C92.5136 25.656 93.5724 26.5455 94.5904 27.4789L94.9283 27.1103C95.9578 28.0541 96.9459 29.0422 97.8897 30.0717L97.5211 30.4096C98.4545 31.4276 99.344 32.4864 100.187 33.583L100.583 33.2784C101.433 34.3841 102.235 35.5279 102.988 36.7067L102.567 36.9757C103.309 38.138 104.001 39.3346 104.642 40.5628L105.085 40.3315C105.729 41.5659 106.321 42.8317 106.858 44.1262L106.396 44.3177C106.923 45.5889 107.397 46.8879 107.814 48.212L108.291 48.0617C108.708 49.3861 109.069 50.7352 109.372 52.1064L108.883 52.2142C109.179 53.5542 109.418 54.9155 109.598 56.2954L110.094 56.2308Z" stroke="white" stroke-dasharray="4 4"/>
<path d="M124.206 56.4206C124.336 57.7574 124.423 59.1067 124.467 60.467L123.968 60.4831C123.989 61.1527 124 61.8251 124 62.5C124 63.1749 123.989 63.8473 123.968 64.5169L124.467 64.533C124.423 65.8933 124.336 67.2426 124.206 68.5794L123.708 68.531C123.577 69.8749 123.403 71.206 123.187 72.5231L123.681 72.604C123.461 73.946 123.198 75.2735 122.893 76.5851L122.406 76.472C122.101 77.7842 121.754 79.0803 121.367 80.3588L121.846 80.5037C121.452 81.8031 121.017 83.0844 120.542 84.3461L120.074 84.1699C119.599 85.4295 119.085 86.6694 118.532 87.8881L118.987 88.0947C118.427 89.3292 117.827 90.5421 117.19 91.7318L116.749 91.4957C116.115 92.6808 115.442 93.8426 114.734 94.9796L115.158 95.2441C114.442 96.3937 113.689 97.5182 112.901 98.6159L112.494 98.3243C111.711 99.4153 110.893 100.48 110.042 101.516L110.428 101.833C109.569 102.879 108.677 103.896 107.752 104.883L107.387 104.541C106.469 105.52 105.52 106.469 104.541 107.387L104.883 107.752C103.896 108.677 102.879 109.569 101.833 110.428L101.516 110.042C100.48 110.893 99.4153 111.711 98.3243 112.494L98.6159 112.901C97.5182 113.689 96.3937 114.442 95.2441 115.158L94.9796 114.734C93.8426 115.442 92.6808 116.115 91.4957 116.749L91.7318 117.19C90.5421 117.827 89.3292 118.427 88.0947 118.987L87.8881 118.532C86.6694 119.085 85.4295 119.599 84.1699 120.074L84.3461 120.542C83.0844 121.017 81.8031 121.452 80.5038 121.846L80.3588 121.367C79.0803 121.754 77.7842 122.101 76.472 122.406L76.5851 122.893C75.2736 123.198 73.946 123.461 72.604 123.681L72.5231 123.187C71.2061 123.403 69.8749 123.577 68.531 123.708L68.5794 124.206C67.2426 124.336 65.8933 124.423 64.533 124.467L64.5169 123.968C63.8473 123.989 63.1749 124 62.5 124C61.8251 124 61.1527 123.989 60.4831 123.968L60.467 124.467C59.1067 124.423 57.7574 124.336 56.4206 124.206L56.469 123.708C55.1251 123.577 53.794 123.403 52.4769 123.187L52.396 123.681C51.054 123.461 49.7265 123.198 48.4149 122.893L48.528 122.406C47.2158 122.101 45.9197 121.754 44.6412 121.367L44.4963 121.846C43.1969 121.452 41.9156 121.017 40.6539 120.542L40.8301 120.074C39.5705 119.599 38.3306 119.085 37.1119 118.532L36.9053 118.987C35.6708 118.427 34.4579 117.827 33.2682 117.19L33.5043 116.749C32.3192 116.115 31.1574 115.442 30.0204 114.734L29.7559 115.158C28.6063 114.442 27.4818 113.689 26.3841 112.901L26.6757 112.494C25.5847 111.711 24.5204 110.893 23.4844 110.042L23.167 110.428C22.1213 109.569 21.1041 108.677 20.1173 107.752L20.4591 107.387C19.4798 106.469 18.5306 105.52 17.613 104.541L17.2481 104.883C16.3235 103.896 15.4307 102.879 14.5715 101.833L14.9578 101.516C14.1067 100.48 13.2887 99.4153 12.5055 98.3243L12.0994 98.6159C11.3114 97.5182 10.5584 96.3937 9.84198 95.2441L10.2663 94.9796C9.55779 93.8426 8.88536 92.6808 8.25062 91.4957L7.80987 91.7318C7.17265 90.5421 6.57312 89.3292 6.01286 88.0947L6.46817 87.8881C5.9151 86.6694 5.40063 85.4295 4.92631 84.1699L4.45839 84.3461C3.98326 83.0844 3.54809 81.8031 3.15442 80.5037L3.63294 80.3588C3.2456 79.0803 2.89877 77.7842 2.59394 76.472L2.1069 76.5851C1.80223 75.2736 1.53917 73.946 1.3192 72.604L1.81262 72.5231C1.59675 71.2061 1.42271 69.8749 1.29192 68.531L0.794273 68.5794C0.664172 67.2426 0.576527 65.8933 0.532703 64.533L1.03244 64.5169C1.01087 63.8473 1 63.1749 1 62.5C1 61.8251 1.01087 61.1527 1.03244 60.4831L0.532702 60.467C0.576527 59.1067 0.664172 57.7574 0.794272 56.4206L1.29192 56.469C1.42271 55.1251 1.59675 53.7939 1.81262 52.4769L1.3192 52.396C1.53917 51.054 1.80222 49.7264 2.1069 48.4149L2.59393 48.528C2.89876 47.2158 3.2456 45.9197 3.63294 44.6412L3.15442 44.4963C3.54808 43.1969 3.98325 41.9156 4.45839 40.6539L4.92631 40.8301C5.40063 39.5705 5.9151 38.3306 6.46817 37.1119L6.01286 36.9053C6.57311 35.6708 7.17265 34.4579 7.80986 33.2682L8.25062 33.5043C8.88535 32.3192 9.55779 31.1574 10.2663 30.0204L9.84198 29.7559C10.5584 28.6063 11.3114 27.4818 12.0994 26.3841L12.5055 26.6757C13.2887 25.5847 14.1067 24.5204 14.9578 23.4844L14.5715 23.167C15.4307 22.1213 16.3235 21.1041 17.2481 20.1173L17.613 20.4591C18.5306 19.4798 19.4798 18.5306 20.4591 17.613L20.1173 17.2481C21.1041 16.3235 22.1213 15.4307 23.167 14.5715L23.4844 14.9578C24.5204 14.1067 25.5847 13.2887 26.6757 12.5055L26.3841 12.0994C27.4818 11.3114 28.6063 10.5584 29.7559 9.84197L30.0204 10.2663C31.1574 9.55779 32.3192 8.88535 33.5043 8.25062L33.2682 7.80986C34.4579 7.17265 35.6708 6.57312 36.9053 6.01286L37.1119 6.46817C38.3306 5.9151 39.5705 5.40063 40.8301 4.92631L40.6539 4.45839C41.9156 3.98326 43.1969 3.54809 44.4963 3.15442L44.6412 3.63294C45.9197 3.2456 47.2158 2.89876 48.528 2.59394L48.4149 2.1069C49.7264 1.80223 51.054 1.53917 52.396 1.3192L52.4769 1.81262C53.7939 1.59675 55.1251 1.42271 56.469 1.29192L56.4206 0.794272C57.7574 0.664172 59.1067 0.576527 60.467 0.532703L60.4831 1.03244C61.1527 1.01087 61.8251 1 62.5 1C63.1749 1 63.8473 1.01087 64.5169 1.03244L64.533 0.532702C65.8933 0.576527 67.2426 0.664172 68.5794 0.794272L68.531 1.29192C69.8749 1.42271 71.206 1.59675 72.5231 1.81262L72.604 1.3192C73.946 1.53917 75.2736 1.80222 76.5851 2.1069L76.472 2.59393C77.7842 2.89876 79.0803 3.2456 80.3588 3.63294L80.5037 3.15442C81.8031 3.54808 83.0844 3.98325 84.3461 4.45839L84.1699 4.92631C85.4295 5.40063 86.6694 5.9151 87.8881 6.46817L88.0947 6.01286C89.3292 6.57312 90.5421 7.17265 91.7318 7.80986L91.4957 8.25062C92.6808 8.88535 93.8426 9.55779 94.9796 10.2663L95.2441 9.84198C96.3937 10.5584 97.5182 11.3114 98.6159 12.0994L98.3243 12.5055C99.4153 13.2887 100.48 14.1067 101.516 14.9578L101.833 14.5715C102.879 15.4307 103.896 16.3235 104.883 17.2481L104.541 17.613C105.52 18.5306 106.469 19.4799 107.387 20.4591L107.752 20.1173C108.677 21.1041 109.569 22.1213 110.428 23.167L110.042 23.4844C110.893 24.5204 111.711 25.5847 112.494 26.6757L112.901 26.3841C113.689 27.4818 114.442 28.6063 115.158 29.7559L114.734 30.0204C115.442 31.1574 116.115 32.3192 116.749 33.5043L117.19 33.2682C117.827 34.4579 118.427 35.6708 118.987 36.9053L118.532 37.1119C119.085 38.3306 119.599 39.5705 120.074 40.8301L120.542 40.6539C121.017 41.9156 121.452 43.1969 121.846 44.4963L121.367 44.6412C121.754 45.9197 122.101 47.2158 122.406 48.528L122.893 48.4149C123.198 49.7264 123.461 51.054 123.681 52.396L123.187 52.4769C123.403 53.7939 123.577 55.1251 123.708 56.469L124.206 56.4206Z" stroke="white" stroke-dasharray="4 4"/>
<path d="M98.5 62.5C98.5 82.3822 82.3822 98.5 62.5 98.5C42.6177 98.5 26.5 82.3822 26.5 62.5C26.5 42.6177 42.6177 26.5 62.5 26.5C82.3822 26.5 98.5 42.6177 98.5 62.5Z" fill="#FF6B00"/>
</svg>
