<svg width="390" height="330" viewBox="0 40 390 360" fill="none" xmlns="http://www.w3.org/2000/svg">
<g filter="url(#filter0_f_723_2181)">
<ellipse cx="193.5" cy="223" rx="159.5" ry="143" fill="white" fill-opacity="0.5"/>
</g>
<circle cx="197" cy="231.556" r="79.1961" fill="#FDAC01" fill-opacity="0.6"/>
<circle cx="197" cy="231.556" r="59.3971" fill="#FDAC01" fill-opacity="0.6"/>
<path d="M193.7 216.698C193.7 213.053 195.178 208.449 197 208.449C198.822 208.449 200.3 214.703 200.3 218.348C200.3 221.993 198.822 221.648 197 221.648C195.178 221.648 193.7 220.343 193.7 216.698Z" fill="#474751"/>
<path d="M220.099 216.707C220.099 213.062 221.576 208.457 223.399 208.457C225.221 208.457 226.699 214.712 226.699 218.357C226.699 222.002 225.221 221.657 223.399 221.657C221.576 221.657 220.099 220.352 220.099 216.707Z" fill="#474751"/>
<path d="M200.3 238.156C201.95 242.006 209.539 247.395 226.699 238.156" stroke="#474751" stroke-width="3.29984" stroke-linecap="round"/>
<path fill-rule="evenodd" clip-rule="evenodd" d="M214.981 157.313L222.786 157.622C223.125 156.431 223.613 155.284 224.24 154.209L237.303 131.783C238.522 129.722 238.882 127.265 238.305 124.941C237.728 122.617 236.261 120.613 234.22 119.361C232.179 118.109 229.728 117.709 227.395 118.248C225.062 118.787 223.034 120.221 221.749 122.241L207.889 143.684C189.89 123.632 150.637 127.54 148.923 127.721C147.912 127.829 146.985 128.333 146.346 129.124C145.708 129.915 145.409 130.927 145.516 131.937C145.624 132.948 146.128 133.875 146.919 134.514C147.71 135.153 148.722 135.451 149.733 135.344C149.739 135.343 149.755 135.342 149.78 135.34C150.936 135.234 171.816 133.32 188.432 139.798C180.552 144.895 171.356 147.585 161.971 147.539C145.122 146.87 135.057 141.562 127.35 129.224C131.357 125.866 142.428 118.673 162.613 120.137C168.471 120.84 174.167 122.532 179.46 125.139C179.897 125.405 180.383 125.581 180.889 125.655C181.395 125.73 181.911 125.703 182.407 125.575C182.902 125.448 183.367 125.222 183.774 124.912C184.181 124.601 184.521 124.213 184.775 123.769C185.03 123.325 185.193 122.834 185.254 122.326C185.316 121.818 185.275 121.303 185.135 120.811C184.994 120.319 184.757 119.861 184.436 119.462C184.115 119.063 183.718 118.733 183.267 118.49C177.017 115.339 170.26 113.316 163.307 112.513C139.886 110.713 126.735 119.676 122.182 123.573C120.855 124.72 119.978 126.301 119.707 128.034C119.436 129.767 119.788 131.54 120.702 133.038C129.676 147.566 142.273 154.398 161.53 155.192L161.67 155.198C174.132 155.233 186.268 151.223 196.256 143.771C198.993 145.526 201.418 147.727 203.431 150.281C204.012 151.021 204.762 151.612 205.618 152.003C206.473 152.395 207.411 152.576 208.351 152.532C209.291 152.488 210.207 152.22 211.022 151.749C211.837 151.279 212.528 150.621 213.038 149.829L228.189 126.386C228.392 126.066 228.714 125.838 229.083 125.753C229.453 125.668 229.841 125.732 230.164 125.931C230.493 126.128 230.732 126.446 230.828 126.817C230.925 127.189 230.871 127.583 230.679 127.915L217.616 150.345C216.353 152.508 215.464 154.864 214.981 157.313Z" fill="#547853"/>
<defs>
<filter id="filter0_f_723_2181" x="-46" y="0" width="479" height="446" filterUnits="userSpaceOnUse" color-interpolation-filters="sRGB">
<feFlood flood-opacity="0" result="BackgroundImageFix"/>
<feBlend mode="normal" in="SourceGraphic" in2="BackgroundImageFix" result="shape"/>
<feGaussianBlur stdDeviation="40" result="effect1_foregroundBlur_723_2181"/>
</filter>
</defs>
</svg>
