<svg width="318" height="72" viewBox="0 0 318 72" fill="none" xmlns="http://www.w3.org/2000/svg">
<path d="M103.053 33.3438C99.12 34.6458 91.7253 38.8125 93.6133 45.0625L85.7467 48.1875C82.0756 43.7604 73.3173 37.875 67.6533 49.75C66.08 49.75 62.6187 51 61.36 56C59.2622 56.7812 55.224 59.5938 55.8533 64.5938L51.1333 66.9375C48.7733 65.375 43.2667 63.1875 40.12 66.9375C38.2844 64.8542 32.7253 61.1562 25.1733 63.0312C21.7644 59.3854 13.8453 54.5938 9.44 64.5938C7.86667 63.5521 3.776 62.875 0 68.5V81H118V45.0625C117.213 41.1562 113.123 33.3438 103.053 33.3438Z" fill="#BBE39B"/>
<path d="M37.76 13.0312L12.5867 41.0281C20.7849 41.8315 29.8815 43.4922 34.6133 46.625C40.6353 50.612 45.3767 51.7377 50.8798 53.0442C54.0034 53.7858 57.3723 54.5856 61.36 56C62.6187 51 66.08 49.75 67.6533 49.75C73.3173 37.875 82.0756 43.7604 85.7467 48.1875L93.6133 45.0625C91.7253 38.8125 99.12 34.6458 103.053 33.3438L80.3973 14.5937H69.2267L62.1467 18.5L53.4933 14.5937L43.2667 19.2812L37.76 13.0312Z" fill="#929292"/>
<path fill-rule="evenodd" clip-rule="evenodd" d="M12.5867 41.0281C12.5822 41.0277 12.5777 41.0273 12.5732 41.0268L12.5867 41.0281Z" fill="#D9D9D9"/>
<path d="M55.8533 64.5938C55.224 59.5938 59.2622 56.7812 61.36 56C57.3723 54.5856 54.0034 53.7858 50.8798 53.0442C45.3767 51.7377 40.6353 50.612 34.6133 46.625C29.8815 43.4922 20.7849 41.8315 12.5867 41.0281L12.5732 41.0268L12.5714 41.0266C12.2712 40.9973 11.9721 40.969 11.6745 40.9419C7.13525 40.5282 2.93769 40.375 0 40.375V68.5C3.776 62.875 7.86667 63.5521 9.44 64.5938C13.8453 54.5938 21.7644 59.3854 25.1733 63.0312C32.7253 61.1562 38.2844 64.8542 40.12 66.9375C43.2667 63.1875 48.7733 65.375 51.1333 66.9375L55.8533 64.5938Z" fill="#42AE21"/>
<path d="M48.7733 6L37.76 13.0312L43.2667 19.2812L53.4933 14.5937L62.1467 18.5L69.2267 14.5937H80.3973L70.0133 6H48.7733Z" fill="white"/>
<path d="M96.2876 37.4931C98.3536 35.5436 101.139 34.1928 103.086 33.5438C112.984 33.5604 117.015 41.227 117.8 45.0825V80.8H0.2V68.5611C2.05632 65.8159 3.97077 64.6284 5.59243 64.2414C7.22804 63.8511 8.58749 64.2692 9.32959 64.7605L9.52739 64.8915L9.62303 64.6744C10.7135 62.199 12.0123 60.6598 13.3848 59.7869C14.7546 58.9157 16.215 58.6971 17.6533 58.8935C20.5442 59.2882 23.3369 61.36 25.0272 63.1678L25.1075 63.2537L25.2215 63.2254C32.6859 61.3721 38.1724 65.0296 39.9699 67.0697L40.1237 67.2442L40.2732 67.0661C41.7881 65.2607 43.8724 64.8757 45.8954 65.1436C47.9229 65.4121 49.8611 66.3351 51.0229 67.1043L51.119 67.1679L51.2223 67.1166L55.9423 64.7729L56.0695 64.7097L56.0518 64.5688C55.7452 62.133 56.5736 60.2339 57.7374 58.8432C58.8797 57.4781 60.3432 56.6063 61.3623 56.213L61.5003 56.262L61.5283 56.1507L61.9454 55.9954L61.5996 55.8728C62.871 51.1113 66.1873 49.95 67.6533 49.95H67.7795L67.8339 49.8361C69.2391 46.8898 70.8266 45.0659 72.4598 44.043C74.0894 43.0224 75.78 42.7896 77.4155 43.0529C80.7025 43.5821 83.7704 46.1176 85.5927 48.3152L85.6855 48.427L85.8205 48.3734L93.6872 45.2484L93.8579 45.1805L93.8048 45.0047C92.8912 41.9803 94.2133 39.4505 96.2876 37.4931ZM5.49957 63.8523C3.86004 64.2436 1.99759 65.3857 0.2 67.8638V40.5752C3.12064 40.582 7.22526 40.7372 11.6564 41.1411C11.95 41.1678 12.245 41.1957 12.5413 41.2247C12.5447 41.225 12.5482 41.2253 12.5517 41.2257C12.5518 41.2257 12.5519 41.2257 12.552 41.2257L12.5535 41.2258L12.5537 41.2259L12.5672 41.2272C16.661 41.6284 20.9754 42.2433 24.8545 43.1478C28.7377 44.0533 32.167 45.2452 34.5029 46.7918C40.5545 50.7984 45.3247 51.9309 50.8286 53.2376L50.8336 53.2388C53.8275 53.9496 57.0383 54.712 60.8014 56.0161C59.7736 56.4865 58.475 57.3385 57.4306 58.5865C56.2308 60.0203 55.3646 61.9805 55.6382 64.4773L51.147 66.7074C49.9399 65.9275 47.9948 65.0181 45.9479 64.747C43.9047 64.4765 41.7342 64.8409 40.1166 66.6366C38.1131 64.4995 32.623 61.0253 25.239 62.8093C23.5122 60.9908 20.6829 58.9034 17.7074 58.4972C16.1891 58.2899 14.6307 58.5205 13.1701 59.4494C11.7529 60.3508 10.4441 61.8992 9.35053 64.3041C8.49441 63.8147 7.11423 63.467 5.49957 63.8523ZM24.9453 42.7583C21.1679 41.8774 16.9864 41.271 12.9994 40.8682L37.7585 13.3321L43.1166 19.4135L43.2149 19.525L43.35 19.4631L53.494 14.8135L62.0644 18.6823L62.1556 18.7235L62.2433 18.6751L69.2782 14.7937H80.3253L102.651 33.2704C100.689 33.9666 98.0262 35.3026 96.0131 37.2022C93.9178 39.1793 92.5002 41.7968 93.3708 44.9437L85.8073 47.9482C83.947 45.7437 80.8481 43.2004 77.4791 42.658C75.7582 42.381 73.9678 42.6267 72.2475 43.704C70.5522 44.7658 68.9402 46.6256 67.5263 49.5525C65.841 49.6163 62.5134 50.9472 61.2214 55.739C57.313 54.366 53.9977 53.5789 50.9284 52.8502L50.926 52.8496C45.4258 51.5438 40.7142 50.4244 34.7237 46.4582C32.3278 44.872 28.8429 43.6671 24.9453 42.7583ZM43.3185 19.0375L38.0644 13.0742L48.8317 6.2H69.9413L79.842 14.3937H69.2267H69.1752L69.1301 14.4186L62.1377 18.2765L53.5756 14.4115L53.4927 14.374L53.41 14.4119L43.3185 19.0375Z" stroke="black" stroke-width="0.4"/>
<path d="M136 1C127.057 1 124.534 8.18391 123.961 12.2069H147.179C147.466 8.18391 144.943 1 136 1Z" fill="#ADB9C8"/>
<path d="M149.759 17.3793V12.2069H147.179H123.961H122.241V17.3793H124.821H133.42H138.58H147.179H149.759Z" fill="#92A2B5"/>
<path d="M124.821 17.3793V28.5862C125.368 29.2079 126.016 29.8585 126.745 30.495C131.256 34.433 138.887 37.8293 145.186 30.495C145.868 29.7013 146.534 28.782 147.179 27.7241V17.3793H138.58L139.44 22.5517L140.3 27.7241H131.7L132.56 22.5517L133.42 17.3793H124.821Z" fill="#ADB9C8"/>
<path d="M133.42 17.3793L132.56 22.5517L131.7 27.7241H140.3L139.44 22.5517L138.58 17.3793H133.42Z" fill="#92A2B5"/>
<path d="M149.759 17.3793H147.179V27.7241H149.759C154.575 22.2069 151.765 18.5287 149.759 17.3793Z" fill="#ADB9C8"/>
<path d="M122.241 17.3793C120.234 18.8161 117.425 22.8966 122.241 27.7241L124.821 28.5862V17.3793H122.241Z" fill="#ADB9C8"/>
<path d="M128.261 48.4138V57.8965C126.978 59.6107 124.08 59.6384 121.381 59.1378V76H150.619V64.0429C148.125 64.3717 145.381 64.3033 143.739 63.069V53.5862C143.514 52.9083 144.6 51.8038 149.759 51.6984C152.511 39.1536 147.857 32.3358 145.186 30.495C138.887 37.8293 131.256 34.433 126.745 30.495C124.383 32.0453 120.005 37.4211 121.381 46.5213C126.296 46.5923 128.031 47.7239 128.261 48.4138Z" fill="#ADB9C8"/>
<path d="M128.261 57.8965V48.4138C128.031 47.7239 126.296 46.5923 121.381 46.5213C120.155 46.5036 118.73 46.5519 117.081 46.6897L117.081 57.8965C118.167 58.3317 119.737 58.8328 121.381 59.1378C124.08 59.6384 126.978 59.6107 128.261 57.8965Z" fill="#ADB9C8"/>
<path d="M143.739 53.5862V63.069C145.381 64.3033 148.125 64.3717 150.619 64.0429C152.305 63.8206 153.878 63.4167 154.919 63.069V51.8621C152.861 51.7148 151.16 51.6697 149.759 51.6984C144.6 51.8038 143.514 52.9083 143.739 53.5862Z" fill="#ADB9C8"/>
<path d="M124.821 28.5862L122.241 27.7241C120.234 28.8736 116.393 32.0345 117.081 35.4828L117.081 46.6897C118.73 46.5519 120.155 46.5036 121.381 46.5213C120.005 37.4211 124.383 32.0453 126.745 30.495C126.016 29.8585 125.368 29.2079 124.821 28.5862Z" fill="#92A2B5"/>
<path d="M149.759 27.7241H147.179C146.534 28.782 145.868 29.7013 145.186 30.495C147.857 32.3358 152.511 39.1536 149.759 51.6984C151.16 51.6697 152.861 51.7148 154.919 51.8621V35.4828C155.607 31.3448 151.765 28.5862 149.759 27.7241Z" fill="#92A2B5"/>
<path d="M149.759 17.3793V12.2069H147.179M149.759 17.3793H147.179M149.759 17.3793C151.765 18.5287 154.575 22.2069 149.759 27.7241M122.241 17.3793V12.2069H123.961M122.241 17.3793C120.234 18.8161 117.425 22.8966 122.241 27.7241M122.241 17.3793H124.821M122.241 27.7241L124.821 28.5862M122.241 27.7241C120.234 28.8736 116.393 32.0345 117.081 35.4828L117.081 46.6897M124.821 28.5862V17.3793M124.821 28.5862C125.368 29.2079 126.016 29.8585 126.745 30.495M124.821 17.3793H133.42M147.179 27.7241V17.3793M147.179 27.7241H149.759M147.179 27.7241C146.534 28.782 145.868 29.7013 145.186 30.495M147.179 17.3793H138.58M149.759 27.7241C151.765 28.5862 155.607 31.3448 154.919 35.4828V51.8621M117.081 46.6897L117.081 57.8965C118.167 58.3317 119.737 58.8328 121.381 59.1378M117.081 46.6897C118.73 46.5519 120.155 46.5036 121.381 46.5213M126.745 30.495C124.383 32.0453 120.005 37.4211 121.381 46.5213M126.745 30.495C131.256 34.433 138.887 37.8293 145.186 30.495M121.381 46.5213C126.296 46.5923 128.031 47.7239 128.261 48.4138V57.8965C126.978 59.6107 124.08 59.6384 121.381 59.1378M154.919 51.8621V63.069C153.878 63.4167 152.305 63.8206 150.619 64.0429M154.919 51.8621C152.861 51.7148 151.16 51.6697 149.759 51.6984M145.186 30.495C147.857 32.3358 152.511 39.1536 149.759 51.6984M149.759 51.6984C144.6 51.8038 143.514 52.9083 143.739 53.5862V63.069C145.381 64.3033 148.125 64.3717 150.619 64.0429M121.381 59.1378V76H150.619V64.0429M123.961 12.2069C124.534 8.18391 127.057 1 136 1C144.943 1 147.466 8.18391 147.179 12.2069M123.961 12.2069H147.179M133.42 17.3793H138.58M133.42 17.3793L132.56 22.5517M138.58 17.3793L139.44 22.5517M139.44 22.5517L140.3 27.7241H131.7L132.56 22.5517M139.44 22.5517H142.88M132.56 22.5517H129.121" stroke="black" stroke-width="0.4"/>
<path d="M209.897 34.311C210.918 34.125 212.159 34.234 213.5 35C214.88 33.0072 215.422 31.3424 215.482 30H208.245C208.356 31.6577 209.157 33.4786 209.897 34.311Z" fill="#FFE6C0"/>
<path d="M213.5 26H210C208.576 27.2462 208.155 28.6706 208.245 30H215.482C215.579 27.8395 214.425 26.514 213.5 26Z" fill="#23DEFF"/>
<path d="M215.5 37.5C215.5 37.1 214.167 35.6667 213.5 35C212.159 34.234 210.918 34.125 209.897 34.311C209.852 34.3193 209.807 34.3281 209.762 34.3375C208.717 34.5583 207.917 35.0833 207.5 35.5V45.5C209.9 45.1 212.1 42 212.9 40.5L215 42L218.5 44.5L224 45.875V41.75L220 40.5L215.5 37.5Z" fill="white"/>
<path d="M207.5 45.5V48.5C212.3 46.9 214.5 43.5 215 42L212.9 40.5C212.1 42 209.9 45.1 207.5 45.5Z" fill="#FF943D"/>
<path d="M201 35.5V41.5H203C203.5 41.8333 204.4 42.6 204 43V48.5H207.5V45.5V35.5C207.5 34.6667 206.4 33 204 33C201.6 33 201.167 34.6667 201 35.5Z" fill="#FF943D"/>
<path d="M201 41.5C198.2 44.3 199.833 47.3333 201 48.5H204V43C204.4 42.6 203.5 41.8333 203 41.5H201Z" fill="#EE7F23"/>
<path d="M213.5 51H207.5L206 57.5L201.5 64.5L204.5 67.5L211 59L211.625 57L213.5 51Z" fill="#23DEFF"/>
<path d="M213.583 50.5L213.5 51L211.625 57L215 60.5L215.5 69H220V58.5L213.583 50.5Z" fill="#09C3E4"/>
<path d="M220 69H215.5V72H223C223.167 71 222.8 69 220 69Z" fill="#EE7F23"/>
<path fill-rule="evenodd" clip-rule="evenodd" d="M224 45.875V41.75L228 43C228.833 44 229.7 46.1 226.5 46.5L224 45.875Z" fill="#FFE4C0"/>
<path d="M201.5 64.5L199 67L204 72C204.833 72 206.4 71.4 206 69L204.5 67.5L201.5 64.5Z" fill="#FF943D"/>
<path d="M215 42C214.5 43.5 212.3 46.9 207.5 48.5L207.5 51H213.5L213.583 50.5L215 42Z" fill="white"/>
<path d="M207.5 35.5C207.5 34.6667 206.4 33 204 33C201.6 33 201.167 34.6667 201 35.5V41.5M207.5 35.5V45.5M207.5 35.5C207.917 35.0833 208.717 34.5583 209.762 34.3375M207.5 48.5V45.5M207.5 48.5C212.3 46.9 214.5 43.5 215 42M207.5 48.5L207.5 51M207.5 48.5H204M201 41.5C198.2 44.3 199.833 47.3333 201 48.5H204M201 41.5H203C203.5 41.8333 204.4 42.6 204 43V48.5M213.5 35C214.167 35.6667 215.5 37.1 215.5 37.5L220 40.5L224 41.75M213.5 35C214.88 33.0072 215.422 31.3424 215.482 30M213.5 35C212.159 34.234 210.918 34.125 209.897 34.311M213.5 35C212.1 34.2 210.808 34.1167 209.762 34.3375M211.5 39.5L212.9 40.5M212.9 40.5C212.1 42 209.9 45.1 207.5 45.5M212.9 40.5L215 42M215 42L218.5 44.5L224 45.875M215 42L213.583 50.5M213.5 51H207.5M213.5 51L213.583 50.5M213.5 51L211.625 57M207.5 51L206 57.5L201.5 64.5M201.5 64.5L199 67L204 72C204.833 72 206.4 71.4 206 69L204.5 67.5M201.5 64.5L204.5 67.5M204.5 67.5L211 59L211.625 57M213.583 50.5L220 58.5V69M220 69H215.5M220 69C222.8 69 223.167 71 223 72H215.5V69M215.5 69L215 60.5L211.625 57M209.897 34.311C209.157 33.4786 208.356 31.6577 208.245 30M209.897 34.311C209.852 34.3193 209.807 34.3281 209.762 34.3375M208.245 30C208.155 28.6706 208.576 27.2462 210 26H213.5C214.425 26.514 215.579 27.8395 215.482 30M208.245 30H215.482M218 30H215.482M224 41.75L228 43C228.833 44 229.7 46.1 226.5 46.5L224 45.875M224 41.75V45.875" stroke="black" stroke-width="0.4"/>
<path d="M279.726 46.1976H286.294C287.148 43.3896 288.486 40.6115 290.5 39H287C283.663 40.7669 281.313 43.4892 279.726 46.1976Z" fill="#FFE6A6"/>
<path d="M285 39C282.576 39.3828 277.65 41.3482 273.5 46.1976H279.726C281.313 43.4892 283.663 40.7669 287 39H285Z" fill="#FFD365"/>
<path d="M270 51.5V53.5H273H277C277.255 51.8026 278.08 49.0076 279.726 46.1976H273.5C272.229 47.6823 271.031 49.4373 270 51.5Z" fill="#FFD365"/>
<path d="M277 53.5H283H285C285.083 51.7626 285.453 48.9655 286.294 46.1976H279.726C278.08 49.0076 277.255 51.8026 277 53.5Z" fill="#FFE6A6"/>
<path d="M293.5 39H290.5C288.486 40.6115 287.148 43.3896 286.294 46.1976H293.5V39Z" fill="#FFD365"/>
<path d="M285 53.5H293.5V46.1976H286.294C285.453 48.9655 285.083 51.7626 285 53.5Z" fill="#FFD365"/>
<path d="M297 39H293.5V46.1976H300.632C299.618 43.1123 298.044 40.4237 297 39Z" fill="#FFE6A6"/>
<path d="M293.5 53.5H301.5C301.844 51.0891 301.398 48.53 300.632 46.1976H293.5V53.5Z" fill="#FFE6A6"/>
<path d="M300.5 39H297C298.044 40.4237 299.618 43.1123 300.632 46.1976H303.976H307.321C305.07 42.261 302.152 39.881 300.5 39Z" fill="#FFD365"/>
<path d="M301.5 53.5H304H310C309.457 50.6503 308.477 48.2188 307.321 46.1976H303.976H300.632C301.398 48.53 301.844 51.0891 301.5 53.5Z" fill="#FFD365"/>
<path d="M313.406 46.1976C310.808 43.0596 306.985 39.9496 302 39H300.5C302.152 39.881 305.07 42.261 307.321 46.1976H313.406Z" fill="#FFE6A6"/>
<path d="M317 53.5V52C316.39 50.5095 315.186 48.347 313.406 46.1976H307.321C308.477 48.2188 309.457 50.6503 310 53.5H314H317Z" fill="#FFE6A6"/>
<path fill-rule="evenodd" clip-rule="evenodd" d="M314 72V53.5H310H304V69.5V72H314ZM311 61H307V66.5H311V61Z" fill="#FF7839"/>
<path d="M307 61H311V66.5H307V61Z" fill="#7A7171"/>
<path d="M297.5 59.5H289.5V69.5H297.5V59.5Z" fill="#D9D9D9"/>
<path d="M289.5 59.5H297.5V69.5H298.5H301.5H304V53.5H301.5H293.5H285H283V69.5H285.75H288.5H289.5V59.5Z" fill="#FFE6A6"/>
<path d="M297.5 69.5H289.5H288.5V72H298.5V69.5H297.5Z" fill="#7A7171"/>
<path d="M288.5 72V69.5H285.75V72H288.5Z" fill="#FF7839"/>
<path d="M283 69.5V72H285.75V69.5H283Z" fill="#7A7171"/>
<path d="M301.5 72V69.5H298.5V72H301.5Z" fill="#FF7839"/>
<path d="M304 72V69.5H301.5V72H304Z" fill="#7A7171"/>
<path d="M276 61H280V66.5H276V61Z" fill="#7A7171"/>
<path fill-rule="evenodd" clip-rule="evenodd" d="M273 53.5V72H283V69.5V53.5H277H273ZM280 61H276V66.5H280V61Z" fill="#FF7839"/>
<path d="M273 53.5H270V51.5C271.031 49.4373 272.229 47.6823 273.5 46.1976M273 53.5V72H283M273 53.5H277M314 53.5H317V52C316.39 50.5095 315.186 48.347 313.406 46.1976M314 53.5V72H304M314 53.5H310M304 53.5V69.5M304 53.5H301.5M304 53.5H310M304 72V69.5M304 72H301.5M283 53.5V69.5M283 53.5H277M283 53.5H285M283 72V69.5M283 72H285.75M297.5 69.5V59.5H289.5V69.5M297.5 69.5H289.5M297.5 69.5H298.5M289.5 69.5H288.5M283 69.5H285.75M304 69.5H301.5M301.5 69.5V72M301.5 69.5H298.5M301.5 72H298.5M298.5 69.5V72M298.5 69.5H288.5M298.5 72H288.5M288.5 69.5V72M288.5 69.5H285.75M288.5 72H285.75M285.75 69.5V72M273.5 46.1976C277.65 41.3482 282.576 39.3828 285 39H287M273.5 46.1976H279.726M313.406 46.1976C310.808 43.0596 306.985 39.9496 302 39H300.5M313.406 46.1976H307.321M277 53.5C277.255 51.8026 278.08 49.0076 279.726 46.1976M287 39H290.5M287 39C283.663 40.7669 281.313 43.4892 279.726 46.1976M285 53.5H293.5M285 53.5C285.083 51.7626 285.453 48.9655 286.294 46.1976M290.5 39H293.5M290.5 39C288.486 40.6115 287.148 43.3896 286.294 46.1976M293.5 39H297M293.5 39V46.1976M293.5 53.5H301.5M293.5 53.5V46.1976M297 39H300.5M297 39C298.044 40.4237 299.618 43.1123 300.632 46.1976M301.5 53.5C301.844 51.0891 301.398 48.53 300.632 46.1976M300.5 39C302.152 39.881 305.07 42.261 307.321 46.1976M310 53.5C309.457 50.6503 308.477 48.2188 307.321 46.1976M279.726 46.1976H286.294M286.294 46.1976H293.5M293.5 46.1976H300.632M300.632 46.1976H303.976H307.321M307 61H311V66.5H307V61ZM276 61H280V66.5H276V61Z" stroke="black" stroke-width="0.4"/>
</svg>
