<svg width="24" height="24" viewBox="0 0 24 24" fill="none" xmlns="http://www.w3.org/2000/svg">
<g clip-path="url(#clip0_738_2594)">
<path d="M11.2957 19.2522C11.087 19.2522 10.8783 19.1739 10.7217 19.0435C10.4609 18.8348 10.3304 18.4957 10.4087 18.1565L11.687 11.6348L10.9826 12.0261C10.5391 12.2609 9.9913 12.1304 9.73043 11.687C9.49565 11.2435 9.62609 10.6957 10.0696 10.4348L12.4957 9.05217C12.8087 8.86957 13.2 8.89565 13.487 9.10435C13.7739 9.31304 13.9043 9.67826 13.8522 10.0174L12.5217 16.8L13.6174 16.3304C14.087 16.1217 14.6087 16.3304 14.8174 16.8C15.0261 17.2696 14.8174 17.7913 14.3478 18L11.6609 19.1739C11.5565 19.2261 11.4261 19.2522 11.2957 19.2522ZM13.8783 6.78261C14.113 6.54783 14.2696 6.2087 14.2696 5.86957C14.2696 5.53043 14.1391 5.1913 13.8783 4.95652C13.6435 4.72174 13.3043 4.56522 12.9652 4.56522C12.6261 4.56522 12.287 4.69565 12.0522 4.95652C11.8174 5.1913 11.6609 5.53043 11.6609 5.86957C11.6609 6.2087 11.7913 6.54783 12.0522 6.78261C12.287 7.01739 12.6261 7.17391 12.9652 7.17391C13.3043 7.17391 13.6435 7.04348 13.8783 6.78261ZM24 12C24 5.37391 18.6261 0 12 0C5.37391 0 0 5.37391 0 12C0 18.6261 5.37391 24 12 24C18.6261 24 24 18.6261 24 12ZM21.913 12C21.913 17.4783 17.4783 21.913 12 21.913C6.52174 21.913 2.08696 17.4783 2.08696 12C2.08696 6.52174 6.52174 2.08696 12 2.08696C17.4783 2.08696 21.913 6.52174 21.913 12Z" fill="#87888D"/>
</g>
<defs>
<clipPath id="clip0_738_2594">
<rect width="24" height="24" fill="white"/>
</clipPath>
</defs>
</svg>
