<svg width="64" height="64" viewBox="0 0 64 64" fill="none" xmlns="http://www.w3.org/2000/svg">
<path d="M30.62 54C30.4649 54.3455 30.3508 54.708 30.28 55.08C30.2124 55.4089 30.1822 55.7443 30.19 56.08L25.52 55.18L20 54.19L23.81 34.5L28.81 8.74L29.73 4L39.92 6C39.7834 6.32124 39.6828 6.65662 39.62 7C39.4865 7.70453 39.5019 8.42921 39.6652 9.12744C39.8285 9.82567 40.1361 10.482 40.5682 11.0543C41.0003 11.6265 41.5473 12.102 42.1742 12.4502C42.801 12.7985 43.4938 13.0117 44.208 13.0761C44.9221 13.1406 45.6419 13.0549 46.321 12.8246C47 12.5943 47.6234 12.2245 48.151 11.7389C48.6786 11.2533 49.0988 10.6626 49.3845 10.0049C49.6702 9.34725 49.8152 8.63705 49.81 7.92L60 9.81L50.27 60L40.08 58C40.2087 57.6768 40.3058 57.3419 40.37 57C40.374 56.9201 40.374 56.8399 40.37 56.76C40.4991 55.5538 40.1974 54.3408 39.5183 53.3356C38.8392 52.3304 37.8264 51.5978 36.6592 51.2674C35.492 50.937 34.2455 51.03 33.1403 51.5301C32.035 52.0302 31.1423 52.9051 30.62 54Z" fill="#0BA5CE"/>
<path d="M10 48L11.85 51.95L16 52.58L13 55.66L13.71 60L10 57.95L6.29 60L7 55.66L4 52.58L8.15 51.95L10 48Z" fill="#4F514F"/>
<path d="M10 13L11.85 16.95L16 17.58L13 20.66L13.71 25L10 22.95L6.29 25L7 20.66L4 17.58L8.15 16.95L10 13Z" fill="#11BF08"/>
<path d="M42.41 18.93L43.046 15.997L45.001 16.421L44.365 19.353L42.41 18.93ZM38.12 33.577L38.755 30.646L40.709 31.069L40.074 34.001L38.12 33.577ZM37.22 46.59C36.636 46.7641 36.0365 46.8813 35.43 46.94L35.64 48.94C36.3641 48.8618 37.0801 48.7213 37.78 48.52L37.22 46.59ZM33.6 47C32.988 46.9616 32.3797 46.8781 31.78 46.75L31.35 48.75C32.0521 48.8996 32.7639 48.9998 33.48 49.05L33.6 47ZM27.34 47.1C27.9611 47.4664 28.6097 47.784 29.28 48.05L30 46.19C29.4274 45.9687 28.8753 45.6976 28.35 45.38L27.34 47.1ZM39.82 47.7C40.477 47.3477 41.094 46.9252 41.66 46.44L40.34 44.93C39.896 45.3218 39.4057 45.6576 38.88 45.93L39.82 47.7ZM14.3 35.71C13.8646 35.2877 13.4696 34.8257 13.12 34.33L11.49 35.48C11.9082 36.0753 12.3802 36.631 12.9 37.14L14.3 35.71ZM8.99999 27.36V27.7C8.99886 28.309 9.04231 28.9173 9.12999 29.52L11.13 29.24C11.0518 28.7302 11.0084 28.2157 11 27.7V27.41L8.99999 27.36ZM12.18 32.75C11.911 32.1852 11.6869 31.6001 11.51 31L9.58999 31.58C9.80332 32.2654 10.0674 32.9339 10.38 33.58L12.18 32.75ZM17.28 37.61C16.7212 37.4133 16.1876 37.1515 15.69 36.83L14.61 38.51C15.2374 38.9166 15.9082 39.252 16.61 39.51L17.28 37.61Z" fill="#4F514F"/>
<path d="M22 37L23.85 40.95L28 41.58L25 44.66L25.71 49L22 46.95L18.29 49L19 44.66L16 41.58L20.15 40.95L22 37Z" fill="#D80303"/>
<path d="M49 31L52.09 37.58L59 38.64L54 43.76L55.18 51L49 47.58L42.82 51L44 43.76L39 38.64L45.91 37.58L49 31Z" fill="#F9E708"/>
<path d="M40.73 31.86C40.4443 31.8598 40.1594 31.8296 39.88 31.77C39.3654 31.6586 38.8779 31.4467 38.4453 31.1465C38.0128 30.8462 37.6438 30.4635 37.3595 30.0204C37.0752 29.5772 36.8812 29.0823 36.7887 28.564C36.6961 28.0457 36.7067 27.5142 36.82 27L38.82 27.42C38.7641 27.6767 38.7593 27.942 38.806 28.2006C38.8526 28.4591 38.9498 28.706 39.0918 28.927C39.2339 29.148 39.4182 29.3389 39.6341 29.4887C39.8499 29.6385 40.0932 29.7443 40.35 29.8C40.6071 29.8566 40.8728 29.8618 41.1319 29.8155C41.391 29.7692 41.6384 29.6722 41.86 29.53C42.0807 29.3874 42.2711 29.2027 42.4203 28.9865C42.5696 28.7704 42.6748 28.5269 42.73 28.27C42.7866 28.0129 42.7918 27.7472 42.7455 27.4881C42.6992 27.229 42.6021 26.9815 42.46 26.76C42.3174 26.5393 42.1327 26.3489 41.9165 26.1996C41.7003 26.0504 41.4569 25.9451 41.2 25.89C40.4271 25.7217 39.7214 25.328 39.1722 24.7587C38.623 24.1895 38.255 23.4701 38.1145 22.6917C37.9741 21.9132 38.0676 21.1106 38.3833 20.3853C38.699 19.66 39.2226 19.0446 39.888 18.6169C40.5533 18.1891 41.3306 17.9682 42.1215 17.9822C42.9124 17.9961 43.6814 18.2443 44.3313 18.6952C44.9812 19.1461 45.4828 19.7796 45.7727 20.5156C46.0626 21.2516 46.1278 22.057 45.96 22.83L43.96 22.4C44.0687 21.8749 43.9644 21.328 43.67 20.8798C43.3755 20.4316 42.9151 20.1187 42.39 20.01C41.8649 19.9013 41.318 20.0056 40.8698 20.3C40.4216 20.5944 40.1087 21.0549 40 21.58C39.9387 21.843 39.9312 22.1157 39.9782 22.3817C40.0251 22.6476 40.1254 22.9013 40.2731 23.1275C40.4207 23.3536 40.6126 23.5475 40.8372 23.6975C41.0619 23.8474 41.3145 23.9503 41.58 24C42.5357 24.2176 43.3783 24.7786 43.9478 25.5765C44.5172 26.3743 44.7739 27.3535 44.669 28.3281C44.5641 29.3027 44.1051 30.2048 43.3789 30.8633C42.6528 31.5218 41.7102 31.8907 40.73 31.9V31.86Z" fill="#4F514F"/>
</svg>
