<svg width="59" height="60" viewBox="0 0 59 60" fill="none" xmlns="http://www.w3.org/2000/svg">
<circle cx="33.4881" cy="32.0639" r="18" transform="rotate(-31.4533 33.4881 32.0639)" fill="#FF6B00"/>
<path fill-rule="evenodd" clip-rule="evenodd" d="M32.444 26.5042C32.5748 26.5016 32.7033 26.4695 32.82 26.4104C32.9978 26.3229 33.1456 26.1846 33.2446 26.0129C33.3437 25.8413 33.3895 25.6441 33.3763 25.4464C33.3693 25.3164 33.3361 25.1892 33.2788 25.0723C33.2215 24.9554 33.1413 24.8512 33.0429 24.766C32.9451 24.6778 32.8306 24.61 32.7062 24.5668C32.5817 24.5235 32.4499 24.5056 32.3185 24.5142C32.1863 24.5192 32.0568 24.5522 31.9384 24.6109C31.82 24.6697 31.7154 24.7529 31.6315 24.8551C31.545 24.9523 31.4789 25.0658 31.4367 25.1889C31.3946 25.312 31.3775 25.4422 31.3862 25.572C31.3932 25.7041 31.4264 25.8335 31.4838 25.9528C31.5412 26.072 31.6216 26.1786 31.7205 26.2665C31.8191 26.3525 31.9339 26.4178 32.0582 26.4587C32.1825 26.4995 32.3137 26.515 32.444 26.5042ZM40.5224 29.2527C40.5297 29.2199 40.537 29.1872 40.5466 29.1529C40.5508 29.0863 40.5508 29.0196 40.5467 28.953C40.54 28.823 40.507 28.6956 40.4497 28.5787C40.3924 28.4617 40.312 28.3576 40.2133 28.2727C40.1155 28.1844 40.001 28.1167 39.8766 28.0734C39.7521 28.0302 39.6203 28.0123 39.4889 28.0208C39.3567 28.0278 39.2273 28.061 39.1081 28.1184C38.9889 28.1758 38.8822 28.2562 38.7944 28.3551C38.7094 28.4544 38.6444 28.5691 38.6031 28.6931C38.5254 28.9445 38.5426 29.2156 38.6512 29.4553C38.7089 29.5767 38.7907 29.685 38.8917 29.7738C38.9901 29.86 39.1049 29.9256 39.2292 29.9664C39.3535 30.0073 39.4848 30.0226 39.6152 30.0115C39.7459 30.0052 39.8742 29.9733 39.9926 29.9176C40.1732 29.8338 40.3229 29.6952 40.4203 29.5215L40.5017 29.3399C40.5097 29.3098 40.516 29.2812 40.5224 29.2527ZM41.071 23.9028C41.1707 23.7335 41.2202 23.5392 41.2136 23.3428C41.2022 23.2116 41.1652 23.084 41.1049 22.967C41.053 22.8465 40.9734 22.7398 40.8727 22.6558C40.7763 22.5684 40.6637 22.5008 40.5413 22.457C40.4132 22.4218 40.2811 22.4039 40.1483 22.4039C39.8834 22.4232 39.6368 22.5456 39.4612 22.7448C39.2857 22.944 39.1953 23.2041 39.2094 23.4692C39.2239 23.5998 39.2606 23.7269 39.3181 23.845C39.4031 24.0237 39.5396 24.1728 39.7101 24.2732C39.8806 24.3736 40.0773 24.4206 40.2747 24.4081C40.4053 24.3939 40.5325 24.3571 40.6505 24.2994C40.8254 24.2098 40.9713 24.0722 41.071 23.9028Z" fill="#474751"/>
<path fill-rule="evenodd" clip-rule="evenodd" d="M28.2996 18.5904L30.1122 17.5781C30.0239 17.261 29.9754 16.9333 29.9684 16.6025L29.8202 9.70613C29.8107 9.0698 29.5514 8.4627 29.0984 8.01577C28.6453 7.56884 28.0347 7.3179 27.3983 7.31707C26.7619 7.31623 26.1507 7.56557 25.6964 8.01131C25.2422 8.45704 24.9813 9.06346 24.9702 9.69977L24.8014 16.4839C17.9395 14.4335 9.58132 20.7637 9.21785 21.0425C9.00356 21.2071 8.86341 21.45 8.82823 21.7179C8.79305 21.9858 8.86573 22.2566 9.03027 22.4709C9.1948 22.6852 9.43773 22.8254 9.70561 22.8605C9.97348 22.8957 10.2444 22.823 10.4586 22.6585C10.46 22.6575 10.4634 22.655 10.4688 22.651C10.7162 22.4666 15.1851 19.137 19.8509 18.3012C18.771 20.5498 17.0592 22.435 14.9249 23.7262C11.0118 25.9115 7.99354 26.1037 4.53501 24.3752C4.9778 23.0581 6.49027 19.8917 11.2701 17.4242C12.6958 16.7712 14.2219 16.3647 15.7835 16.222C15.9195 16.2216 16.0541 16.194 16.1792 16.1408C16.3044 16.0875 16.4176 16.0098 16.5122 15.9121C16.6068 15.8144 16.6809 15.6988 16.7301 15.572C16.7793 15.4452 16.8027 15.3099 16.7987 15.174C16.7948 15.038 16.7637 14.9043 16.7073 14.7805C16.6508 14.6568 16.5701 14.5456 16.47 14.4536C16.3699 14.3615 16.2524 14.2905 16.1244 14.2446C15.9964 14.1987 15.8605 14.1788 15.7247 14.1863C13.8706 14.3387 12.0579 14.817 10.37 15.5993C4.81006 18.4395 3.07147 22.2957 2.57935 23.8107C2.43766 24.2548 2.45808 24.7349 2.63699 25.1654C2.81589 25.5959 3.14168 25.949 3.55642 26.1619C7.60774 28.2123 11.4127 28.0133 15.8914 25.5199L15.9187 25.5046C18.7491 23.7842 20.9448 21.1919 22.1759 18.1169C23.04 18.1353 23.895 18.2979 24.7055 18.5978C24.94 18.6851 25.1919 18.715 25.4402 18.6851C25.6886 18.6552 25.9262 18.5664 26.1332 18.426C26.3403 18.2856 26.5107 18.0977 26.6304 17.878C26.7501 17.6584 26.8154 17.4133 26.8211 17.1632L27.0052 9.74631C27.0068 9.64552 27.0481 9.54943 27.1201 9.47888C27.192 9.40832 27.2889 9.36898 27.3897 9.3694C27.4917 9.3683 27.59 9.40738 27.6634 9.47818C27.7367 9.54898 27.7793 9.64582 27.7819 9.74775L27.9306 16.645C27.9444 17.3107 28.0695 17.9682 28.2996 18.5904Z" fill="#547853"/>
</svg>
