<svg width="41" height="45" viewBox="0 0 41 45" fill="none" xmlns="http://www.w3.org/2000/svg">
<circle cx="22.9999" cy="26.5764" r="18" fill="#FF6B00"/>
<path fill-rule="evenodd" clip-rule="evenodd" d="M25.0103 21.2889C25.1233 21.3548 25.2496 21.3945 25.38 21.405C25.5774 21.4231 25.7756 21.3822 25.9497 21.2875C26.1237 21.1928 26.2657 21.0485 26.3576 20.8729C26.4194 20.7583 26.4575 20.6325 26.4697 20.5029C26.4818 20.3733 26.4677 20.2425 26.4282 20.1185C26.3908 19.9922 26.3285 19.8747 26.2449 19.7728C26.1613 19.671 26.0582 19.587 25.9416 19.5257C25.8263 19.461 25.6986 19.4216 25.5669 19.4099C25.4352 19.3982 25.3025 19.4146 25.1777 19.458C25.0532 19.4959 24.9375 19.5581 24.8374 19.6412C24.7372 19.7242 24.6546 19.8263 24.5944 19.9416C24.5314 20.058 24.4922 20.1857 24.4789 20.3173C24.4657 20.449 24.4787 20.5819 24.5172 20.7085C24.5564 20.8333 24.6202 20.949 24.7049 21.0487C24.7896 21.1483 24.8935 21.23 25.0103 21.2889ZM30.4675 27.8488C30.4909 27.8246 30.5141 27.8005 30.5402 27.7762C30.5785 27.7217 30.6134 27.6648 30.6446 27.6058C30.7068 27.4914 30.7451 27.3655 30.7572 27.2359C30.7694 27.1062 30.7551 26.9754 30.7152 26.8514C30.6778 26.7251 30.6155 26.6076 30.5319 26.5058C30.4484 26.404 30.3453 26.3199 30.2287 26.2586C30.1123 26.1956 29.9846 26.1564 29.8529 26.1431C29.7213 26.1299 29.5883 26.1429 29.4618 26.1814C29.3375 26.2217 29.2222 26.2857 29.1223 26.3699C28.9248 26.5439 28.7979 26.7841 28.7656 27.0452C28.7515 27.1789 28.7647 27.314 28.8045 27.4424C28.8435 27.5673 28.9072 27.6831 28.992 27.7828C29.0767 27.8826 29.1807 27.9642 29.2977 28.0228C29.4125 28.0856 29.5385 28.1253 29.6686 28.1395C29.8665 28.1623 30.0665 28.1221 30.2402 28.0248L30.4044 27.9124C30.4269 27.8908 30.4473 27.8697 30.4675 27.8488ZM33.7271 23.5713C33.9005 23.4788 34.0441 23.3389 34.141 23.1679C34.1997 23.0501 34.2348 22.9219 34.2443 22.7906C34.2629 22.6607 34.2507 22.5282 34.2086 22.4039C34.1721 22.2791 34.1113 22.1628 34.0297 22.0615C33.9388 21.9646 33.8354 21.8804 33.7221 21.8111C33.4861 21.6894 33.2118 21.6651 32.9581 21.7434C32.7044 21.8217 32.4916 21.9964 32.3653 22.23C32.3095 22.3489 32.2746 22.4765 32.262 22.6073C32.2412 22.804 32.2798 23.0025 32.3729 23.1771C32.466 23.3517 32.6092 23.4944 32.7842 23.5868C32.903 23.6428 33.0307 23.6778 33.1615 23.6901C33.3575 23.7049 33.5536 23.6637 33.7271 23.5713Z" fill="#474751"/>
<path fill-rule="evenodd" clip-rule="evenodd" d="M25.6043 12.3752L27.6788 12.4575C27.7689 12.141 27.8986 11.8361 28.0652 11.5503L31.5373 5.58983C31.8612 5.04203 31.9568 4.38886 31.8036 3.77119C31.6503 3.15352 31.2604 2.62085 30.7179 2.28805C30.1754 1.95526 29.5239 1.84902 28.9038 1.99224C28.2837 2.13546 27.7448 2.51666 27.4032 3.05364L23.7193 8.75286C18.9355 3.42317 8.50232 4.46196 8.04677 4.51016C7.77811 4.5387 7.53179 4.6728 7.362 4.88296C7.19222 5.09312 7.11287 5.36211 7.14141 5.63077C7.16996 5.89944 7.30406 6.14575 7.51422 6.31554C7.72437 6.48533 7.99337 6.56467 8.26203 6.53613C8.26369 6.536 8.26788 6.53562 8.27456 6.53501C8.58166 6.50686 14.1315 5.99828 18.5479 7.71995C16.4533 9.07468 14.0094 9.78966 11.5149 9.77746C7.03646 9.59981 4.36141 8.18883 2.31298 4.90964C3.37801 4.01708 6.32047 2.10516 11.6855 2.49435C13.2425 2.68125 14.7565 3.13081 16.1631 3.82392C16.2793 3.89454 16.4085 3.94117 16.543 3.96107C16.6776 3.98097 16.8147 3.97373 16.9464 3.93978C17.0781 3.90582 17.2016 3.84584 17.3098 3.76338C17.4179 3.68091 17.5084 3.57762 17.576 3.45961C17.6436 3.3416 17.6869 3.21125 17.7033 3.07625C17.7197 2.94125 17.7089 2.80433 17.6715 2.67357C17.6341 2.54281 17.571 2.42086 17.4857 2.3149C17.4005 2.20894 17.2949 2.12113 17.1752 2.05663C15.5139 1.21915 13.718 0.681329 11.8699 0.467917C5.64492 -0.0104351 2.14963 2.37194 0.939265 3.40757C0.586631 3.71253 0.35358 4.13267 0.28155 4.59329C0.20952 5.0539 0.303181 5.52513 0.545878 5.92319C2.93215 9.78644 6.28209 11.6022 11.4042 11.8119L11.4346 11.8131C14.7469 11.8224 17.9727 10.7567 20.6275 8.77599C21.355 9.24258 21.9995 9.82734 22.5345 10.5062C22.6889 10.7029 22.8882 10.8599 23.1156 10.964C23.3431 11.0681 23.5922 11.1163 23.842 11.1046C24.0919 11.0929 24.3354 11.0215 24.5521 10.8966C24.7688 10.7716 24.9524 10.5966 25.0878 10.3862L29.115 4.15524C29.1689 4.0701 29.2543 4.00966 29.3525 3.98703C29.4507 3.9644 29.5539 3.98141 29.6397 4.03435C29.7272 4.08663 29.7907 4.17125 29.8163 4.26994C29.842 4.36863 29.8278 4.47345 29.7768 4.56174L26.3046 10.5232C25.969 11.0983 25.7327 11.7244 25.6043 12.3752Z" fill="#547853"/>
</svg>
