<svg width="76" height="73" viewBox="0 0 76 73" fill="none" xmlns="http://www.w3.org/2000/svg">
<circle cx="37.1009" cy="30.114" r="19.6152" fill="#FFD479"/>
<path fill-rule="evenodd" clip-rule="evenodd" d="M39.2916 24.352C39.4147 24.4239 39.5524 24.4671 39.6945 24.4785C39.9095 24.4983 40.1256 24.4537 40.3153 24.3505C40.5049 24.2473 40.6596 24.09 40.7598 23.8987C40.8272 23.7739 40.8687 23.6367 40.8819 23.4955C40.8951 23.3543 40.8798 23.2118 40.8367 23.0766C40.796 22.939 40.7281 22.8109 40.637 22.6999C40.5459 22.589 40.4335 22.4974 40.3065 22.4306C40.1808 22.3601 40.0416 22.3171 39.8981 22.3044C39.7546 22.2917 39.6101 22.3096 39.474 22.3569C39.3384 22.3981 39.2123 22.466 39.1032 22.5564C38.994 22.6469 38.904 22.7582 38.8384 22.8839C38.7697 23.0107 38.727 23.1498 38.7125 23.2933C38.6981 23.4367 38.7123 23.5816 38.7542 23.7196C38.797 23.8556 38.8665 23.9816 38.9588 24.0902C39.0512 24.1989 39.1643 24.2879 39.2916 24.352ZM45.2385 31.5006C45.264 31.4742 45.2893 31.448 45.3178 31.4215C45.3595 31.362 45.3975 31.3 45.4315 31.2358C45.4993 31.1111 45.541 30.974 45.5542 30.8327C45.5674 30.6914 45.5519 30.5489 45.5084 30.4137C45.4677 30.2761 45.3998 30.148 45.3087 30.037C45.2177 29.9261 45.1053 29.8345 44.9782 29.7677C44.8514 29.6991 44.7123 29.6563 44.5688 29.6419C44.4253 29.6274 44.2804 29.6416 44.1425 29.6836C44.0071 29.7275 43.8814 29.7973 43.7726 29.889C43.5574 30.0785 43.4191 30.3403 43.3839 30.6249C43.3685 30.7706 43.3829 30.9178 43.4263 31.0577C43.4687 31.1939 43.5382 31.32 43.6305 31.4287C43.7229 31.5374 43.8362 31.6263 43.9637 31.6902C44.0888 31.7586 44.2262 31.8018 44.3679 31.8174C44.5835 31.8422 44.8015 31.7984 44.9908 31.6924L45.1697 31.5699C45.1942 31.5464 45.2164 31.5234 45.2385 31.5006ZM48.7906 26.8392C48.9796 26.7384 49.136 26.586 49.2416 26.3996C49.3056 26.2712 49.3438 26.1316 49.3542 25.9885C49.3745 25.847 49.3612 25.7026 49.3153 25.5671C49.2755 25.4311 49.2092 25.3043 49.1203 25.194C49.0213 25.0884 48.9086 24.9966 48.7851 24.9211C48.528 24.7884 48.2291 24.762 47.9526 24.8473C47.6762 24.9327 47.4442 25.1231 47.3066 25.3776C47.2458 25.5072 47.2077 25.6462 47.194 25.7887C47.1713 26.0031 47.2134 26.2194 47.3149 26.4097C47.4163 26.5999 47.5724 26.7555 47.7631 26.8561C47.8926 26.9172 48.0317 26.9553 48.1742 26.9687C48.3878 26.9849 48.6016 26.94 48.7906 26.8392Z" fill="white"/>
<path fill-rule="evenodd" clip-rule="evenodd" d="M39.9389 14.6385L42.1995 14.7282C42.2978 14.3833 42.439 14.051 42.6206 13.7396L46.4043 7.24426C46.7573 6.6473 46.8615 5.93552 46.6944 5.26242C46.5274 4.58933 46.1025 4.00885 45.5114 3.6462C44.9202 3.28355 44.2102 3.16777 43.5345 3.32384C42.8588 3.47991 42.2715 3.89533 41.8993 4.48049L37.8847 10.6911C32.6717 4.88318 21.3023 6.01519 20.8059 6.0677C20.5131 6.09881 20.2447 6.24494 20.0597 6.47396C19.8746 6.70297 19.7882 6.99611 19.8193 7.28888C19.8504 7.58164 19.9965 7.85006 20.2255 8.03509C20.4546 8.22011 20.7477 8.30658 21.0405 8.27547C21.0423 8.27533 21.0468 8.27491 21.0541 8.27424C21.389 8.24355 27.4367 7.6894 32.2493 9.56552C29.9668 11.0418 27.3035 11.821 24.5852 11.8077C19.7049 11.6141 16.7898 10.0765 14.5576 6.50303C15.7182 5.53038 18.9247 3.44689 24.7712 3.87101C26.4678 4.07468 28.1177 4.56458 29.6505 5.31989C29.7772 5.39684 29.9179 5.44766 30.0645 5.46935C30.2111 5.49103 30.3606 5.48314 30.5041 5.44614C30.6476 5.40914 30.7822 5.34378 30.9001 5.25391C31.0179 5.16404 31.1166 5.05149 31.1902 4.92289C31.2639 4.79429 31.311 4.65224 31.3289 4.50513C31.3467 4.35801 31.335 4.20881 31.2943 4.06632C31.2536 3.92382 31.1847 3.79092 31.0918 3.67546C30.9989 3.55999 30.8839 3.4643 30.7534 3.39401C28.9431 2.48138 26.986 1.8953 24.9721 1.66274C18.1885 1.14146 14.3796 3.73761 13.0606 4.86617C12.6763 5.1985 12.4223 5.65634 12.3439 6.15829C12.2654 6.66023 12.3674 7.17375 12.6319 7.60753C15.2323 11.8174 18.8828 13.7961 24.4644 14.0246L24.4978 14.026C28.1072 14.0361 31.6225 12.8748 34.5155 10.7163C35.3083 11.2248 36.0106 11.862 36.5936 12.6017C36.7619 12.8162 36.9791 12.9873 37.2269 13.1007C37.4748 13.2141 37.7462 13.2667 38.0185 13.2539C38.2908 13.2411 38.5561 13.1634 38.7923 13.0272C39.0284 12.891 39.2286 12.7003 39.376 12.4711L43.7646 5.68094C43.8234 5.58816 43.9164 5.52229 44.0234 5.49763C44.1305 5.47297 44.2429 5.4915 44.3364 5.5492C44.4318 5.60616 44.5009 5.69838 44.5289 5.80593C44.5569 5.91347 44.5414 6.0277 44.4858 6.12391L40.7021 12.6203C40.3363 13.247 40.0788 13.9293 39.9389 14.6385Z" fill="#FFD479"/>
<circle cx="36.8765" cy="29.7292" r="18" fill="#87888D"/>
<path fill-rule="evenodd" clip-rule="evenodd" d="M38.8869 24.4417C38.9999 24.5077 39.1262 24.5473 39.2566 24.5578C39.4539 24.5759 39.6522 24.5351 39.8262 24.4403C40.0003 24.3456 40.1423 24.2013 40.2342 24.0257C40.296 23.9112 40.3341 23.7853 40.3462 23.6557C40.3584 23.5261 40.3443 23.3954 40.3047 23.2713C40.2674 23.145 40.205 23.0275 40.1215 22.9257C40.0379 22.8238 39.9348 22.7398 39.8182 22.6785C39.7029 22.6138 39.5752 22.5744 39.4435 22.5627C39.3118 22.5511 39.1791 22.5675 39.0542 22.6108C38.9298 22.6487 38.8141 22.711 38.714 22.794C38.6138 22.877 38.5312 22.9792 38.4709 23.0944C38.408 23.2108 38.3687 23.3385 38.3555 23.4702C38.3422 23.6018 38.3552 23.7348 38.3938 23.8613C38.433 23.9861 38.4968 24.1018 38.5815 24.2015C38.6662 24.3012 38.7701 24.3829 38.8869 24.4417ZM44.3441 31.0016C44.3675 30.9774 44.3907 30.9534 44.4168 30.9291C44.4551 30.8745 44.49 30.8176 44.5212 30.7587C44.5834 30.6442 44.6217 30.5184 44.6338 30.3887C44.6459 30.259 44.6316 30.1283 44.5918 30.0043C44.5544 29.878 44.4921 29.7604 44.4085 29.6586C44.325 29.5568 44.2218 29.4727 44.1052 29.4114C43.9889 29.3485 43.8612 29.3092 43.7295 29.296C43.5979 29.2827 43.4649 29.2957 43.3383 29.3342C43.214 29.3745 43.0988 29.4386 42.9989 29.5228C42.8014 29.6967 42.6745 29.9369 42.6422 30.198C42.6281 30.3317 42.6413 30.4669 42.6811 30.5952C42.72 30.7202 42.7838 30.836 42.8685 30.9357C42.9533 31.0354 43.0572 31.117 43.1742 31.1756C43.2891 31.2384 43.4151 31.2781 43.5452 31.2924C43.7431 31.3151 43.943 31.275 44.1168 31.1776L44.2809 31.0652C44.3034 31.0437 44.3238 31.0226 44.3441 31.0016ZM47.6037 26.7241C47.7771 26.6316 47.9207 26.4917 48.0176 26.3207C48.0762 26.2029 48.1113 26.0747 48.1209 25.9435C48.1395 25.8135 48.1273 25.6811 48.0852 25.5568C48.0487 25.432 47.9878 25.3156 47.9062 25.2143C47.8154 25.1175 47.7119 25.0332 47.5987 24.9639C47.3627 24.8422 47.0884 24.8179 46.8347 24.8962C46.581 24.9745 46.3682 25.1493 46.2419 25.3828C46.1861 25.5017 46.1511 25.6293 46.1386 25.7601C46.1178 25.9569 46.1564 26.1553 46.2495 26.3299C46.3426 26.5045 46.4858 26.6472 46.6608 26.7396C46.7796 26.7957 46.9073 26.8306 47.038 26.8429C47.234 26.8578 47.4302 26.8166 47.6037 26.7241Z" fill="#87888D"/>
<path fill-rule="evenodd" clip-rule="evenodd" d="M39.4809 15.528L41.5554 15.6103C41.6455 15.2938 41.7751 14.9889 41.9418 14.7031L45.4139 8.74266C45.7378 8.19486 45.8334 7.54169 45.6801 6.92402C45.5269 6.30635 45.1369 5.77368 44.5945 5.44089C44.052 5.10809 43.4005 5.00185 42.7804 5.14507C42.1603 5.28829 41.6214 5.6695 41.2798 6.20647L37.5958 11.9057C32.8121 6.576 22.3789 7.6148 21.9234 7.66299C21.6547 7.69153 21.4084 7.82564 21.2386 8.03579C21.0688 8.24595 20.9894 8.51495 21.018 8.78361C21.0465 9.05227 21.1806 9.29858 21.3908 9.46837C21.601 9.63816 21.87 9.71751 22.1386 9.68896C22.1403 9.68883 22.1445 9.68845 22.1512 9.68783C22.4585 9.65967 28.0081 9.15114 32.4245 10.8728C30.3299 12.2275 27.8859 12.9425 25.3915 12.9303C20.913 12.7526 18.238 11.3417 16.1896 8.06248C17.2546 7.16991 20.197 5.25799 25.5621 5.64718C27.1191 5.83408 28.633 6.28364 30.0397 6.97675C30.1559 7.04737 30.2851 7.09401 30.4196 7.11391C30.5541 7.1338 30.6913 7.12656 30.823 7.09261C30.9547 7.05865 31.0782 6.99867 31.1864 6.91621C31.2945 6.83374 31.385 6.73046 31.4526 6.61244C31.5202 6.49443 31.5634 6.36408 31.5798 6.22908C31.5962 6.09408 31.5854 5.95717 31.5481 5.82641C31.5107 5.69565 31.4476 5.57369 31.3623 5.46773C31.2771 5.36178 31.1715 5.27396 31.0517 5.20947C29.3905 4.37198 27.5946 3.83416 25.7465 3.62075C19.5215 3.1424 16.0262 5.52477 14.8158 6.5604C14.4632 6.86536 14.2302 7.2855 14.1581 7.74612C14.0861 8.20673 14.1798 8.67796 14.4225 9.07602C16.8086 12.9391 20.1583 14.7548 25.28 14.9647L25.3112 14.9659C28.6235 14.9753 31.8493 13.9095 34.504 11.9288C35.2315 12.3954 35.8761 12.9802 36.411 13.659C36.5655 13.8558 36.7648 14.0128 36.9922 14.1169C37.2197 14.221 37.4687 14.2692 37.7186 14.2574C37.9685 14.2457 38.2119 14.1744 38.4286 14.0494C38.6454 13.9244 38.829 13.7495 38.9644 13.5391L42.9915 7.30807C43.0455 7.22293 43.1308 7.16249 43.2291 7.13986C43.3273 7.11723 43.4305 7.13424 43.5162 7.18719C43.6038 7.23946 43.6673 7.32408 43.6929 7.42277C43.7186 7.52146 43.7044 7.62628 43.6533 7.71457L40.1812 13.676C39.8456 14.2511 39.6092 14.8772 39.4809 15.528Z" fill="#87888D"/>
<path d="M53.5 9L60 1M58 16L67.5 12.5M60 24H69" stroke="#FDAC01"/>
<path d="M60.1398 35.6989L70.4323 36.2606M57.1177 43.4524L65.5303 49.0852M51.8179 49.77L57.1042 57.0539" stroke="#FDAC01"/>
<path d="M44.6756 55.3602L48.4569 64.9494M36.3682 55.8465L34.7564 65.8416M28.4161 53.6637L24 61.5058" stroke="#FDAC01"/>
<path d="M19.0525 47.7304L14.1792 56.8134M13.3122 41.7055L4.64352 46.9356M9.83826 34.2268L1.00001 35.9254" stroke="#FDAC01"/>
</svg>
