<svg width="46" height="49" viewBox="0 0 46 49" fill="none" xmlns="http://www.w3.org/2000/svg">
<circle cx="25.7428" cy="28.9612" r="19.6152" fill="white"/>
<path fill-rule="evenodd" clip-rule="evenodd" d="M27.9336 23.1992C28.0567 23.2711 28.1944 23.3143 28.3365 23.3257C28.5515 23.3455 28.7676 23.3009 28.9572 23.1977C29.1469 23.0944 29.3016 22.9372 29.4017 22.7459C29.4691 22.621 29.5107 22.4839 29.5239 22.3427C29.5371 22.2014 29.5217 22.059 29.4787 21.9238C29.4379 21.7861 29.37 21.6581 29.2789 21.5471C29.1879 21.4361 29.0755 21.3446 28.9485 21.2777C28.8228 21.2073 28.6836 21.1643 28.5401 21.1516C28.3966 21.1389 28.252 21.1568 28.1159 21.204C27.9803 21.2453 27.8543 21.3131 27.7451 21.4036C27.636 21.4941 27.546 21.6054 27.4803 21.731C27.4117 21.8578 27.3689 21.997 27.3545 22.1405C27.3401 22.2839 27.3542 22.4288 27.3962 22.5667C27.4389 22.7027 27.5085 22.8288 27.6008 22.9374C27.6931 23.046 27.8063 23.135 27.9336 23.1992ZM33.8805 30.3477C33.906 30.3214 33.9313 30.2952 33.9597 30.2687C34.0015 30.2092 34.0395 30.1472 34.0735 30.083C34.1412 29.9583 34.183 29.8211 34.1962 29.6798C34.2094 29.5385 34.1938 29.396 34.1504 29.2609C34.1097 29.1233 34.0417 28.9952 33.9507 28.8842C33.8596 28.7733 33.7472 28.6817 33.6202 28.6149C33.4934 28.5462 33.3542 28.5035 33.2108 28.489C33.0673 28.4746 32.9224 28.4888 32.7845 28.5307C32.649 28.5746 32.5234 28.6444 32.4145 28.7362C32.1993 28.9257 32.0611 29.1875 32.0259 29.4721C32.0105 29.6177 32.0249 29.765 32.0682 29.9049C32.1107 30.041 32.1802 30.1672 32.2725 30.2759C32.3648 30.3845 32.4782 30.4735 32.6057 30.5373C32.7308 30.6058 32.8681 30.649 33.0099 30.6646C33.2255 30.6894 33.4434 30.6456 33.6328 30.5395L33.8116 30.417C33.8362 30.3936 33.8584 30.3706 33.8805 30.3477ZM37.4325 25.6864C37.6215 25.5856 37.778 25.4332 37.8836 25.2468C37.9475 25.1184 37.9858 24.9787 37.9962 24.8357C38.0165 24.6941 38.0032 24.5498 37.9573 24.4143C37.9175 24.2783 37.8512 24.1515 37.7623 24.0411C37.6633 23.9356 37.5505 23.8438 37.4271 23.7683C37.17 23.6356 36.871 23.6091 36.5946 23.6945C36.3181 23.7798 36.0862 23.9702 35.9485 24.2247C35.8878 24.3543 35.8497 24.4934 35.836 24.6359C35.8133 24.8503 35.8554 25.0666 35.9568 25.2568C36.0583 25.4471 36.2144 25.6026 36.405 25.7033C36.5345 25.7644 36.6736 25.8024 36.8162 25.8159C37.0297 25.8321 37.2435 25.7871 37.4325 25.6864Z" fill="white"/>
<path fill-rule="evenodd" clip-rule="evenodd" d="M28.5809 13.4857L30.8415 13.5754C30.9397 13.2304 31.081 12.8982 31.2626 12.5867L35.0462 6.09143C35.3992 5.49447 35.5035 4.78269 35.3364 4.10959C35.1694 3.4365 34.7445 2.85602 34.1533 2.49337C33.5622 2.13072 32.8522 2.01494 32.1765 2.17101C31.5007 2.32708 30.9134 2.7425 30.5412 3.32766L26.5267 9.53829C21.3137 3.73035 9.94427 4.86235 9.44784 4.91487C9.15507 4.94598 8.88665 5.09211 8.70163 5.32113C8.51661 5.55014 8.43014 5.84327 8.46124 6.13604C8.49235 6.42881 8.63849 6.69723 8.8675 6.88226C9.09652 7.06728 9.38965 7.15375 9.68242 7.12264C9.68422 7.1225 9.68881 7.12208 9.6961 7.12141C10.031 7.09073 16.0786 6.53656 20.8913 8.41269C18.6088 9.88898 15.9455 10.6681 13.2271 10.6548C8.34687 10.4612 5.43178 8.92364 3.19954 5.3502C4.36013 4.37755 7.56663 2.29407 13.4131 2.71818C15.1098 2.92185 16.7596 3.41175 18.2925 4.16706C18.4191 4.24401 18.5599 4.29483 18.7065 4.31651C18.8531 4.3382 19.0026 4.33031 19.1461 4.29331C19.2896 4.25631 19.4242 4.19095 19.542 4.10108C19.6599 4.01121 19.7585 3.89866 19.8322 3.77006C19.9058 3.64145 19.953 3.49941 19.9708 3.3523C19.9887 3.20518 19.9769 3.05598 19.9362 2.91348C19.8955 2.77099 19.8267 2.63809 19.7338 2.52263C19.6409 2.40716 19.5258 2.31147 19.3954 2.24118C17.5851 1.32855 15.628 0.74247 13.614 0.509905C6.83047 -0.0113675 3.02152 2.58478 1.70255 3.71334C1.31828 4.04567 1.06431 4.50351 0.98582 5.00546C0.907327 5.5074 1.00939 6.02092 1.27387 6.4547C3.87448 10.665 7.5254 12.6436 13.1079 12.8719L13.1397 12.8731C16.7491 12.8833 20.2644 11.7219 23.1574 9.56349C23.9502 10.072 24.6526 10.7092 25.2356 11.4489C25.4039 11.6634 25.621 11.8344 25.8689 11.9479C26.1168 12.0613 26.3882 12.1138 26.6605 12.101C26.9328 12.0883 27.1981 12.0105 27.4342 11.8744C27.6704 11.7382 27.8705 11.5475 28.018 11.3182L32.4066 4.5281C32.4654 4.43533 32.5584 4.36946 32.6654 4.3448C32.7724 4.32015 32.8849 4.33867 32.9783 4.39637C33.0738 4.45333 33.1429 4.54556 33.1709 4.6531C33.1988 4.76064 33.1833 4.87487 33.1277 4.97108L29.344 11.4675C28.9783 12.0941 28.7208 12.7764 28.5809 13.4857Z" fill="white"/>
<circle cx="25.5185" cy="28.5764" r="18" fill="#87888D"/>
<path fill-rule="evenodd" clip-rule="evenodd" d="M27.5289 23.2889C27.6418 23.3548 27.7682 23.3945 27.8986 23.405C28.0959 23.4231 28.2942 23.3822 28.4682 23.2875C28.6422 23.1928 28.7842 23.0485 28.8761 22.8729C28.9379 22.7583 28.9761 22.6325 28.9882 22.5029C29.0003 22.3733 28.9862 22.2425 28.9467 22.1185C28.9093 21.9922 28.847 21.8747 28.7634 21.7728C28.6799 21.671 28.5767 21.587 28.4602 21.5257C28.3448 21.461 28.2171 21.4216 28.0854 21.4099C27.9537 21.3982 27.8211 21.4146 27.6962 21.458C27.5717 21.4959 27.4561 21.5581 27.3559 21.6412C27.2558 21.7242 27.1732 21.8263 27.1129 21.9416C27.0499 22.058 27.0107 22.1857 26.9974 22.3173C26.9842 22.449 26.9972 22.5819 27.0357 22.7085C27.0749 22.8333 27.1388 22.949 27.2235 23.0487C27.3082 23.1483 27.412 23.23 27.5289 23.2889ZM32.9861 29.8488C33.0094 29.8246 33.0326 29.8005 33.0588 29.7762C33.0971 29.7217 33.1319 29.6648 33.1632 29.6058C33.2253 29.4914 33.2636 29.3655 33.2758 29.2359C33.2879 29.1062 33.2736 28.9754 33.2337 28.8514C33.1964 28.7251 33.134 28.6076 33.0505 28.5058C32.9669 28.404 32.8638 28.3199 32.7472 28.2586C32.6308 28.1956 32.5031 28.1564 32.3715 28.1431C32.2398 28.1299 32.1069 28.1429 31.9803 28.1814C31.856 28.2217 31.7407 28.2857 31.6408 28.3699C31.4434 28.5439 31.3165 28.7841 31.2841 29.0452C31.27 29.1789 31.2833 29.314 31.323 29.4424C31.362 29.5673 31.4258 29.6831 31.5105 29.7828C31.5952 29.8826 31.6992 29.9642 31.8162 30.0228C31.931 30.0856 32.0571 30.1253 32.1872 30.1395C32.385 30.1623 32.585 30.1221 32.7587 30.0248L32.9229 29.9124C32.9454 29.8908 32.9658 29.8697 32.9861 29.8488ZM36.2456 25.5713C36.4191 25.4788 36.5626 25.3389 36.6595 25.1679C36.7182 25.0501 36.7533 24.9219 36.7628 24.7906C36.7815 24.6607 36.7693 24.5282 36.7272 24.4039C36.6906 24.2791 36.6298 24.1628 36.5482 24.0615C36.4573 23.9646 36.3539 23.8804 36.2406 23.8111C36.0047 23.6894 35.7304 23.6651 35.4767 23.7434C35.223 23.8217 35.0101 23.9964 34.8838 24.23C34.828 24.3489 34.7931 24.4765 34.7805 24.6073C34.7597 24.804 34.7983 25.0025 34.8914 25.1771C34.9845 25.3517 35.1278 25.4944 35.3027 25.5868C35.4216 25.6428 35.5492 25.6778 35.68 25.6901C35.876 25.7049 36.0722 25.6637 36.2456 25.5713Z" fill="#87888D"/>
<path fill-rule="evenodd" clip-rule="evenodd" d="M28.1228 14.3752L30.1973 14.4575C30.2875 14.141 30.4171 13.8361 30.5837 13.5503L34.0558 7.58983C34.3798 7.04203 34.4754 6.38886 34.3221 5.77119C34.1688 5.15352 33.7789 4.62085 33.2364 4.28805C32.694 3.95526 32.0424 3.84902 31.4224 3.99224C30.8023 4.13546 30.2633 4.51666 29.9218 5.05364L26.2378 10.7529C21.4541 5.42317 11.0209 6.46196 10.5653 6.51016C10.2966 6.5387 10.0503 6.6728 9.88054 6.88296C9.71075 7.09312 9.6314 7.36211 9.65995 7.63077C9.68849 7.89944 9.8226 8.14575 10.0328 8.31554C10.2429 8.48533 10.5119 8.56467 10.7806 8.53613C10.7822 8.536 10.7864 8.53562 10.7931 8.53501C11.1002 8.50686 16.65 7.99828 21.0665 9.71995C18.9719 11.0747 16.5279 11.7897 14.0334 11.7775C9.555 11.5998 6.87994 10.1888 4.83152 6.90964C5.89654 6.01708 8.839 4.10516 14.2041 4.49435C15.761 4.68125 17.275 5.13081 18.6816 5.82392C18.7979 5.89454 18.927 5.94117 19.0616 5.96107C19.1961 5.98097 19.3333 5.97373 19.4649 5.93978C19.5966 5.90582 19.7202 5.84584 19.8283 5.76338C19.9364 5.68091 20.027 5.57762 20.0946 5.45961C20.1621 5.3416 20.2054 5.21125 20.2218 5.07625C20.2382 4.94125 20.2274 4.80433 20.19 4.67357C20.1527 4.54281 20.0895 4.42086 20.0043 4.3149C19.919 4.20894 19.8134 4.12113 19.6937 4.05663C18.0325 3.21915 16.2365 2.68133 14.3884 2.46792C8.16346 1.98956 4.66816 4.37194 3.4578 5.40757C3.10517 5.71253 2.87212 6.13267 2.80009 6.59329C2.72806 7.0539 2.82172 7.52513 3.06441 7.92319C5.45069 11.7864 8.80062 13.6022 13.9227 13.8119L13.9532 13.8131C17.2654 13.8224 20.4912 12.7567 23.146 10.776C23.8735 11.2426 24.518 11.8273 25.053 12.5062C25.2074 12.7029 25.4067 12.8599 25.6342 12.964C25.8616 13.0681 26.1107 13.1163 26.3606 13.1046C26.6104 13.0929 26.8539 13.0215 27.0706 12.8966C27.2873 12.7716 27.471 12.5966 27.6063 12.3862L31.6335 6.15524C31.6875 6.0701 31.7728 6.00966 31.871 5.98703C31.9693 5.9644 32.0724 5.98141 32.1582 6.03435C32.2458 6.08663 32.3092 6.17125 32.3349 6.26994C32.3605 6.36863 32.3463 6.47345 32.2953 6.56174L28.8232 12.5232C28.4875 13.0983 28.2512 13.7244 28.1228 14.3752Z" fill="#87888D"/>
</svg>
