<svg width="68" height="72" viewBox="0 0 68 72" fill="none" xmlns="http://www.w3.org/2000/svg">
<rect x="0.5" y="0.5" width="67" height="71" rx="15.5" fill="#E0E0E0" fill-opacity="0.5"/>
<rect x="0.5" y="0.5" width="67" height="71" rx="15.5" stroke="#E0E0E0"/>
<path d="M31.3708 46.58H27.9308V48.24H31.3708V46.58ZM32.6708 54.32H26.7908V51.78H27.8708V53.41H32.6708V54.32ZM29.3108 52.54V50.89H25.4508V49.99H33.8508V50.89H30.4008V52.54H29.3108ZM26.8508 49.15V45.67H32.4408V49.15H26.8508ZM38.1 49.6C38.1 49.3733 38.0067 49.1867 37.82 49.04C37.6333 48.8933 37.4 48.82 37.12 48.82C36.84 48.82 36.61 48.8933 36.43 49.04C36.25 49.1867 36.16 49.3733 36.16 49.6C36.16 49.84 36.25 50.0367 36.43 50.19C36.61 50.3367 36.84 50.41 37.12 50.41C37.4 50.41 37.6333 50.3367 37.82 50.19C38.0067 50.0367 38.1 49.84 38.1 49.6ZM35.76 46.25V45.33H38.45V46.25H35.76ZM34.57 47.63V46.73H39.57V47.63H34.57ZM41.47 45.28V48.81H42.95V49.73H41.47V54.03H40.39V45.28H41.47ZM40.15 52.7C39.79 52.7533 39.36 52.8 38.86 52.84C38.36 52.8733 37.84 52.9033 37.3 52.93C36.76 52.9633 36.2267 52.9867 35.7 53C35.1733 53.02 34.71 53.03 34.31 53.03L34.24 52.1C34.5467 52.1 34.9033 52.0967 35.31 52.09C35.7233 52.0833 36.15 52.07 36.59 52.05V51.22C36.2567 51.1533 35.9667 51.0167 35.72 50.81C35.54 50.67 35.4 50.4967 35.3 50.29C35.2 50.0833 35.15 49.8533 35.15 49.6C35.15 49.36 35.2 49.14 35.3 48.94C35.4 48.7333 35.54 48.56 35.72 48.42C35.9 48.2733 36.1067 48.16 36.34 48.08C36.58 48 36.84 47.96 37.12 47.96C37.3867 47.96 37.64 48 37.88 48.08C38.1267 48.16 38.34 48.2733 38.52 48.42C38.7 48.56 38.8433 48.7333 38.95 48.94C39.0567 49.14 39.11 49.36 39.11 49.6C39.11 49.8533 39.0567 50.0833 38.95 50.29C38.8433 50.4967 38.7 50.67 38.52 50.81C38.4067 50.9033 38.2767 50.9833 38.13 51.05C37.99 51.1167 37.84 51.17 37.68 51.21V51.99C38.14 51.9633 38.5767 51.9333 38.99 51.9C39.4033 51.8667 39.7567 51.8233 40.05 51.77L40.15 52.7Z" fill="#87888D"/>
<path d="M32.5451 19.2523C32.5964 19.298 32.5964 19.298 32.6486 19.3445C32.7513 19.4276 32.7513 19.4276 32.8737 19.3938C32.9158 19.377 32.9578 19.3602 33.001 19.3429C33.3605 19.2184 33.6389 19.1983 33.9916 19.3496C34.1345 19.4045 34.1929 19.4261 34.3364 19.368C34.4442 19.2983 34.4442 19.2983 34.5384 19.2199C34.9056 18.9606 35.374 19.0041 35.799 19.0378C36.2153 19.1308 36.5712 19.3729 36.8143 19.7324C37.0082 20.094 37.0473 20.4509 36.9453 20.8493C36.793 21.2609 36.4852 21.5171 36.1138 21.7199C35.8308 21.8336 35.5735 21.8397 35.2741 21.8272C35.2893 21.854 35.3044 21.8807 35.3201 21.9083C35.5219 22.3073 35.5547 22.7086 35.4513 23.1461C35.3204 23.4961 35.0705 23.7503 34.747 23.9229C34.53 23.9929 34.3252 23.9904 34.0988 23.991C34.0275 23.9915 34.0275 23.9915 33.9547 23.992C33.8543 23.9926 33.7539 23.9928 33.6534 23.9928C33.5007 23.9931 33.348 23.995 33.1953 23.997C33.0974 23.9974 32.9995 23.9976 32.9016 23.9977C32.8564 23.9984 32.8112 23.9992 32.7646 24C32.4095 23.9973 32.1369 23.904 31.8635 23.6685C31.5546 23.2783 31.4664 22.9838 31.476 22.4806C31.5035 22.2396 31.58 22.0851 31.7054 21.8809C31.6388 21.873 31.6388 21.873 31.5709 21.8649C31.0155 21.7901 30.5766 21.6545 30.2107 21.1927C29.98 20.836 29.9755 20.473 30.026 20.057C30.1288 19.6512 30.4303 19.3924 30.7702 19.1813C31.313 18.9151 32.0259 18.9448 32.5451 19.2523ZM31.0756 20.1106C31.0443 20.1339 31.0129 20.1571 30.9805 20.181C30.9069 20.2749 30.9069 20.2749 30.8887 20.4258C30.9317 20.6699 31.0369 20.7213 31.2331 20.8616C31.4269 20.9607 31.6509 20.9339 31.8629 20.9153C32.08 20.8346 32.2255 20.7516 32.3352 20.5398C32.3746 20.408 32.3746 20.408 32.3352 20.2716C32.0402 19.9831 31.8753 19.934 31.4797 19.9377C31.3065 19.9524 31.2083 19.9962 31.0756 20.1106ZM34.7493 20.1643C34.6294 20.3148 34.6294 20.3148 34.6476 20.4828C34.7089 20.6874 34.7854 20.7474 34.9593 20.8616C35.1874 20.9394 35.403 20.943 35.6415 20.9153C35.8403 20.8118 36.0169 20.6966 36.1138 20.4861C36.086 20.2584 36.0296 20.1814 35.8547 20.0369C35.4821 19.8472 35.0598 19.8794 34.7493 20.1643ZM33.2943 20.2284C33.2074 20.3541 33.2073 20.4327 33.2061 20.5859C33.2049 20.6369 33.2038 20.6879 33.2026 20.7405C33.2021 20.7938 33.2016 20.847 33.2011 20.9019C33.1972 21.3377 33.1929 21.6767 32.8994 22.0183C32.755 22.1491 32.755 22.1491 32.6564 22.2239C32.4343 22.3961 32.4343 22.3961 32.3516 22.6654C32.3927 22.8717 32.4322 22.9389 32.5976 23.061C32.8805 23.1575 33.1921 23.1245 33.4865 23.1247C33.5484 23.1254 33.6104 23.126 33.6742 23.1267C33.734 23.1268 33.7937 23.1269 33.8553 23.127C33.9098 23.1272 33.9642 23.1274 34.0203 23.1277C34.2165 23.1108 34.3655 23.0535 34.5296 22.9437C34.6366 22.7767 34.624 22.6648 34.5919 22.4709C34.4841 22.3435 34.3564 22.2491 34.2245 22.1491C33.9769 21.9247 33.8262 21.7057 33.7898 21.3669C33.7809 21.158 33.7788 20.9495 33.777 20.7405C33.7758 20.6895 33.7747 20.6384 33.7735 20.5859C33.7731 20.5397 33.7728 20.4935 33.7724 20.4458C33.7604 20.3224 33.7604 20.3224 33.6853 20.2284C33.5475 20.1308 33.432 20.1308 33.2943 20.2284Z" fill="#87888D"/>
<path d="M34.8659 10.4286C35.3394 10.8187 35.628 11.278 35.9173 11.8108C35.9559 11.8807 35.9945 11.9505 36.0331 12.0203C36.0921 12.1268 36.1511 12.2334 36.2098 12.3401C36.3916 12.6701 36.5785 12.9971 36.7666 13.3236C36.8283 13.4311 36.8899 13.5386 36.9516 13.6461C36.9826 13.7002 37.0137 13.7544 37.0457 13.8102C37.2312 14.1339 37.4164 14.4579 37.6011 14.7821C37.637 14.8447 37.6728 14.9073 37.7097 14.9718C37.7592 15.0588 37.7592 15.0588 37.8098 15.1476C37.8391 15.199 37.8684 15.2503 37.8986 15.3033C37.9688 15.4351 37.9688 15.4351 38.0276 15.6092C38.0957 15.6065 38.1638 15.6038 38.2339 15.6011C38.3245 15.5989 38.415 15.5968 38.5055 15.5947C38.5503 15.5928 38.595 15.5908 38.6411 15.5888C38.9562 15.5835 39.1349 15.6292 39.3805 15.8414C39.6594 16.1203 39.6464 16.4091 39.648 16.781C39.6471 16.8541 39.6462 16.9271 39.6452 17.0023C39.6466 17.1119 39.6466 17.1119 39.648 17.2236C39.6452 17.8869 39.6452 17.8869 39.3805 18.1633C39.187 18.3211 39.0808 18.3916 38.8291 18.41C38.7781 18.4052 38.7272 18.4004 38.6747 18.3954C38.6941 18.5487 38.7135 18.7019 38.7335 18.8598C38.7875 18.8571 38.8415 18.8544 38.8971 18.8517C39.6951 18.8285 39.6951 18.8285 40.0276 19.092C40.2992 19.3472 40.534 19.6037 40.5702 19.9864C40.5696 20.0348 40.5689 20.0833 40.5683 20.1333C40.5679 20.1887 40.5676 20.2441 40.5672 20.3012C40.5664 20.3605 40.5656 20.4197 40.5648 20.4808C40.5649 20.6074 40.565 20.7339 40.5653 20.8605C40.5652 21.0592 40.5644 21.2579 40.5617 21.4566C40.5594 21.649 40.56 21.8412 40.5611 22.0335C40.5596 22.0924 40.5581 22.1514 40.5566 22.2121C40.5611 22.5444 40.6042 22.7154 40.8467 22.954C40.9264 23.0213 41.0062 23.0885 41.0864 23.1552C41.6963 23.9441 41.9969 24.8343 41.9925 25.8212C41.9931 25.9192 41.9931 25.9192 41.9938 26.0191C41.9948 26.2328 41.9946 26.4464 41.9943 26.66C41.9945 26.8098 41.9949 26.9595 41.9952 27.1092C41.9957 27.4221 41.9956 27.735 41.995 28.0479C41.9943 28.408 41.9952 28.7681 41.9967 29.1283C41.9982 29.4769 41.9983 29.8255 41.998 30.1741C41.998 30.3215 41.9983 30.4689 41.999 30.6163C41.9999 30.8227 41.9993 31.029 41.9983 31.2354C41.9988 31.2955 41.9994 31.3556 42 31.4175C41.993 32.1075 41.7533 32.6492 41.2629 33.1392C40.8967 33.4469 40.4376 33.6593 39.9623 33.741C39.809 33.7916 39.7494 33.8756 39.6489 33.999C39.4943 34.1813 39.3455 34.3388 39.1452 34.4743C39.1064 34.4743 39.0676 34.4743 39.0276 34.4743C39.037 34.5164 39.0464 34.5586 39.0561 34.602C39.1034 34.8553 39.1021 35.1061 39.1048 35.3631C39.1065 35.416 39.1082 35.469 39.11 35.5235C39.114 35.9521 39.0238 36.2534 38.7356 36.578C38.6973 36.6093 38.659 36.6406 38.6195 36.6728C38.5814 36.705 38.5432 36.7371 38.5039 36.7703C38.2434 36.9474 38.0193 36.9849 37.7059 36.9858C37.6289 36.9863 37.552 36.9868 37.4727 36.9873C37.3879 36.9872 37.303 36.9872 37.2181 36.9871C37.1285 36.9875 37.0388 36.9879 36.9491 36.9883C36.7058 36.9893 36.4624 36.9896 36.2191 36.9897C36.067 36.9898 35.9149 36.99 35.7627 36.9903C35.2316 36.9914 34.7006 36.9919 34.1695 36.9918C33.675 36.9917 33.1805 36.9929 32.686 36.9948C32.2611 36.9963 31.8361 36.9969 31.4111 36.9968C31.1575 36.9968 30.9038 36.9971 30.6502 36.9984C30.4115 36.9995 30.1729 36.9995 29.9342 36.9987C29.8469 36.9985 29.7595 36.9988 29.6722 36.9995C29.127 37.0036 28.7314 36.9906 28.3075 36.624C28.2758 36.5862 28.2441 36.5485 28.2115 36.5095C28.1789 36.4719 28.1463 36.4342 28.1127 36.3955C27.882 36.0652 27.8938 35.7629 27.899 35.374C27.899 35.3196 27.8991 35.2652 27.8991 35.2092C27.9007 34.9551 27.9126 34.7231 27.9688 34.4743C27.9038 34.4527 27.9038 34.4527 27.8374 34.4307C27.6593 34.3513 27.5597 34.2643 27.4247 34.126C27.3844 34.0853 27.344 34.0446 27.3025 34.0026C27.2041 33.8938 27.2041 33.8938 27.1453 33.7777C27.0301 33.74 26.9133 33.7069 26.796 33.6761C26.138 33.4827 25.6413 33.1766 25.2921 32.5823C25.1251 32.263 25.0209 32.0019 25.019 31.6403C25.0186 31.5841 25.0182 31.5279 25.0177 31.47C25.0175 31.3781 25.0175 31.3781 25.0173 31.2843C25.0169 31.2194 25.0165 31.1545 25.0161 31.0877C25.0149 30.8726 25.0142 30.6576 25.0137 30.4425C25.0133 30.3321 25.0133 30.3321 25.0129 30.2194C25.0118 29.8695 25.011 29.5196 25.0105 29.1696C25.0099 28.7677 25.0084 28.3658 25.006 27.9639C25.004 27.6143 25.0033 27.2647 25.0031 26.9151C25.0028 26.7672 25.0021 26.6194 25.001 26.4715C24.9944 25.5233 25.0072 24.6658 25.4725 23.8119C25.5066 23.747 25.5406 23.6821 25.5757 23.6153C25.6669 23.4617 25.752 23.3722 25.8922 23.2564C26.1981 22.9998 26.3876 22.7807 26.4347 22.3759C26.4567 22.0018 26.4471 21.6285 26.4358 21.2542C26.4321 21.0608 26.4295 20.8674 26.428 20.674C26.4269 20.5543 26.4245 20.4346 26.4204 20.315C26.4131 19.8842 26.5 19.579 26.7903 19.2521C26.8286 19.2208 26.8669 19.1895 26.9063 19.1573C26.9445 19.1251 26.9826 19.093 27.0219 19.0598C27.303 18.8687 27.5309 18.8463 27.8696 18.8526C27.9433 18.8536 28.0171 18.8547 28.0931 18.8557C28.1492 18.8571 28.2052 18.8584 28.2629 18.8598C28.2921 18.6299 28.2921 18.63 28.3218 18.3954C28.2708 18.4002 28.2199 18.405 28.1674 18.41C27.8598 18.3875 27.6969 18.2478 27.4895 18.0313C27.2937 17.7304 27.3469 17.3456 27.3512 17.0023C27.3503 16.9293 27.3494 16.8563 27.3484 16.781C27.3513 16.106 27.3513 16.106 27.6159 15.8414C27.904 15.5926 28.1266 15.5789 28.4909 15.5947C28.537 15.5958 28.5831 15.5968 28.6306 15.5979C28.7434 15.6006 28.8561 15.6048 28.9688 15.6092C28.9846 15.5679 29.0004 15.5266 29.0167 15.4841C29.0883 15.3147 29.1712 15.159 29.262 14.9988C29.2972 14.9365 29.3324 14.8742 29.3687 14.81C29.4066 14.7433 29.4445 14.6766 29.4835 14.6079C29.5233 14.5377 29.5631 14.4674 29.6029 14.3971C29.6847 14.2525 29.7667 14.108 29.8487 13.9635C29.96 13.7674 30.0707 13.5711 30.1814 13.3747C30.3495 13.0764 30.5187 12.7788 30.6888 12.4817C30.7597 12.3577 30.8303 12.2337 30.9007 12.1095C31.0084 11.92 31.1172 11.7311 31.2262 11.5423C31.2583 11.4854 31.2905 11.4284 31.3236 11.3698C31.6069 10.8836 31.928 10.4834 32.4541 10.2436C32.5126 10.2161 32.5712 10.1886 32.6315 10.1603C33.3568 9.86486 34.2313 9.99125 34.8659 10.4286ZM32.4131 11.5407C32.2477 11.7605 32.1229 12.0005 31.9945 12.2425C31.9327 12.3568 31.8707 12.471 31.8087 12.5851C31.777 12.6436 31.7452 12.7021 31.7126 12.7624C31.5567 13.0472 31.3954 13.3288 31.2335 13.6102C31.2022 13.6649 31.1709 13.7195 31.1386 13.7758C30.9755 14.0596 30.8113 14.3427 30.646 14.6252C30.6131 14.6814 30.5803 14.7376 30.5465 14.7955C30.4837 14.903 30.4207 15.0103 30.3574 15.1174C30.3155 15.189 30.3155 15.189 30.2728 15.2621C30.2481 15.304 30.2234 15.346 30.198 15.3892C30.1365 15.4911 30.1365 15.4911 30.1453 15.6092C32.3582 15.6092 34.5712 15.6092 36.8511 15.6092C36.7721 15.3753 36.7168 15.2141 36.5965 15.0113C36.5693 14.9649 36.5421 14.9185 36.514 14.8707C36.4846 14.8211 36.4551 14.7715 36.4247 14.7204C36.3607 14.6114 36.2967 14.5023 36.2328 14.3932C36.1825 14.3074 36.1825 14.3074 36.1312 14.2199C35.9554 13.9178 35.784 13.6134 35.6122 13.3091C35.5428 13.1871 35.4734 13.065 35.404 12.9429C35.2759 12.7178 35.1489 12.492 35.0226 12.2659C34.9667 12.1674 34.9108 12.0689 34.8548 11.9704C34.8306 11.9264 34.8064 11.8823 34.7814 11.8369C34.5845 11.4938 34.3501 11.2458 33.9938 11.0612C33.3479 10.8908 32.8313 11.0454 32.4131 11.5407ZM28.3218 16.538C28.3218 16.8444 28.3218 17.1509 28.3218 17.4667C31.7382 17.4667 35.1547 17.4667 38.6747 17.4667C38.6747 17.1602 38.6747 16.8537 38.6747 16.538C35.2582 16.538 31.8418 16.538 28.3218 16.538ZM29.2629 18.3954C29.0619 21.8832 29.0619 21.8832 30.6159 24.6644C31.4372 25.4622 32.4914 25.8064 33.6317 25.8292C34.8791 25.7791 35.9226 25.1729 36.7521 24.2867C38.1489 22.6599 37.7335 20.3587 37.7335 18.3954C34.9382 18.3954 32.1429 18.3954 29.2629 18.3954ZM27.5387 19.9518C27.3807 20.1538 27.3729 20.3184 27.3711 20.5656C27.3706 20.6295 27.37 20.6934 27.3694 20.7593C27.3692 20.8284 27.3689 20.8975 27.3687 20.9688C27.3683 21.0398 27.368 21.1109 27.3676 21.1841C27.3671 21.3347 27.3667 21.4852 27.3665 21.6357C27.3659 21.8658 27.3641 22.0959 27.3622 22.3259C27.3618 22.4721 27.3615 22.6184 27.3613 22.7646C27.3606 22.8333 27.3598 22.9021 27.3591 22.9729C27.3575 23.4376 27.3575 23.4376 27.5571 23.8518C27.7242 23.9342 27.8426 23.9281 28.0277 23.9098C28.1952 23.7803 28.2541 23.7038 28.3218 23.5035C28.3278 23.3994 28.3305 23.2951 28.3313 23.1909C28.3318 23.1269 28.3324 23.063 28.333 22.9971C28.3333 22.8935 28.3333 22.8935 28.3337 22.7877C28.3342 22.6811 28.3342 22.6811 28.3347 22.5723C28.3353 22.4218 28.3357 22.2712 28.3359 22.1207C28.3365 21.8906 28.3383 21.6606 28.3402 21.4305C28.3405 21.2843 28.3408 21.1381 28.3411 20.9919C28.3418 20.9231 28.3425 20.8544 28.3433 20.7835C28.3448 20.3189 28.3448 20.3189 28.1453 19.9046C27.922 19.7945 27.7351 19.7999 27.5387 19.9518ZM38.8327 19.9518C38.6748 20.1538 38.6669 20.3184 38.6652 20.5656C38.6646 20.6295 38.6641 20.6934 38.6635 20.7593C38.6632 20.8284 38.663 20.8975 38.6627 20.9688C38.6624 21.0398 38.662 21.1109 38.6617 21.1841C38.6611 21.3347 38.6608 21.4852 38.6605 21.6357C38.66 21.8658 38.6581 22.0959 38.6563 22.3259C38.6559 22.4721 38.6556 22.6184 38.6554 22.7646C38.6546 22.8333 38.6539 22.9021 38.6532 22.9729C38.6516 23.4376 38.6516 23.4376 38.8511 23.8518C39.0182 23.9342 39.1367 23.9281 39.3217 23.9098C39.4892 23.7803 39.5482 23.7038 39.6158 23.5035C39.6219 23.3994 39.6246 23.2951 39.6253 23.1909C39.6259 23.1269 39.6264 23.063 39.627 22.9971C39.6274 22.8935 39.6274 22.8935 39.6278 22.7877C39.6283 22.6811 39.6283 22.6811 39.6288 22.5723C39.6294 22.4218 39.6297 22.2712 39.63 22.1207C39.6305 21.8906 39.6324 21.6606 39.6342 21.4305C39.6346 21.2843 39.6349 21.1381 39.6351 20.9919C39.6359 20.9231 39.6366 20.8544 39.6373 20.7835C39.6389 20.3189 39.6389 20.3189 39.4394 19.9046C39.2161 19.7945 39.0292 19.7999 38.8327 19.9518ZM26.4983 24.084C26.0825 24.858 25.9598 25.5247 25.9603 26.3945C25.9601 26.4481 25.9599 26.5017 25.9597 26.5569C25.9591 26.7322 25.959 26.9074 25.959 27.0827C25.9588 27.2055 25.9586 27.3284 25.9584 27.4512C25.958 27.7079 25.9579 27.9646 25.9579 28.2213C25.9579 28.5493 25.9571 28.8773 25.9561 29.2053C25.9555 29.4587 25.9554 29.7122 25.9554 29.9656C25.9553 30.0865 25.9551 30.2074 25.9546 30.3283C25.954 30.4976 25.9542 30.6669 25.9546 30.8362C25.9542 30.8855 25.9539 30.9348 25.9536 30.9856C25.9563 31.4974 26.0297 31.9883 26.3806 32.3846C26.6221 32.5831 26.6221 32.5831 26.91 32.6748C26.9106 32.6108 26.9111 32.5467 26.9117 32.4806C26.914 32.2408 26.9179 32.001 26.9222 31.7611C26.9239 31.6577 26.9251 31.5543 26.926 31.4509C26.9352 30.3636 26.9352 30.3636 27.2041 29.9467C27.2369 29.8856 27.2696 29.8245 27.3034 29.7616C27.5361 29.4824 27.8264 29.2953 28.1747 29.1848C28.2232 29.168 28.2718 29.1513 28.3218 29.134C28.3884 28.9548 28.3954 28.7686 28.4089 28.5793C28.4159 28.4822 28.4159 28.4822 28.4231 28.3831C28.4304 28.2782 28.4304 28.2782 28.4378 28.1713C28.4429 28.0988 28.4481 28.0263 28.4534 27.9517C28.4642 27.798 28.475 27.6443 28.4856 27.4905C28.4963 27.3344 28.5074 27.1782 28.5186 27.0221C28.5349 26.7957 28.5507 26.5692 28.5665 26.3428C28.5714 26.2741 28.5764 26.2054 28.5815 26.1346C28.6135 25.6632 28.6214 25.1948 28.6159 24.7225C28.5617 24.7412 28.5076 24.76 28.4518 24.7793C28.0569 24.9033 27.5585 24.9182 27.1747 24.7479C26.9395 24.6089 26.7816 24.4115 26.6159 24.2001C26.5771 24.1618 26.5383 24.1235 26.4983 24.084ZM40.4394 24.084C40.418 24.1148 40.3966 24.1456 40.3746 24.1774C40.1427 24.4989 39.9451 24.7109 39.557 24.8386C39.4236 24.8456 39.2899 24.8488 39.1563 24.8495C39.0855 24.8503 39.0148 24.8511 38.9419 24.852C38.7337 24.8386 38.5759 24.7909 38.3805 24.7225C38.3742 25.2651 38.3909 25.8016 38.4299 26.3428C38.4376 26.4523 38.4376 26.4523 38.4454 26.5641C38.4588 26.7554 38.4724 26.9468 38.4862 27.1381C38.4974 27.2947 38.5082 27.4513 38.519 27.608C38.532 27.7958 38.5453 27.9835 38.5586 28.1713C38.5635 28.2412 38.5683 28.311 38.5733 28.3831C38.578 28.4478 38.5827 28.5126 38.5876 28.5793C38.5916 28.6362 38.5957 28.693 38.5998 28.7516C38.6141 28.8858 38.6306 29.0063 38.6747 29.134C38.7848 29.2044 38.7848 29.2044 38.921 29.2501C39.396 29.4437 39.6662 29.673 39.91 30.1208C40.0308 30.414 40.0474 30.6741 40.052 30.9856C40.0531 31.0341 40.0542 31.0825 40.0554 31.1325C40.0589 31.2862 40.0616 31.44 40.0644 31.5937C40.0666 31.6984 40.0689 31.8031 40.0713 31.9078C40.0769 32.1634 40.0818 32.4191 40.0864 32.6748C40.4739 32.4907 40.7306 32.2634 40.932 31.884C41.0236 31.5407 41.0363 31.2121 41.0361 30.8596C41.0363 30.8065 41.0365 30.7535 41.0367 30.6987C41.0373 30.5236 41.0374 30.3485 41.0375 30.1734C41.0377 30.0509 41.0379 29.9284 41.0381 29.8059C41.0384 29.5491 41.0385 29.2922 41.0385 29.0354C41.0385 28.7082 41.0393 28.381 41.0403 28.0537C41.041 27.8006 41.0411 27.5474 41.041 27.2942C41.0411 27.1737 41.0414 27.0532 41.0418 26.9326C41.0581 25.7416 41.0581 25.7416 40.7666 24.5955C40.7424 24.5348 40.7182 24.4741 40.6933 24.4116C40.6219 24.2702 40.5602 24.1852 40.4394 24.084ZM37.3217 25.0708C37.287 25.1141 37.2523 25.1574 37.2165 25.2021C36.5325 26.038 35.3236 26.5462 34.2629 26.6961C32.6545 26.7965 31.2959 26.5216 30.0529 25.4646C29.9597 25.3826 29.8672 25.2998 29.7756 25.2161C29.6897 25.1224 29.6897 25.1224 29.6159 25.1288C29.5242 26.0143 29.4577 26.8997 29.4026 27.7881C29.3947 27.9139 29.3867 28.0398 29.3788 28.1657C29.3595 28.4691 29.3406 28.7725 29.3218 29.076C29.3758 29.0868 29.3758 29.0868 29.4309 29.0978C29.502 29.1126 29.502 29.1126 29.5745 29.1277C29.6214 29.1373 29.6684 29.1469 29.7167 29.1567C30.0727 29.2502 30.2887 29.491 30.4982 29.7725C30.6075 29.9942 30.6312 30.1732 30.633 30.4187C30.6341 30.5245 30.6341 30.5245 30.6352 30.6324C30.6354 30.7082 30.6355 30.784 30.6356 30.862C30.636 30.9412 30.6364 31.0203 30.6368 31.0995C30.6375 31.2653 30.6377 31.431 30.6377 31.5967C30.6377 31.8081 30.6393 32.0195 30.6413 32.2308C30.6426 32.3943 30.6428 32.5578 30.6428 32.7213C30.643 32.8368 30.6443 32.9523 30.6456 33.0678C30.6431 33.5426 30.6014 33.8735 30.2779 34.2435C30.2286 34.2823 30.2286 34.2823 30.1784 34.3219C30.1294 34.3621 30.1294 34.3621 30.0793 34.4031C29.8291 34.5643 29.599 34.6074 29.3034 34.6266C29.2091 34.6332 29.2091 34.6332 29.1129 34.6398C29.0654 34.6426 29.0178 34.6455 28.9688 34.6484C28.8968 34.8616 28.8946 35.0612 28.8916 35.2833C28.8899 35.3249 28.8882 35.3664 28.8865 35.4093C28.884 35.6131 28.8921 35.7278 29.0178 35.893C29.2306 36.044 29.4034 36.0489 29.6581 36.0493C29.7282 36.0495 29.7983 36.0498 29.8705 36.05C29.9476 36.05 30.0246 36.05 30.1039 36.05C30.1857 36.0501 30.2676 36.0503 30.3494 36.0505C30.5718 36.0511 30.7943 36.0512 31.0167 36.0512C31.2023 36.0513 31.388 36.0515 31.5736 36.0517C32.0116 36.0522 32.4496 36.0523 32.8877 36.0523C33.3395 36.0522 33.7914 36.0529 34.2432 36.0538C34.6311 36.0545 35.0191 36.0548 35.407 36.0548C35.6387 36.0548 35.8703 36.055 36.102 36.0556C36.32 36.0561 36.5379 36.0561 36.7559 36.0557C36.8739 36.0556 36.9919 36.0561 37.1099 36.0566C37.1804 36.0564 37.2508 36.0561 37.3234 36.0559C37.3845 36.0559 37.4456 36.0559 37.5085 36.056C37.6861 36.0405 37.8108 36.0066 37.9688 35.9254C38.1126 35.7125 38.1004 35.6053 38.0975 35.3522C38.0971 35.2817 38.0967 35.2113 38.0963 35.1386C38.0879 34.9678 38.0676 34.8143 38.0276 34.6484C37.9821 34.6469 37.9366 34.6454 37.8897 34.6439C37.3836 34.6167 37.0155 34.5442 36.6563 34.1768C36.3133 33.7324 36.2956 33.2095 36.3004 32.6708C36.3003 32.5731 36.3003 32.5731 36.3003 32.4736C36.3004 32.3369 36.301 32.2002 36.302 32.0635C36.3033 31.8551 36.3032 31.6468 36.3028 31.4384C36.3031 31.305 36.3035 31.1716 36.304 31.0382C36.304 30.9764 36.3039 30.9146 36.3039 30.8509C36.309 30.3201 36.356 29.8531 36.7581 29.4585C37.0478 29.2064 37.3017 29.1346 37.6747 29.076C37.6451 28.6395 37.6155 28.2029 37.5857 27.7665C37.5718 27.5637 37.5581 27.361 37.5443 27.1582C37.5285 26.9245 37.5126 26.6908 37.4966 26.4571C37.4917 26.3852 37.4869 26.3132 37.4819 26.2392C37.4551 25.8488 37.4234 25.4597 37.3806 25.0708C37.3611 25.0708 37.3417 25.0708 37.3217 25.0708ZM28.0902 30.3385C27.8111 30.7724 27.8311 31.2334 27.8326 31.729C27.8328 31.8542 27.8314 31.9794 27.8299 32.1046C27.8157 32.7948 27.8157 32.7948 28.1027 33.4045C28.3686 33.6479 28.6786 33.7219 29.0313 33.7378C29.2767 33.7186 29.414 33.6831 29.6159 33.5455C29.7144 33.3499 29.7485 33.1893 29.7497 32.9721C29.7502 32.9175 29.7508 32.8628 29.7514 32.8066C29.7513 32.7482 29.7513 32.6898 29.7512 32.6297C29.7516 32.5388 29.7516 32.5388 29.752 32.4461C29.7523 32.3181 29.7524 32.1901 29.7521 32.0621C29.7519 31.8667 29.7533 31.6713 29.7548 31.4759C29.7549 31.3514 29.755 31.2269 29.7549 31.1024C29.7554 31.0441 29.756 30.9859 29.7565 30.9259C29.7545 30.6148 29.7386 30.3876 29.5571 30.1208C29.1332 29.8579 28.4246 29.9754 28.0902 30.3385ZM37.3806 30.1788C37.282 30.3745 37.248 30.5351 37.2467 30.7523C37.2462 30.8069 37.2456 30.8615 37.245 30.9178C37.2451 30.9762 37.2452 31.0345 37.2452 31.0947C37.245 31.1553 37.2447 31.2159 37.2444 31.2783C37.2441 31.4063 37.2441 31.5343 37.2443 31.6622C37.2445 31.8577 37.2431 32.053 37.2417 32.2484C37.2415 32.373 37.2415 32.4975 37.2415 32.622C37.241 32.6802 37.2405 32.7385 37.2399 32.7985C37.242 33.1095 37.2578 33.3367 37.4394 33.6036C37.7143 33.7741 38.0336 33.7531 38.3417 33.6927C38.6765 33.5998 38.8409 33.4876 39.0276 33.1973C39.1665 32.7968 39.1651 32.4128 39.1638 31.9954C39.1636 31.8702 39.165 31.745 39.1665 31.6198C39.1807 30.9296 39.1807 30.9296 38.8938 30.3199C38.6278 30.0765 38.3179 30.0025 37.9651 29.9866C37.7198 30.0058 37.5825 30.0413 37.3806 30.1788Z" fill="#87888D"/>
<circle cx="34" cy="63" r="1.5" stroke="#87888D"/>
</svg>
