<svg width="38" height="42" viewBox="0 0 38 42" fill="none" xmlns="http://www.w3.org/2000/svg">
<g filter="url(#filter0_f_399_2378)">
<path d="M34 21.0084C34 30.0376 27.2843 37.3572 19 37.3572C10.7157 37.3572 4 30.0376 4 21.0084C4 11.9793 10.7157 4.65967 19 4.65967C27.2843 4.65967 34 11.9793 34 21.0084Z" fill="#FF6B00" fill-opacity="0.5"/>
</g>
<path d="M27 21.0084C27 25.824 23.4183 29.7278 19 29.7278C14.5817 29.7278 11 25.824 11 21.0084C11 16.1928 14.5817 12.2891 19 12.2891C23.4183 12.2891 27 16.1928 27 21.0084Z" fill="white"/>
<path d="M26 21.0083C26 25.222 22.866 28.6378 19 28.6378C15.134 28.6378 12 25.222 12 21.0083C12 16.7947 15.134 13.3789 19 13.3789C22.866 13.3789 26 16.7947 26 21.0083Z" fill="#FF6B00"/>
<defs>
<filter id="filter0_f_399_2378" x="0" y="0.659668" width="38" height="40.6978" filterUnits="userSpaceOnUse" color-interpolation-filters="sRGB">
<feFlood flood-opacity="0" result="BackgroundImageFix"/>
<feBlend mode="normal" in="SourceGraphic" in2="BackgroundImageFix" result="shape"/>
<feGaussianBlur stdDeviation="2" result="effect1_foregroundBlur_399_2378"/>
</filter>
</defs>
</svg>
