<svg width="52" height="52" viewBox="0 0 52 52" fill="none" xmlns="http://www.w3.org/2000/svg">
<path d="M46.8614 42.5246C46.9113 43.0602 46.9851 43.6873 46.6159 44.1293C46.3133 44.4184 45.8453 44.3768 45.4646 44.4902C44.1054 44.7866 42.7315 45.0331 41.341 45.1142C39.0114 45.3482 36.6943 45.6727 34.3834 46.0356C29.5994 46.8947 24.8019 47.8099 19.9763 48.4068C16.9208 48.8228 13.911 49.7287 10.8139 49.7536C10.5916 49.7577 10.3697 49.7311 10.1546 49.6746H10.1442C10.1369 49.6881 10.1286 49.7006 10.1202 49.7131C10.0977 49.7512 10.0664 49.7834 10.029 49.8071C9.99159 49.8308 9.94907 49.8453 9.90496 49.8493H9.89041C9.76035 49.8236 9.64503 49.7492 9.56801 49.6413C9.42448 49.4635 9.40577 49.2253 9.36 49.0079C9.31424 48.7906 9.28304 48.5992 9.24352 48.3954C8.9239 46.7106 8.60358 45.0258 8.28256 43.341L7.29352 38.141C6.96211 36.3813 6.62966 34.6223 6.29616 32.864C5.96475 31.1231 5.63369 29.3828 5.30296 27.6432C4.97224 25.9037 4.64118 24.1634 4.30976 22.4224C3.98251 20.7064 3.65526 18.987 3.328 17.264C3.29195 17.0782 3.25728 16.8914 3.224 16.7035C3.19947 16.5624 3.2308 16.4173 3.31136 16.2989C3.34312 16.2455 3.38915 16.202 3.44427 16.1734C3.49939 16.1447 3.56141 16.132 3.62336 16.1367C3.74768 16.1556 3.85966 16.2224 3.93536 16.3228C4.00487 16.4212 4.04655 16.5366 4.056 16.6567C4.42208 16.5329 5.02008 16.5433 5.23224 16.4955C7.75424 16.2178 10.2679 15.8632 12.7764 15.4836C19.6758 14.4051 26.6084 13.3796 33.5941 13.0749C35.2466 13.0354 36.8961 12.9116 38.5486 12.9293C38.897 12.9002 39.2298 13.0604 39.287 13.4348C39.4254 13.8778 39.5356 14.3323 39.6521 14.7816C40.0598 16.1419 40.2626 17.5448 40.4144 18.952C40.7415 21.599 41.2165 24.2256 41.8371 26.8196C42.224 28.6136 42.5256 30.4252 42.9489 32.2109C43.4325 34.0257 43.9889 35.8291 44.8542 37.5014C45.656 39.1165 46.7262 40.6755 46.8614 42.5246Z" fill="#D96308"/>
<path d="M41.704 35.4952C41.859 36.5612 42.0836 37.6792 41.7633 38.7348C41.4378 39.7571 40.3198 40.1471 39.442 40.586C39.1612 40.69 38.8919 40.8907 38.6038 40.9853C38.5117 41.0681 38.4088 41.1381 38.298 41.1933C34.8567 43.0653 30.992 43.8973 27.2262 44.8562C24.1634 45.63 21.0413 46.1396 17.9088 46.5389C17.0207 46.6523 16.1304 46.7469 15.2412 46.8582C14.6796 46.9362 14.1159 47.0173 13.5502 47.0662C13.3016 47.0725 13.0302 47.1453 12.8045 46.9955C12.7209 46.947 12.6588 46.8686 12.6308 46.7761C12.6135 46.7809 12.5957 46.784 12.5778 46.7854H12.5539C12.454 46.7797 12.3592 46.7397 12.2855 46.6721C12.1711 46.561 12.0977 46.4143 12.0775 46.2561C12.0287 46.0481 11.9798 45.8453 11.9299 45.6404L11.6335 44.3976L11.024 41.8361C10.6122 40.1111 10.2 38.386 9.78745 36.661C9.37492 34.936 8.96343 33.2131 8.55297 31.4922C8.14945 29.8026 7.74559 28.1129 7.34137 26.4233L6.14329 21.3949C5.94223 20.5545 5.74116 19.7135 5.54009 18.8718L5.24369 17.6238C5.19689 17.4293 5.15113 17.2349 5.10433 17.0404L5.04193 16.7825C5.0093 16.6722 4.99662 16.5571 5.00449 16.4424C5.01389 16.3316 5.04954 16.2247 5.10849 16.1304C5.14257 16.0805 5.1897 16.0409 5.24473 16.016C5.28546 16.002 5.32891 15.9978 5.37156 16.0038C5.41421 16.0097 5.45485 16.0257 5.49017 16.0503C5.72001 15.5771 6.55929 15.392 6.96801 15.1632C10.9408 13.6625 15.1611 13.0541 19.344 12.4821C21.9139 12.1503 24.5139 12.1701 27.0941 11.9849C28.6895 11.856 30.2817 11.7031 31.8583 11.4181C32.941 11.3089 35.619 10.5206 36.3844 11.3516C36.6725 11.7946 36.6798 12.3635 36.8202 12.8627C37.0074 13.7145 37.1779 14.5704 37.3683 15.4221C38.4519 20.3361 39.7311 25.2054 40.741 30.135C41.1247 31.9113 41.4492 33.696 41.704 35.4952Z" fill="#FE8329"/>
<path d="M50.3298 41.6926C50.3404 41.738 50.34 41.7853 50.3286 41.8305C50.3172 41.8758 50.2952 41.9176 50.2643 41.9526C50.2054 42.0302 50.1315 42.0953 50.047 42.1439C49.9625 42.1925 49.8691 42.2236 49.7724 42.2354L49.2128 42.3238C47.5031 42.5963 45.7937 42.8674 44.0846 43.1371L38.8742 43.9618C37.136 44.2392 35.3982 44.5144 33.6607 44.7876C31.9232 45.0608 30.1954 45.3343 28.4773 45.6082L23.2461 46.4402C21.5162 46.7133 19.7867 46.9872 18.0576 47.2618L17.315 47.3793C17.2307 47.3962 17.1451 47.4059 17.0591 47.4084C16.9961 47.4093 16.9333 47.3988 16.874 47.3772C16.8293 47.3595 16.787 47.3361 16.7482 47.3075C16.7238 47.3409 16.6927 47.3687 16.6568 47.3893C16.621 47.4099 16.5813 47.4228 16.5402 47.4271H16.5184C16.4105 47.4258 16.3061 47.3893 16.2209 47.3231C16.1128 47.2272 16.0357 47.1012 15.9994 46.9612C15.9301 46.7802 15.8607 46.6 15.7914 46.4204L15.3359 45.2317C15.0204 44.4142 14.706 43.5965 14.3926 42.7783L12.5206 37.8986L10.6184 32.9472C9.9875 31.3061 9.36003 29.6677 8.73603 28.0322C8.09747 26.3682 7.45926 24.7069 6.82139 23.0485C6.31734 21.7457 5.81536 20.4416 5.31547 19.136C5.19128 19.0769 5.08397 18.9875 5.00347 18.876C4.93801 18.7596 4.89647 18.6313 4.88128 18.4986C4.8661 18.3659 4.87759 18.2315 4.91507 18.1033L4.89635 18.0461C4.86308 17.9231 4.86308 17.7936 4.89635 17.6706C4.92131 17.5729 4.99203 17.4231 5.10435 17.4013C5.17524 17.3907 5.24767 17.4016 5.31235 17.4325C5.51617 17.2307 5.79097 17.1168 6.07779 17.1153C9.08235 17.2078 12.0911 16.9499 15.0717 16.5766C17.6291 16.3134 20.2145 16.3686 22.7552 15.9266C26.0739 15.4066 29.3675 14.7014 32.7247 14.4612C35.359 14.2397 38.0151 14.2532 40.637 13.8861C40.7075 13.8654 40.779 13.8484 40.8512 13.8351C40.8065 13.7311 40.7841 13.6187 40.7858 13.5055C40.7874 13.3922 40.8129 13.2806 40.8606 13.1778C29.1752 14.0036 17.4273 15.184 5.85003 16.771C5.37267 16.5495 5.71379 15.9921 6.14331 15.9817C7.10843 15.782 8.07875 15.6208 9.05531 15.4752C13.3963 14.9552 17.7684 14.4248 22.1073 13.9994C28.4035 13.3401 34.7079 12.7681 41.0239 12.3458C41.4212 12.324 41.8236 12.2647 42.2188 12.324C42.718 12.428 42.6879 13.0322 42.3093 13.2881C42.131 13.461 41.8985 13.5672 41.651 13.5886C41.6905 13.7353 41.7259 13.8819 41.755 14.0296C41.9724 14.248 42.0212 14.5974 41.9214 14.9354C42.3696 17.3441 42.925 19.7288 43.548 22.1C44.4226 25.6298 45.3097 29.1574 46.5691 32.5718C47.327 34.6247 48.159 36.6486 49.0652 38.6433C49.347 39.2579 49.6371 39.8674 49.9242 40.4789C50.0396 40.8283 50.3319 41.1913 50.2362 41.5657C50.2773 41.5997 50.3095 41.6432 50.3298 41.6926Z" fill="#FED732"/>
<path d="M21.2826 29.2708C21.3335 29.4788 21.4448 29.6868 21.4001 29.9C21.0881 30.8433 19.8307 30.8183 19.0081 30.965C18.3903 31.069 17.7726 31.1636 17.1517 31.2447C15.9432 31.4454 14.7659 31.9041 13.5283 31.9051C12.8149 31.7751 12.636 30.94 12.2918 30.4086C11.2518 28.7217 10.8545 26.7831 10.3751 24.8862C10.1359 23.7193 8.6445 20.8822 11.0157 21.2701C11.4078 21.3543 11.8477 21.1806 12.2013 21.4074C13.7093 21.2586 15.2173 21.1047 16.7253 20.9633C17.0966 20.9394 17.471 20.8749 17.8402 20.879C18.4215 20.9186 18.9135 23.5019 19.3087 24.1228C19.6522 24.8094 19.9608 25.513 20.2332 26.2309C20.6925 27.203 21.0444 28.2224 21.2826 29.2708ZM41.6094 25.7255C41.9827 26.6614 42.6494 27.5714 42.6411 28.6094C42.5142 29.3176 41.6905 29.458 41.1029 29.6098C38.9543 30.0113 36.7713 30.2235 34.5935 30.3753C33.7043 30.238 33.5535 29.147 33.2519 28.4575C32.8443 27.2387 32.5718 25.9719 32.2379 24.7333C31.9436 23.6195 31.4059 22.6034 30.9078 21.5821C30.5583 21.4479 30.5511 21.0444 30.8849 20.8718C31.6462 20.6773 32.4719 20.7085 33.2551 20.6066C35.1489 20.3819 37.0469 20.2363 38.948 20.1032C39.4971 20.1386 39.6136 20.8021 39.7488 21.2285C39.884 21.6549 40.0307 22.0761 40.1898 22.4931C40.6307 23.5841 41.1674 24.6345 41.6094 25.7255ZM36.4947 39C36.6267 39.4753 36.1203 39.7114 35.7355 39.7894C35.1832 39.9526 34.6039 40.093 34.0527 40.2054C32.3305 40.5569 30.5906 40.9396 28.8288 40.9833C27.8065 40.9833 27.4591 39.4233 27.0431 38.6891C26.4743 37.5086 25.9626 36.2783 25.6797 34.996C25.5913 34.3429 25.2377 33.7428 25.1909 33.0897C25.2211 32.7579 25.4592 32.4865 25.7691 32.7652C27.6796 32.5166 29.587 32.0798 31.5214 32.0289C32.3045 32.0382 33.2644 31.7855 33.5951 32.7257C34.3803 34.0673 34.9471 35.5118 35.5368 36.9481C35.8332 37.6386 36.2295 38.2918 36.4947 39Z" fill="#FEAFD0"/>
<path d="M30.9587 28.9442C32.1069 31.096 30.237 30.992 28.652 30.992C27.2418 30.915 25.8295 31.0606 24.4223 30.9857C22.9247 30.9483 22.5597 28.8413 22.1052 27.716C21.5124 25.8866 21.0881 24.0073 20.5858 22.1541C20.3091 22.0105 20.3861 21.6413 20.6243 21.4968C21.138 21.2669 21.735 21.2337 22.2831 21.1068C23.4193 20.91 24.5702 20.8095 25.7234 20.8062C26.52 20.8478 27.3603 20.7137 28.1351 20.905C28.4981 21.1234 28.5116 21.633 28.7144 21.97C29.0947 22.7649 29.4311 23.5801 29.7222 24.4119C30.2755 25.8856 30.3971 27.4768 30.9587 28.9442ZM25.2003 39.5013C25.6599 40.534 26.0115 40.9999 24.6012 41.2693C23.1452 41.7549 21.58 41.887 20.0575 41.8766C19.3513 41.9151 18.6451 42.0441 17.9369 42.0077C16.7929 42.0514 16.5412 40.847 16.2459 39.9818C15.8163 38.8315 15.3775 37.6729 15.1591 36.4603C15.0696 36.0547 14.9625 35.6543 14.8575 35.2529C14.794 34.9502 14.6391 34.6393 14.7327 34.3273C14.3167 33.9206 14.9022 33.5712 15.3109 33.5993C15.9869 33.5195 16.6636 33.4433 17.341 33.3705C18.4507 33.2342 19.5707 33.2311 20.6856 33.1573C21.1016 33.1219 21.5083 33.0761 21.9139 33.0013C22.0751 32.9742 22.2383 32.9222 22.3964 32.9877C22.6148 33.0678 22.671 33.3049 22.7261 33.5077C22.8478 33.8988 23.0111 34.3678 23.1338 34.7225C23.7287 36.3553 24.5513 37.8924 25.2003 39.5013ZM45.4823 35.672C45.6903 36.4385 46.8427 38.0765 45.7163 38.5133C45.2463 38.6641 44.746 38.6963 44.2603 38.8013C43.0071 39.0686 41.755 39.338 40.4903 39.5429C40.07 39.639 39.6389 39.6792 39.208 39.6625C37.7052 39.4201 37.1925 36.6257 36.7661 35.3849C36.5581 34.3543 36.3137 33.3205 35.8738 32.3689C35.4515 32.1609 35.7105 31.6409 36.1036 31.6066C36.8469 31.468 37.5926 31.3411 38.3407 31.226C39.858 31.018 41.3723 30.6935 42.9011 30.6155C43.5812 30.7049 43.6811 31.5266 43.8901 32.0528C44.0461 32.4761 44.2021 32.8983 44.3799 33.3153C44.7096 34.1182 45.1568 34.8701 45.4823 35.672Z" fill="white"/>
<path d="M44.6784 12.8461C45.0071 15.5033 40.7264 15.6073 38.9085 15.8246C27.9511 16.6743 16.9749 17.2806 6.0445 18.3716C3.82098 18.2114 2.04154 16.1137 1.80962 13.9672C1.70042 13.3026 1.58394 12.6152 1.72954 11.9485C2.0249 10.8305 2.78202 9.74165 3.91354 9.36413C4.2713 9.01573 4.8693 9.22165 5.32482 9.13637C6.2993 9.08229 7.27482 9.03237 8.2493 8.98453C14.2023 8.66525 20.1698 8.61533 26.1175 8.19517C29.3603 7.94037 32.5999 7.61589 35.8519 7.50981C37.3859 7.46717 38.9626 7.25605 40.4519 7.73029C41.5376 8.02045 42.6234 8.54877 43.2692 9.49829C43.9255 10.504 44.512 11.648 44.6784 12.8461Z" fill="#FE8329"/>
<path d="M40.6734 6.032C40.9315 6.77271 41.0363 7.55815 40.9816 8.34063C40.9269 9.12311 40.7137 9.8863 40.355 10.5839C39.9963 11.2814 39.4995 11.8988 38.8949 12.3985C38.2903 12.8983 37.5905 13.2699 36.8379 13.4909C36.6182 13.5566 36.3944 13.6081 36.1681 13.6448C35.9544 13.6861 35.7377 13.7097 35.5202 13.7155C35.4222 13.716 35.3244 13.7077 35.2279 13.6906C34.7672 13.6042 34.3075 13.3234 34.1266 12.8742C34.0049 12.5684 34.1599 12.273 34.3907 12.0723C34.5662 11.9195 34.7682 11.8 34.9867 11.7198C35.2425 11.6272 35.5067 11.6158 35.7708 11.5804H35.776C35.9455 11.5502 36.113 11.5118 36.2783 11.466C36.4437 11.4202 36.5779 11.362 36.7235 11.2986C36.8691 11.2351 37.0261 11.1436 37.1727 11.0562C37.3017 10.971 37.4268 10.8805 37.5482 10.7848C37.6771 10.6735 37.8009 10.557 37.9195 10.4333C38.038 10.3095 38.1275 10.1858 38.2221 10.0568C38.3167 9.92784 38.3989 9.77808 38.479 9.63248C38.5591 9.48688 38.609 9.35272 38.6662 9.2092C38.7234 9.06568 38.7535 8.93672 38.7899 8.7984C38.8243 8.63408 38.8523 8.4708 38.8731 8.3044C38.8835 8.15464 38.8898 8.00696 38.8898 7.8572C38.8815 7.68872 38.8669 7.52232 38.8451 7.35592C38.8232 7.18952 38.7775 7.03768 38.7348 6.8796C38.6922 6.72152 38.6256 6.5676 38.5622 6.4168C38.4987 6.266 38.4135 6.12352 38.3292 5.98208C38.245 5.84064 38.1431 5.71376 38.0411 5.5848C37.9392 5.45584 37.8331 5.35184 37.7167 5.24056C37.5867 5.12616 37.4535 5.018 37.3142 4.91608C37.1852 4.8308 37.0542 4.75176 36.919 4.67688C36.7838 4.602 36.6299 4.54064 36.4811 4.48136C36.3324 4.42208 36.2024 4.39192 36.0599 4.35448C35.8842 4.31808 35.7095 4.29104 35.5316 4.2692C35.385 4.26088 35.2404 4.25568 35.0938 4.25568C34.9471 4.25568 34.7891 4.27856 34.6362 4.29832C34.4833 4.31808 34.3075 4.36592 34.1453 4.4096C33.9831 4.45328 33.8333 4.52192 33.6731 4.58848C33.5369 4.65504 33.4027 4.72576 33.2717 4.79648C33.1251 4.8932 32.9836 4.99408 32.8463 5.10848C32.7091 5.22288 32.5936 5.3404 32.4761 5.46416C32.3804 5.5744 32.2899 5.68776 32.2015 5.80528C32.1052 5.9488 32.0154 6.09683 31.9322 6.24936C31.8719 6.37416 31.8147 6.49896 31.7627 6.62792C31.6971 6.81304 31.641 7.00024 31.6119 7.12088C31.5487 7.4172 31.3971 7.68737 31.1771 7.89568C30.94 8.10368 30.6062 8.27424 30.2807 8.16608C30.0816 8.09517 29.908 7.9671 29.7815 7.79792C29.6374 7.59887 29.5497 7.3646 29.5277 7.11984C29.513 6.90294 29.5395 6.68522 29.6057 6.47816C29.6327 6.36792 29.666 6.25768 29.7024 6.15056C29.8682 5.63654 30.1063 5.14874 30.4096 4.70184C30.7291 4.23128 31.1143 3.80892 31.5536 3.4476C31.9787 3.10784 32.447 2.82596 32.9462 2.60936C33.9056 2.19491 34.9614 2.05556 35.9955 2.20688C37.0597 2.35746 38.0626 2.79582 38.896 3.47464C39.7092 4.15034 40.3235 5.03428 40.6734 6.032ZM29.1897 7.176C29.4224 8.16283 29.3735 9.19513 29.0486 10.1556C28.7238 11.116 28.136 11.966 27.352 12.609C26.6235 13.1991 25.7559 13.593 24.8321 13.753C24.574 13.8009 24.3125 13.8277 24.05 13.833C23.9457 13.8333 23.8415 13.8267 23.738 13.8133C23.4908 13.7809 23.2557 13.6872 23.0539 13.5408C22.8521 13.3944 22.6901 13.1999 22.5826 12.975C22.5195 12.8409 22.5055 12.6889 22.5431 12.5455C22.6086 12.3732 22.7228 12.2237 22.8717 12.115C23.0153 12.0017 23.1761 11.9122 23.348 11.8498C23.5442 11.7779 23.7507 11.7379 23.9595 11.7312H23.9699H24.0313C24.1828 11.7234 24.3338 11.7078 24.4837 11.6844C24.6272 11.6563 24.7676 11.623 24.907 11.5804C25.0463 11.5378 25.1888 11.4764 25.323 11.4182C25.4571 11.3599 25.5871 11.2788 25.7161 11.1998C25.8451 11.1207 25.9439 11.0375 26.0541 10.9491C26.174 10.843 26.2884 10.7311 26.3973 10.6132C26.4836 10.5092 26.5647 10.4052 26.6438 10.3012C26.7249 10.1764 26.8008 10.0485 26.8715 9.9164C26.9423 9.78432 26.9818 9.67512 27.0296 9.55032C27.0775 9.42552 27.1128 9.28512 27.1471 9.14992C27.1815 9.01472 27.196 8.87536 27.2127 8.73392C27.2293 8.59248 27.2272 8.44792 27.2251 8.30336C27.2231 8.1588 27.2012 8.01112 27.1794 7.86552C27.1575 7.71992 27.1128 7.566 27.0702 7.41832C27.0244 7.28624 26.9745 7.15728 26.9194 7.02832C26.8643 6.89936 26.7842 6.7704 26.7114 6.6456C26.6386 6.5208 26.5294 6.3908 26.4306 6.26912C26.3349 6.16512 26.2371 6.06112 26.1331 5.96336C26.0291 5.8656 25.9199 5.7876 25.8076 5.70648C25.6953 5.62536 25.5487 5.54424 25.4145 5.47144C25.2803 5.39864 25.1607 5.35704 25.0307 5.30712C24.9007 5.2572 24.7749 5.23016 24.648 5.2C24.5211 5.16984 24.3662 5.15008 24.2227 5.13344C24.0791 5.1168 23.9294 5.12096 23.7827 5.12408C23.6361 5.1272 23.504 5.15008 23.3667 5.16984C23.2295 5.1896 23.1047 5.22704 22.9736 5.2624C22.8197 5.3144 22.6685 5.37299 22.5202 5.43816C22.3839 5.50784 22.2508 5.58168 22.1208 5.66176C21.9908 5.74184 21.8931 5.82608 21.7839 5.91448C21.6747 6.00288 21.5696 6.1152 21.4719 6.22648C21.3741 6.33776 21.2847 6.45632 21.1983 6.578C21.112 6.69968 21.06 6.8016 20.9966 6.91808C20.9331 7.03456 20.8759 7.18224 20.8229 7.31848C20.7699 7.45472 20.7407 7.58472 20.7075 7.72096C20.6929 7.79168 20.6794 7.86136 20.669 7.92896C20.6436 8.147 20.5784 8.35852 20.4766 8.55296C20.2582 8.94712 19.837 9.25912 19.369 9.14056C18.9655 9.03656 18.6628 8.60912 18.5911 8.216C18.5546 8.00052 18.5546 7.78045 18.5911 7.56496C18.6119 7.42456 18.6451 7.28312 18.6784 7.14896C18.807 6.62929 19.0098 6.13086 19.2806 5.66904C19.8422 4.69144 20.7366 3.94784 21.7558 3.48504C22.4805 3.16671 23.2663 3.01135 24.0576 3.02994C24.849 3.04853 25.6266 3.24062 26.3356 3.59263C27.0446 3.94465 27.6677 4.44801 28.1608 5.06718C28.654 5.68635 29.0052 6.40624 29.1897 7.176ZM17.914 7.74384C18.3155 9.88936 17.4814 12.1742 15.834 13.5938C15.4751 13.9054 15.0827 14.1761 14.664 14.4009C14.4173 14.5468 14.1413 14.6363 13.8559 14.663H13.7519C13.4721 14.6699 13.196 14.5978 12.9553 14.455C12.8588 14.4015 12.7756 14.327 12.7119 14.237C12.6481 14.147 12.6055 14.0437 12.5871 13.935C12.557 13.727 12.661 13.5117 12.7556 13.338C12.8956 13.0963 13.0891 12.8899 13.3214 12.7348C13.4297 12.6654 13.5426 12.6036 13.6594 12.5497C13.7301 12.5133 13.7998 12.4738 13.8674 12.4342C14.0296 12.3316 14.187 12.2221 14.3395 12.1056C14.4758 11.9902 14.6068 11.8706 14.7347 11.7447C14.8658 11.6012 14.9899 11.4525 15.1071 11.2986C15.2048 11.1561 15.2974 11.0115 15.3847 10.8618C15.4731 10.6902 15.5543 10.5165 15.6291 10.3418C15.704 10.167 15.7519 9.97048 15.8018 9.78016C15.8517 9.58984 15.8663 9.42864 15.8881 9.25184C15.8995 9.1 15.9058 8.9492 15.9089 8.79736C15.9016 8.61536 15.8891 8.43544 15.8673 8.25448C15.8455 8.07352 15.7966 7.8832 15.7508 7.69912C15.7051 7.51504 15.6312 7.34344 15.5605 7.16872C15.4898 6.994 15.4076 6.85672 15.3223 6.70072C15.2183 6.53744 15.1143 6.3804 14.9968 6.22752C14.8793 6.07464 14.7545 5.95088 14.6245 5.8188C14.4945 5.68672 14.3416 5.57024 14.1919 5.4548C14.0421 5.33936 13.8799 5.2468 13.7145 5.1532C13.5491 5.0596 13.3651 4.98368 13.1841 4.91088C13.0212 4.85472 12.8558 4.8048 12.688 4.76112C12.531 4.72888 12.376 4.69976 12.2159 4.67688C12.0079 4.65816 11.7999 4.64984 11.5919 4.64984C11.414 4.66024 11.2372 4.67584 11.0604 4.69872C10.8992 4.72888 10.7411 4.7632 10.582 4.80272C10.3917 4.862 10.2055 4.92752 10.0204 5.00344C9.86129 5.07832 9.70841 5.15944 9.55345 5.24576C9.39433 5.34976 9.24145 5.45376 9.08961 5.57024C8.93777 5.68672 8.81921 5.80736 8.69129 5.93424C8.56337 6.06112 8.45417 6.20464 8.34289 6.35024C8.22849 6.51456 8.12137 6.68408 8.02153 6.8588C7.93729 7.02416 7.86137 7.19264 7.79169 7.36424C7.72201 7.53584 7.68353 7.696 7.63881 7.86448C7.59409 8.03296 7.57121 8.21288 7.54833 8.38448C7.54209 8.45832 7.53689 8.5332 7.52961 8.60808C7.50669 8.84302 7.43287 9.07015 7.31329 9.27368C7.13961 9.5784 6.80681 9.8228 6.44801 9.81448C5.99145 9.80512 5.67009 9.40472 5.51201 9.01888C5.36953 8.66944 5.43921 8.2524 5.49121 7.89048C5.56683 7.3826 5.70661 6.88636 5.90721 6.41368C6.32472 5.41167 6.99419 4.53463 7.85065 3.86769C8.70711 3.20074 9.72145 2.76656 10.7952 2.60728C11.8837 2.45204 12.9938 2.57881 14.0192 2.97544C14.994 3.35091 15.8565 3.96957 16.5246 4.77256C17.2402 5.62203 17.7195 6.64506 17.914 7.73864V7.74384Z" fill="#0D2396"/>
</svg>
