<svg width="68" height="72" viewBox="0 0 68 72" fill="none" xmlns="http://www.w3.org/2000/svg">
<rect x="0.5" y="0.5" width="67" height="71" rx="15.5" fill="#E0E0E0" fill-opacity="0.5"/>
<rect x="0.5" y="0.5" width="67" height="71" rx="15.5" stroke="#E0E0E0"/>
<path d="M32.7708 45.28V48.11H34.2508V49.03H32.7708V54.03H31.6908V45.28H32.7708ZM30.5908 46.81H28.7908V47.41C28.7908 48.2967 28.9874 49.0433 29.3808 49.65C29.7741 50.2433 30.2741 50.7167 30.8808 51.07L30.2008 51.89C29.7608 51.59 29.3608 51.2433 29.0008 50.85C28.6408 50.45 28.3808 50.03 28.2208 49.59C28.0408 50.07 27.7741 50.52 27.4208 50.94C27.0741 51.3533 26.6708 51.71 26.2108 52.01L25.5308 51.25C25.8308 51.0633 26.1074 50.85 26.3608 50.61C26.6208 50.37 26.8474 50.09 27.0408 49.77C27.2274 49.45 27.3741 49.1 27.4808 48.72C27.5941 48.34 27.6508 47.91 27.6508 47.43V46.81H25.8108V45.89H30.5908V46.81ZM40.73 47.36H39.17C39.19 47.4533 39.2067 47.55 39.22 47.65C39.2333 47.7433 39.24 47.84 39.24 47.94C39.24 48.1533 39.2133 48.36 39.16 48.56H40.73V47.36ZM35.57 47.94C35.57 48.14 35.6033 48.3233 35.67 48.49C35.7367 48.6567 35.8267 48.8033 35.94 48.93C36.06 49.05 36.1967 49.1433 36.35 49.21C36.51 49.2767 36.68 49.31 36.86 49.31C37.2133 49.31 37.5167 49.1833 37.77 48.93C38.0233 48.6633 38.15 48.3333 38.15 47.94C38.15 47.54 38.0233 47.2133 37.77 46.96C37.5167 46.7 37.2133 46.57 36.86 46.57C36.68 46.57 36.51 46.6033 36.35 46.67C36.1967 46.7367 36.06 46.8333 35.94 46.96C35.8267 47.08 35.7367 47.2233 35.67 47.39C35.6033 47.5567 35.57 47.74 35.57 47.94ZM42.01 54.24H36.46V51.17H37.56V53.33H42.01V54.24ZM34.48 47.94C34.48 47.6 34.54 47.29 34.66 47.01C34.7867 46.73 34.9567 46.4867 35.17 46.28C35.3833 46.0733 35.6333 45.91 35.92 45.79C36.2067 45.67 36.52 45.61 36.86 45.61C37.1867 45.61 37.4933 45.67 37.78 45.79C38.0733 45.91 38.3267 46.0733 38.54 46.28C38.62 46.36 38.6967 46.4467 38.77 46.54C38.8433 46.6267 38.9067 46.7233 38.96 46.83V46.44H40.73V45.28H41.81V51.78H40.73V49.48H38.96V49.07C38.9067 49.17 38.8433 49.2667 38.77 49.36C38.6967 49.4467 38.62 49.53 38.54 49.61C38.3267 49.8167 38.0733 49.98 37.78 50.1C37.4933 50.2133 37.1867 50.27 36.86 50.27C36.52 50.27 36.2067 50.2133 35.92 50.1C35.6333 49.98 35.3833 49.8167 35.17 49.61C34.9567 49.4033 34.7867 49.16 34.66 48.88C34.54 48.5933 34.48 48.28 34.48 47.94Z" fill="#87888D"/>
<g clip-path="url(#clip0_620_2389)">
<path fill-rule="evenodd" clip-rule="evenodd" d="M45.1145 33.3199L40.1225 26.1889L38.8748 24.375C38.8748 24.3851 38.8737 24.3949 38.8737 24.405L38.4263 23.766C38.0142 23.1769 37.3392 22.818 36.62 22.806C35.8966 22.7861 35.2145 23.1304 34.7828 23.7056L31.9137 27.5317L31.2702 26.5031C30.8641 25.8533 30.1643 25.4584 29.3978 25.4464C29.0967 25.4422 28.8016 25.5011 28.5271 25.6114L27.3053 26.7251L22.8766 33.3326C22.7225 33.5625 22.7078 33.8588 22.838 34.1029C22.9685 34.3474 23.2231 34.5 23.4998 34.5H44.4998C44.7796 34.5 45.0361 34.3444 45.1651 34.0965C45.2941 33.8482 45.2746 33.549 45.1145 33.3199ZM28.7393 27.2794L24.9053 33H33.5648L29.9982 27.2985C29.8628 27.0821 29.63 26.9505 29.3746 26.9468C29.114 26.9299 28.8815 27.0671 28.7393 27.2794ZM32.7661 28.8949L35.3341 33H43.0595L37.1971 24.6262C37.0598 24.4294 36.8348 24.3101 36.5952 24.306C36.3548 24.3101 36.1265 24.4144 35.9825 24.6064L32.7661 28.8949Z" fill="#87888D"/>
<path d="M40.1225 26.1889C40.2867 25.6001 40.3748 24.9923 40.3748 24.375C40.3748 20.6531 37.3467 17.625 33.6248 17.625C29.903 17.625 26.8748 20.6531 26.8748 24.375C26.8748 25.1869 27.0252 25.9736 27.3053 26.7251L28.5271 25.6114C28.4296 25.2094 28.3748 24.7969 28.3748 24.375C28.3748 21.48 30.7298 19.125 33.6248 19.125C36.5198 19.125 38.8748 21.48 38.8748 24.375L40.1225 26.1889Z" fill="#87888D"/>
<path d="M41.125 24.375C41.125 24.789 41.461 25.125 41.875 25.125H43.75C44.164 25.125 44.5 24.789 44.5 24.375C44.5 23.961 44.164 23.625 43.75 23.625H41.875C41.461 23.625 41.125 23.961 41.125 24.375ZM40.7706 21C40.8978 21 41.0268 20.9678 41.1449 20.8991L42.7686 19.9616C43.1275 19.7546 43.2501 19.296 43.0431 18.9371C42.8361 18.5783 42.3775 18.4553 42.0186 18.6626L40.3949 19.6001C40.036 19.8071 39.9134 20.2658 40.1204 20.6246C40.2595 20.8658 40.5115 21 40.7706 21ZM37.375 17.8796C37.4931 17.9479 37.6221 17.9805 37.7493 17.9805C38.0084 17.9805 38.2607 17.8459 38.3995 17.6055L39.337 15.9818C39.544 15.6229 39.4214 15.1643 39.0625 14.9573C38.7036 14.7495 38.245 14.8729 38.038 15.2318L37.1005 16.8555C36.8935 17.214 37.0161 17.6726 37.375 17.8796ZM33.625 16.875C34.039 16.875 34.375 16.539 34.375 16.125V14.25C34.375 13.836 34.039 13.5 33.625 13.5C33.211 13.5 32.875 13.836 32.875 14.25V16.125C32.875 16.539 33.211 16.875 33.625 16.875ZM28.8505 17.6051C28.9892 17.8459 29.2413 17.9801 29.5008 17.9801C29.6279 17.9801 29.7569 17.9479 29.875 17.8793C30.2339 17.6723 30.3565 17.2136 30.1495 16.8548L29.212 15.231C29.005 14.8729 28.5464 14.7495 28.1875 14.9569C27.8286 15.1639 27.706 15.6225 27.913 15.9814L28.8505 17.6051ZM24.4814 19.962L26.1051 20.8995C26.2232 20.9678 26.3522 21 26.4794 21C26.7385 21 26.9909 20.8654 27.1296 20.625C27.3366 20.2661 27.214 19.8075 26.8551 19.6005L25.2314 18.663C24.8729 18.4556 24.4139 18.5786 24.2069 18.9375C23.9999 19.2964 24.1229 19.755 24.4814 19.962ZM23.5 25.125H25.375C25.789 25.125 26.125 24.789 26.125 24.375C26.125 23.961 25.789 23.625 25.375 23.625H23.5C23.086 23.625 22.75 23.961 22.75 24.375C22.75 24.789 23.086 25.125 23.5 25.125Z" fill="#87888D"/>
<path fill-rule="evenodd" clip-rule="evenodd" d="M45.1145 33.3199L40.1225 26.1889L38.8748 24.375C38.8748 24.3851 38.8737 24.3949 38.8737 24.405L38.4263 23.766C38.0142 23.1769 37.3392 22.818 36.62 22.806C35.8966 22.7861 35.2145 23.1304 34.7828 23.7056L31.9137 27.5317L31.2702 26.5031C30.8641 25.8533 30.1643 25.4584 29.3978 25.4464C29.0967 25.4422 28.8016 25.5011 28.5271 25.6114L27.3053 26.7251L22.8766 33.3326C22.7225 33.5625 22.7078 33.8588 22.838 34.1029C22.9685 34.3474 23.2231 34.5 23.4998 34.5H44.4998C44.7796 34.5 45.0361 34.3444 45.1651 34.0965C45.2941 33.8483 45.2746 33.549 45.1145 33.3199ZM28.7393 27.2794L24.9053 33H33.5648L29.9982 27.2985C29.8628 27.0821 29.63 26.9505 29.3746 26.9468C29.114 26.9299 28.8815 27.0671 28.7393 27.2794ZM32.7661 28.8949L35.3341 33H43.0595L37.1971 24.6262C37.0598 24.4294 36.8348 24.3101 36.5952 24.306C36.3548 24.3101 36.1265 24.4144 35.9825 24.6064L32.7661 28.8949Z" fill="#87888D"/>
</g>
<circle cx="34" cy="63" r="1.5" stroke="#87888D"/>
<defs>
<clipPath id="clip0_620_2389">
<rect width="24" height="24" fill="white" transform="translate(22 12)"/>
</clipPath>
</defs>
</svg>
