<svg width="36" height="36" viewBox="0 0 36 36" fill="none" xmlns="http://www.w3.org/2000/svg">
<path d="M18 5.625C12.654 5.625 8.625 9.3075 8.625 13.5V15.768C8.74963 15.7559 8.87478 15.7499 9 15.75H12C12.5967 15.75 13.169 15.9871 13.591 16.409C14.0129 16.831 14.25 17.4033 14.25 18V25.5C14.25 26.0967 14.0129 26.669 13.591 27.091C13.169 27.5129 12.5967 27.75 12 27.75H9C8.00544 27.75 7.05161 27.3549 6.34835 26.6516C5.64509 25.9484 5.25 24.9946 5.25 24V19.5C5.25 18.45 5.6805 17.502 6.375 16.8225V13.5C6.375 7.752 11.748 3.375 18 3.375C24.252 3.375 29.625 7.752 29.625 13.5V16.8225C29.9818 17.1711 30.2652 17.5876 30.4584 18.0474C30.6516 18.5073 30.7508 19.0012 30.75 19.5V24C30.75 24.4925 30.653 24.9801 30.4646 25.4351C30.2761 25.89 29.9999 26.3034 29.6517 26.6516C29.3034 26.9999 28.89 27.2761 28.4351 27.4645C27.9801 27.653 27.4925 27.75 27 27.75H24C23.4033 27.75 22.831 27.5129 22.409 27.091C21.9871 26.669 21.75 26.0967 21.75 25.5V18C21.75 17.4033 21.9871 16.831 22.409 16.409C22.831 15.9871 23.4033 15.75 24 15.75H27C27.126 15.75 27.252 15.756 27.375 15.768V13.5C27.375 9.3075 23.346 5.625 18 5.625Z" fill="#474751"/>
</svg>
