<svg width="68" height="72" viewBox="0 0 68 72" fill="none" xmlns="http://www.w3.org/2000/svg">
<rect x="0.5" y="0.5" width="67" height="71" rx="15.5" fill="#E0E0E0" fill-opacity="0.5"/>
<rect x="0.5" y="0.5" width="67" height="71" rx="15.5" stroke="#E0E0E0"/>
<path d="M33.3108 54.24H27.7608V51.17H28.8608V53.33H33.3108V54.24ZM32.0308 45.28H33.1108V51.78H32.0308V48.48H30.3108V47.56H32.0308V45.28ZM26.0008 46.76V45.84H30.7608V46.76H28.9508V47.21C28.9508 47.5167 29.0041 47.8033 29.1108 48.07C29.2241 48.33 29.3808 48.57 29.5808 48.79C29.7741 49.01 29.9974 49.21 30.2508 49.39C30.5041 49.57 30.7808 49.7267 31.0808 49.86L30.4408 50.65C29.9941 50.4433 29.5941 50.1867 29.2408 49.88C28.8941 49.5733 28.6108 49.2467 28.3908 48.9C28.1641 49.2867 27.8808 49.64 27.5408 49.96C27.2074 50.28 26.7974 50.57 26.3108 50.83L25.6508 50.07C25.9374 49.9167 26.2108 49.7467 26.4708 49.56C26.7308 49.3667 26.9608 49.15 27.1608 48.91C27.3541 48.6767 27.5108 48.4233 27.6308 48.15C27.7508 47.8767 27.8108 47.57 27.8108 47.23V46.76H26.0008ZM35.24 46.4V45.46H37.65V46.4H35.24ZM42.07 54.03H41.03V45.28H42.07V54.03ZM40.27 53.71H39.23V49.68H38.04V48.72H39.23V45.43H40.27V53.71ZM38.41 48.02H36.97V48.25C36.97 48.63 37.0233 48.98 37.13 49.3C37.2367 49.62 37.3733 49.9133 37.54 50.18C37.7133 50.46 37.9033 50.7033 38.11 50.91C38.3233 51.11 38.5367 51.28 38.75 51.42L38.05 52.14C37.89 52.02 37.73 51.8867 37.57 51.74C37.4167 51.5933 37.27 51.4367 37.13 51.27C36.99 51.0967 36.86 50.92 36.74 50.74C36.6267 50.5533 36.53 50.3633 36.45 50.17C36.37 50.37 36.27 50.57 36.15 50.77C36.03 50.9633 35.8967 51.1533 35.75 51.34C35.61 51.5267 35.46 51.7033 35.3 51.87C35.14 52.03 34.98 52.1733 34.82 52.3L34.1 51.61C34.3067 51.47 34.5167 51.2867 34.73 51.06C34.9433 50.8333 35.14 50.57 35.32 50.27C35.4933 49.9833 35.6367 49.6733 35.75 49.34C35.8633 49.0067 35.92 48.66 35.92 48.3V48.02H34.46V47.1H38.41V48.02Z" fill="#87888D"/>
<circle cx="34" cy="24.7791" r="10" fill="#87888D"/>
<circle cx="34.0001" cy="24.7791" r="8.33333" fill="#E3E3E3"/>
<path fill-rule="evenodd" clip-rule="evenodd" d="M33.5759 28.5122C33.6536 28.4279 33.7493 28.3621 33.8559 28.3197C34.0166 28.2536 34.1934 28.2366 34.3639 28.2709C34.5343 28.3051 34.6907 28.3891 34.8132 28.5122C34.8947 28.592 34.9593 28.6873 35.003 28.7925C35.0467 28.8978 35.0687 29.0107 35.0677 29.1246C35.0691 29.2398 35.0473 29.3542 35.0035 29.4609C34.9598 29.5676 34.8951 29.6644 34.8132 29.7458C34.7333 29.8296 34.6364 29.8955 34.529 29.9393C34.4216 29.983 34.3061 30.0035 34.1902 29.9995C34.0761 30 33.9629 29.9778 33.8575 29.9342C33.752 29.8907 33.6563 29.8266 33.5759 29.7458C33.493 29.6647 33.4271 29.5681 33.3819 29.4615C33.3367 29.3549 33.3132 29.2404 33.3127 29.1246C33.3133 29.0101 33.3369 28.897 33.3821 28.7918C33.4273 28.6866 33.4932 28.5915 33.5759 28.5122ZM36.4534 21.6197C36.4793 21.6339 36.505 21.648 36.5332 21.6616C36.5794 21.6973 36.6234 21.7359 36.6648 21.7771C36.7466 21.8567 36.8113 21.952 36.855 22.0573C36.8987 22.1626 36.9206 22.2756 36.9193 22.3895C36.9206 22.5048 36.8988 22.6191 36.8551 22.7258C36.8114 22.8325 36.7467 22.9294 36.6648 23.0107C36.5835 23.0934 36.4866 23.1591 36.3797 23.2042C36.2727 23.2493 36.1579 23.2727 36.0418 23.2732C35.9271 23.2716 35.8139 23.2478 35.7083 23.2032C35.4977 23.1088 35.3292 22.9407 35.2345 22.7307C35.188 22.6226 35.1641 22.5062 35.1642 22.3886C35.1646 22.2742 35.188 22.1609 35.2333 22.0557C35.2785 21.9505 35.3446 21.8554 35.4275 21.7762C35.5075 21.6941 35.6029 21.6284 35.7083 21.5829C35.8683 21.5128 36.0464 21.4947 36.2173 21.5312L36.384 21.5829C36.4084 21.595 36.431 21.6074 36.4534 21.6197ZM40.2938 24.3543C40.4631 24.3868 40.6197 24.4667 40.7453 24.5847C40.8249 24.668 40.8875 24.7661 40.9295 24.8734C40.9788 24.9772 41.0028 25.0911 40.9997 25.2059C41.0014 25.3196 40.9805 25.4326 40.9383 25.5383C40.8872 25.6427 40.8223 25.7399 40.7453 25.8271C40.5789 25.9897 40.3552 26.0808 40.1222 26.0808C39.8892 26.0808 39.6655 25.9897 39.4992 25.8271C39.4216 25.742 39.3593 25.6444 39.3149 25.5383C39.2465 25.3792 39.2275 25.2033 39.2604 25.0333C39.2932 24.8633 39.3764 24.7071 39.4992 24.5847C39.5843 24.5072 39.6823 24.445 39.7888 24.4009C39.9492 24.3379 40.1244 24.3218 40.2938 24.3543Z" fill="#87888D"/>
<path fill-rule="evenodd" clip-rule="evenodd" d="M36.2704 15.4045L37.2559 15.4436C37.2987 15.2932 37.3603 15.1484 37.4395 15.0126L39.0889 12.181C39.2428 11.9207 39.2883 11.6104 39.2154 11.317C39.1426 11.0235 38.9574 10.7705 38.6997 10.6124C38.442 10.4543 38.1324 10.4038 37.8379 10.4718C37.5433 10.5399 37.2872 10.721 37.125 10.9761L35.3748 13.6836C33.1022 11.1516 28.1457 11.6451 27.9293 11.668C27.8016 11.6816 27.6846 11.7453 27.604 11.8451C27.5233 11.945 27.4856 12.0728 27.4992 12.2004C27.5127 12.328 27.5764 12.4451 27.6763 12.5257C27.7761 12.6064 27.9039 12.6441 28.0315 12.6305C28.0323 12.6305 28.0343 12.6303 28.0375 12.63C28.1835 12.6166 30.82 12.375 32.9181 13.1929C31.923 13.8365 30.7619 14.1762 29.5769 14.1704C27.4493 14.086 26.1785 13.4157 25.2053 11.8578C25.7113 11.4338 27.1091 10.5255 29.6579 10.7104C30.3976 10.7992 31.1169 11.0128 31.7851 11.342C31.8403 11.3756 31.9017 11.3977 31.9656 11.4072C32.0295 11.4166 32.0947 11.4132 32.1572 11.3971C32.2198 11.3809 32.2785 11.3524 32.3299 11.3133C32.3812 11.2741 32.4242 11.225 32.4563 11.169C32.4884 11.1129 32.509 11.051 32.5168 10.9868C32.5246 10.9227 32.5195 10.8577 32.5017 10.7955C32.484 10.7334 32.4539 10.6755 32.4134 10.6251C32.373 10.5748 32.3228 10.5331 32.2659 10.5024C31.4767 10.1046 30.6235 9.84907 29.7455 9.74768C26.7882 9.52043 25.1277 10.6522 24.5527 11.1442C24.3852 11.2891 24.2745 11.4887 24.2402 11.7075C24.206 11.9264 24.2505 12.1502 24.3658 12.3393C25.4988 14.1737 27.0892 15.0363 29.5203 15.1367L29.5389 15.1375C31.1124 15.1419 32.6448 14.6356 33.906 13.6946C34.2516 13.9163 34.5578 14.1941 34.812 14.5166C34.8853 14.6101 34.98 14.6846 35.0881 14.7341C35.1961 14.7835 35.3144 14.8064 35.4332 14.8009C35.5519 14.7953 35.6675 14.7614 35.7705 14.702C35.8734 14.6427 35.9607 14.5595 36.025 14.4596L37.9382 11.4994C37.9638 11.459 38.0043 11.4303 38.051 11.4195C38.0977 11.4088 38.1467 11.4168 38.1874 11.442C38.229 11.4668 38.2592 11.507 38.2714 11.5539C38.2836 11.6008 38.2768 11.6506 38.2526 11.6925L36.6031 14.5247C36.4436 14.7979 36.3313 15.0953 36.2704 15.4045Z" fill="#87888D"/>
<circle cx="34" cy="63" r="1.5" stroke="#87888D"/>
</svg>
