<svg width="68" height="72" viewBox="0 0 68 72" fill="none" xmlns="http://www.w3.org/2000/svg">
<rect x="0.5" y="0.5" width="67" height="71" rx="15.5" fill="#E0E0E0" fill-opacity="0.5"/>
<rect x="0.5" y="0.5" width="67" height="71" rx="15.5" stroke="#E0E0E0"/>
<path d="M32.0308 45.28H33.1108V54.03H32.0308V45.28ZM30.6908 46.81H28.8908V47.41C28.8908 48.2967 29.0874 49.0433 29.4808 49.65C29.8741 50.2433 30.3741 50.7167 30.9808 51.07L30.3008 51.89C29.8608 51.59 29.4608 51.2433 29.1008 50.85C28.7408 50.45 28.4808 50.03 28.3208 49.59C28.1408 50.07 27.8741 50.52 27.5208 50.94C27.1741 51.3533 26.7708 51.71 26.3108 52.01L25.6308 51.25C25.9308 51.0633 26.2074 50.85 26.4608 50.61C26.7208 50.37 26.9474 50.09 27.1408 49.77C27.3274 49.45 27.4741 49.1 27.5808 48.72C27.6941 48.34 27.7508 47.91 27.7508 47.43V46.81H25.9108V45.89H30.6908V46.81ZM36.53 50.89H41.81V54.34H40.73V51.81H36.53V50.89ZM40.73 45.28H41.81V50.46H40.73V45.28ZM39.19 50.18C38.73 49.96 38.3133 49.69 37.94 49.37C37.5733 49.0433 37.29 48.69 37.09 48.31C36.9033 48.73 36.62 49.1233 36.24 49.49C35.8667 49.85 35.43 50.1633 34.93 50.43L34.26 49.59C34.9267 49.2767 35.4633 48.86 35.87 48.34C36.29 47.8133 36.5 47.2067 36.5 46.52V45.43H37.65V46.49C37.65 47.1433 37.8533 47.7133 38.26 48.2C38.6667 48.68 39.1933 49.0533 39.84 49.32L39.19 50.18Z" fill="#87888D"/>
<path d="M34 36.25H33.5725C32.4379 36.1147 31.3937 35.5638 30.6415 34.7036C29.8894 33.8434 29.4827 32.735 29.5 31.5925V28.9075C28.0094 27.9374 26.8722 26.5117 26.2578 24.8427C25.6435 23.1737 25.5849 21.3509 26.0909 19.6459C26.5968 17.9409 27.6402 16.4451 29.0654 15.3813C30.4907 14.3176 32.2215 13.7429 34 13.7429C35.7785 13.7429 37.5093 14.3176 38.9346 15.3813C40.3598 16.4451 41.4032 17.9409 41.9091 19.6459C42.4151 21.3509 42.3565 23.1737 41.7422 24.8427C41.1278 26.5117 39.9906 27.9374 38.5 28.9075V31.75C38.5 32.9435 38.0259 34.0881 37.182 34.932C36.3381 35.7759 35.1935 36.25 34 36.25ZM34 15.25C33.7494 15.2517 33.499 15.2667 33.25 15.295C31.8691 15.456 30.5717 16.0395 29.5349 16.9657C28.4981 17.8918 27.7726 19.1155 27.4575 20.4696C27.1424 21.8236 27.253 23.2419 27.7743 24.5307C28.2956 25.8195 29.2021 26.9158 30.37 27.67C30.5641 27.7989 30.7233 27.974 30.8332 28.1795C30.9432 28.3849 31.0005 28.6145 31 28.8475V31.585C30.9803 32.3527 31.2451 33.1006 31.7435 33.6849C32.242 34.2691 32.9388 34.6485 33.7 34.75C34.1184 34.7921 34.541 34.7457 34.9404 34.6139C35.3397 34.4821 35.7069 34.2678 36.0181 33.9849C36.3292 33.702 36.5775 33.3568 36.7466 32.9718C36.9158 32.5868 37.0021 32.1705 37 31.75V28.8475C37.0013 28.6123 37.0617 28.3811 37.1757 28.1754C37.2898 27.9696 37.4537 27.7958 37.6525 27.67C38.8757 26.8799 39.8106 25.7154 40.3177 24.3503C40.8247 22.9851 40.8767 21.4927 40.4658 20.0956C40.055 18.6985 39.2033 17.4718 38.038 16.5985C36.8727 15.7252 35.4562 15.2522 34 15.25Z" fill="#87888D"/>
<path d="M37.75 29.6875H30.25V31.1875H37.75V29.6875Z" fill="#87888D"/>
<path d="M36.25 24.25H31.75C31.3358 24.25 31 24.5858 31 25C31 25.4142 31.3358 25.75 31.75 25.75H36.25C36.6642 25.75 37 25.4142 37 25C37 24.5858 36.6642 24.25 36.25 24.25Z" fill="#87888D"/>
<path d="M34.75 24.4375H33.25V30.4375H34.75V24.4375Z" fill="#87888D"/>
<circle cx="34" cy="63" r="1.5" stroke="#87888D"/>
</svg>
